<svg xmlns="http://www.w3.org/2000/svg" xmlns:xlink="http://www.w3.org/1999/xlink" width="683" height="504" viewBox="0 0 683 504">
  <defs>
    <path id="tempo-hero-a" d="M0,7.673 C0,11.539 3.134,14.673 7,14.673 L7,14.673 C10.866,14.673 14,11.539 14,7.673 L14,7.673 C14,3.807 10.866,0.673 7,0.673 L7,0.673 C3.134,0.673 0,3.807 0,7.673 L0,7.673 Z M1.5,7.673 C1.5,4.636 3.962,2.173 7,2.173 L7,2.173 C10.038,2.173 12.5,4.636 12.5,7.673 L12.5,7.673 C12.5,10.711 10.038,13.174 7,13.174 L7,13.174 C3.963,13.174 1.5,10.711 1.5,7.673 L1.5,7.673 Z"/>
    <path id="tempo-hero-c" d="M0.25,1.174 L0.25,4.673 C0.25,4.929 0.381,5.167 0.596,5.305 L0.596,5.305 L2.822,6.728 C3.171,6.952 3.634,6.849 3.858,6.501 L3.858,6.501 C4.081,6.151 3.978,5.688 3.63,5.464 L3.63,5.464 L1.75,4.263 L1.75,1.174 C1.75,0.759 1.414,0.423 1,0.423 L1,0.423 C0.586,0.423 0.25,0.759 0.25,1.174 L0.25,1.174 Z"/>
  </defs>
  <g fill="none" fill-rule="evenodd" transform="translate(-1)">
    <g transform="translate(83 7)">
      <path fill="#DCE7EF" d="M7.7085,109.4886 C22.6465,158.1116 65.3915,194.3026 119.8165,194.5546 C174.2425,194.8076 211.8485,170.5856 212.085832,119.7186 C212.3215,68.8536 180.9215,57.3816 126.4965,57.1286 C72.0705,56.8756 -28.1635,-7.2794 7.7085,109.4886"/>
      <path fill="#FAFCFD" d="M184.546,105.8568 L122.4,90.1008 L123.221,47.7858 C123.221,43.1898 126.946,39.4638 131.542,39.4638 L176.226,51.6548 C180.82,51.6548 184.546,55.0258 184.546,59.6208 L184.546,105.8568 Z"/>
      <path fill="#FAFCFD" d="M184.546,105.8568 L122.4,90.1008 L123.221,47.7858 C123.221,43.1898 126.946,39.4638 131.542,39.4638 L176.226,52.0318 C180.82,52.0318 184.546,55.0258 184.546,59.6208 L184.546,105.8568 Z"/>
      <path fill="#0AC2F0" d="M185.0665,67.8538 L123.7415,52.8868 L123.7415,47.6048 C123.7415,43.0098 127.4665,39.2848 132.0625,39.2848 L176.7455,51.1208 C182.1285,52.5958 185.0665,54.8458 185.0665,59.4408 L185.0665,67.8538 Z"/>
      <line x1="139.895" x2="139.895" y1="66.058" y2="86.786" stroke="#EDF2F7"/>
      <line x1="155.687" x2="155.687" y1="69.219" y2="89.947" stroke="#EDF2F7"/>
      <line x1="171.479" x2="171.479" y1="72.987" y2="93.715" stroke="#EDF2F7"/>
      <line x1="128.403" x2="182.303" y1="73.853" y2="87.32" stroke="#EDF2F7"/>
      <polygon fill="#0AC2F0" points="153.742 78.314 142.138 75.206 142.138 65.461 153.742 68.57"/>
      <polygon fill="#EDF2F7" points="169.573 95.323 157.981 92.662 157.981 82.918 169.573 85.579"/>
      <path stroke="#2C2C2C" stroke-linecap="round" d="M133.4971 44.0228C128.7431 35.0948 142.5261 29.0198 137.8551 41.0048M137.2574 45.1165C132.5034 35.8635 146.2864 29.5675 141.6154 41.9905M140.4532 45.9847C135.8182 36.3027 148.9882 30.7077 144.8112 42.6297M144.1573 47.0189C140.0483 37.3609 151.9633 30.7889 147.9253 43.7549M147.7901 47.9993C143.2541 38.5243 156.4061 32.0773 151.9491 44.7983M151.545 49.0296C146.791 39.0996 160.574 32.3426 155.903 45.6746M154.9288 49.9593C150.1748 40.0283 163.9578 33.2723 159.2868 46.6043M158.6895 50.9915C153.9355 41.0615 167.7185 34.3045 163.0465 47.6365M162.2608 51.972C157.5068 42.042 171.2898 35.285 166.6188 48.617M166.0215 53.0042C161.2675 43.0742 175.0505 36.3172 170.3785 49.6492M169.2169 53.8821C164.4629 43.9511 178.2459 37.1951 173.5749 50.5271M172.9766 54.9144C168.2226 44.9844 182.0066 38.2274 177.3346 51.5594"/>
      <path fill="#C3E5DB" d="M62.1143,90.4691 C67.3923,89.4231 72.1293,91.6091 80.6463,99.6461 C86.5183,105.1871 84.8503,128.1981 85.3333,135.9341 C89.8713,208.5651 35.8763,169.2541 35.8763,169.2541 C35.8763,169.2541 37.4993,161.4501 36.2403,153.1711 C34.2603,140.1331 28.2853,137.2231 31.2713,116.9051 C32.6603,107.4581 35.5563,99.2641 42.2733,94.9791"/>
      <polygon fill="#F29198" points="42.972 83.66 42.273 94.978 66.952 109.267 61.767 95.2 61.535 84.93"/>
      <path fill="#E77382" d="M61.419,87.5989 L61.656,92.2989 C61.656,92.2989 63.11,99.8079 61.812,99.2589 C60.482,98.6979 52.217,94.7629 52.158,94.7159 C51.122,93.8919 45.06,90.1729 45.06,90.1729 L44.775,84.9199"/>
      <path fill="#F29198" d="M69.8262,71.9329 C68.2462,79.4609 71.0622,83.2589 66.5042,87.1959 C65.0812,88.4249 63.4592,89.6099 61.6032,90.8309 C59.5672,91.3429 59.0032,91.6929 56.4592,91.1949 C52.9682,89.9129 44.0962,85.6149 41.7922,83.0079 C35.6912,76.1049 28.7022,73.3509 30.6542,64.0549 C33.3052,51.4199 41.8512,42.6349 53.5132,44.9189 C65.1742,47.2039 72.4782,59.2979 69.8262,71.9329"/>
      <path fill="#0B1528" d="M65.856,68.3802 C68.111,67.7252 71.584,74.4242 68.569,74.8242 C65.554,75.2242 65.846,73.4532 65.846,73.4532"/>
      <path fill="#91C3B4" d="M84.3697,114.6888 C83.8077,106.5028 80.5967,99.6618 74.2617,94.9268 C74.1627,94.8268 74.0737,94.7038 73.9737,94.6068 C73.0677,93.7338 67.8667,91.2808 69.7527,91.3388 C78.6037,91.6118 82.4167,93.1098 86.7747,103.0498 C90.8627,112.3758 96.6307,128.2698 96.6307,133.3088 C96.5737,138.0408 84.3897,136.1108 84.3897,136.1108 C84.3897,136.1108 84.6667,119.0118 84.3697,114.6888"/>
      <path fill="#0B1528" d="M41.2998,60.9017 L43.4238,60.7747 L47.8928,80.2787 L59.1308,83.8107 L62.3418,78.6727 L70.2408,77.7577 C70.2408,77.7577 69.2008,87.2717 65.0708,89.9117 C58.7888,93.9257 47.4108,90.2327 45.6448,88.7877 C43.8788,87.3417 44.1998,84.6137 44.1998,84.6137 L41.2998,60.9017 Z"/>
      <path fill="#0B1528" d="M41.3106,75.6761 C40.2406,74.8211 36.4946,71.8231 38.3136,69.4691 C40.1326,67.1141 51.4626,55.0201 64.8416,53.3071 C64.8416,53.3071 67.9676,56.6061 67.9336,55.5541 C67.8826,54.0271 66.8426,52.6591 73.0236,50.5721 C79.2046,48.4861 52.8116,34.0911 38.9026,44.4781 C27.6646,45.6011 28.9486,55.2341 28.9486,55.2341 C28.9486,55.2341 29.8086,72.4921 31.6776,75.1411 C34.5676,79.2351 41.7916,83.0081 41.7916,83.0081 C42.4876,80.1711 42.3806,76.5321 41.3106,75.6761"/>
      <path stroke="#0AC2F0" d="M132.9668,82.1956 C132.9668,83.6356 132.0158,84.8036 130.8428,84.8036 C129.6698,84.8036 128.7188,83.6356 128.7188,82.1956 C128.7188,80.7546 129.6698,79.5876 130.8428,79.5876 C132.0158,79.5876 132.9668,80.7546 132.9668,82.1956 Z"/>
      <polygon fill="#2A2A2A" points="130.147 81.461 131.407 82.581 128.817 82.336"/>
      <path fill="#C3E5DB" d="M82.8272,122.8929 C77.3292,125.6759 85.9642,139.9139 94.3362,136.5649 C102.7082,133.2159 123.9172,81.3089 123.9172,81.3089 L110.5222,76.2869 L82.8272,122.8929 Z"/>
      <polyline fill="#FDF7E1" points="126.778 82.356 130.147 82.477 129.622 82.127 130.427 82.022 130.147 81.461 128.104 79.775"/>
      <polygon fill="#E7CB3D" points="128.103 79.775 109.769 67.255 109.266 68.752 108.219 70.356 106.963 70.915 126.778 82.356 127.43 81.95 127.927 80.941"/>
      <line x1="127.927" x2="109.267" y1="80.941" y2="68.752" stroke="#2A2A2A" stroke-width=".1"/>
      <line x1="108.22" x2="127.43" y1="70.356" y2="81.95" stroke="#2A2A2A" stroke-width=".1"/>
      <path fill="#DF7426" d="M109.7671,67.1976 L109.2341,68.7186 L108.2451,70.3546 L106.8761,70.8876 C106.8761,70.8876 106.2181,70.4676 105.5731,69.9866 C104.0051,68.7886 106.6701,65.2526 107.9791,66.0936 C108.3971,66.3736 109.7671,67.1976 109.7671,67.1976"/>
      <path fill="#F29198" d="M123.3843,82.7679 C120.6213,85.2429 114.3233,84.8089 110.5223,80.5649 C106.7213,76.3219 109.0153,75.3439 111.7783,72.8699 C112.7263,72.0209 113.5393,70.7319 113.2243,69.2229 C112.6483,66.4559 119.7643,67.0919 122.2613,69.8799 C126.0623,74.1229 126.1473,80.2929 123.3843,82.7679"/>
      <polygon fill="#F29198" points="108.76 75.951 109.514 72.367 112.093 73.686 110.018 75.197 109.2 75.951"/>
      <polyline fill="#FAFCFD" points="184.873 57.249 195.359 93.402 186.491 95.249 184.546 105.856"/>
      <path fill="#0AC2F0" d="M88.9781 10.514L112.0111 13.588C112.0111 13.588 112.0111 39.635 110.5221 38.704 108.4061 37.382 86.7461 36.002 87.6761 33.955 88.6061 31.91 88.9781 10.514 88.9781 10.514M122.0572.0276L147.3842 3.9276C147.3842 3.9276 147.1272 29.9726 145.6472 29.0276 143.5442 27.6836 119.5732 25.4926 120.5232 23.4556 121.4742 21.4186 122.0572.0276 122.0572.0276"/>
      <path fill="#0B1528" d="M140.92 7.1605C139.845 7.5225 139.325 8.7425 139.613 9.8085 139.932 10.9895 141.196 11.6285 142.352 11.6055 143.516 11.5835 145.004 10.7855 144.89 9.4325 144.775 8.0735 143.293 7.2415 142.068 7.0885 141.298 6.9915 140.524 7.2255 140.05 7.8605 139.661 8.3845 139.548 9.1445 139.932 9.7035 140.085 9.9255 140.371 10.0255 140.616 9.8825 140.836 9.7535 140.949 9.4225 140.795 9.1985 140.766 9.1555 140.737 9.1125 140.715 9.0655 140.753 9.1485 140.699 8.9995 140.699 8.9965 140.671 8.9045 140.692 8.9555 140.694 8.9815 140.69 8.9315 140.691 8.8815 140.694 8.8315 140.688 8.9285 140.707 8.7705 140.709 8.7625 140.717 8.7285 140.727 8.6955 140.738 8.6635 140.787 8.5165 140.698 8.7265 140.77 8.5895 140.803 8.5265 140.839 8.4645 140.882 8.4085 140.867 8.4285 140.839 8.4565 140.904 8.3855 140.941 8.3465 140.978 8.3075 141.019 8.2725 141.053 8.2445 141.093 8.2145 141.18 8.1735 141.391 8.0725 141.629 8.0545 141.857 8.0675 142.308 8.0935 142.763 8.2745 143.142 8.5125 143.458 8.7095 143.766 8.9995 143.859 9.3155 143.891 9.4185 143.893 9.4125 143.894 9.5185 143.896 9.6315 143.893 9.6605 143.85 9.7815 143.804 9.9125 143.701 10.0455 143.567 10.1685 143.308 10.4065 142.876 10.5645 142.555 10.5945 141.792 10.6655 140.993 10.4075 140.64 9.7235 140.569 9.5865 140.653 9.7685 140.622 9.6835 140.602 9.6305 140.585 9.5745 140.571 9.5185 140.559 9.4715 140.548 9.4225 140.541 9.3735 140.556 9.4695 140.537 9.3145 140.537 9.3085 140.524 9.0585 140.531 8.9955 140.609 8.7575 140.619 8.7255 140.629 8.6945 140.642 8.6645 140.609 8.7455 140.686 8.5795 140.694 8.5625 140.714 8.5275 140.736 8.4945 140.757 8.4595 140.771 8.4395 140.784 8.4195 140.798 8.4005 140.769 8.4375 140.773 8.4335 140.81 8.3895 140.842 8.3535 140.875 8.3195 140.91 8.2865 140.916 8.2815 141.03 8.1955 140.958 8.2455 140.997 8.2185 141.038 8.1925 141.08 8.1695 141.109 8.1545 141.138 8.1395 141.167 8.1265 141.124 8.1465 141.13 8.1455 141.186 8.1245 141.441 8.0385 141.609 7.7805 141.535 7.5095 141.467 7.2605 141.177 7.0735 140.92 7.1605M124.292 14.1165C130.006 15.2455 135.648 17.1405 141.531 17.0875 142.174 17.0815 142.176 16.0815 141.531 16.0875 135.739 16.1395 130.184 14.2635 124.558 13.1525 123.929 13.0285 123.66 13.9915 124.292 14.1165M124.5889 17.1839C129.8219 17.6899 134.8219 19.5239 140.0569 20.0299 140.6969 20.0909 140.6929 19.0909 140.0569 19.0299 134.8239 18.5239 129.8239 16.6899 124.5889 16.1839 123.9489 16.1219 123.9529 17.1219 124.5889 17.1839M124.1831 19.9241C128.0351 20.2721 131.6291 21.9351 135.4851 22.2821 136.1261 22.3411 136.1221 21.3401 135.4851 21.2821 131.6331 20.9361 128.0391 19.2721 124.1831 18.9241 123.5421 18.8661 123.5461 19.8661 124.1831 19.9241M93.4781 19.6839C98.1861 20.6719 102.6591 22.4609 107.4841 22.8809 108.1251 22.9369 108.1221 21.9359 107.4841 21.8809 102.7551 21.4689 98.3591 19.6889 93.7441 18.7189 93.1161 18.5869 92.8471 19.5509 93.4781 19.6839M93.0943 24.1136C95.1443 24.9116 97.3653 25.3786 99.4963 25.8996 102.0733 26.5296 104.6763 27.1576 107.3103 27.4956 107.9473 27.5776 107.9413 26.5766 107.3103 26.4956 104.7143 26.1626 102.1423 25.5196 99.6043 24.8956 97.5253 24.3846 95.3603 23.9276 93.3603 23.1486 92.7603 22.9156 92.5003 23.8826 93.0943 24.1136M93.2627 28.8441C97.4727 29.2491 101.4967 30.6461 105.7087 31.0511 106.3487 31.1131 106.3447 30.1131 105.7087 30.0511 101.4987 29.6461 97.4747 28.2491 93.2627 27.8441 92.6227 27.7821 92.6267 28.7831 93.2627 28.8441"/>
      <path fill="#91C3B4" d="M82.9146,142.7474 C71.3666,142.8934 52.0346,138.9504 39.2586,131.0964 C29.1076,124.8554 33.3546,105.7654 39.7336,107.3274 C41.0156,107.6424 46.0716,114.0384 55.0966,116.3104 C69.6386,119.9734 84.1896,130.4674 85.7166,131.9804 C88.1916,134.4344 83.6496,139.6494 82.9146,142.7474"/>
      <path fill="#C3E5DB" d="M91.4688,137.1429 C89.9338,136.6259 52.9568,139.2019 35.9588,128.7509 C25.8078,122.5109 33.3548,101.9319 39.7338,103.4949 C41.0158,103.8079 46.0718,110.2049 55.0968,112.4779 C69.6378,116.1399 86.7678,118.6449 88.2948,120.1589 C90.7698,122.6129 93.6338,137.8719 91.4688,137.1429"/>
      <path fill="#91C3B4" d="M46.3374 102.9505C46.3374 102.9505 51.7324 103.8025 54.4294 106.0735 57.1274 108.3455 64.0834 113.1725 64.0834 113.1725L82.5394 118.4255 60.2504 114.7335C60.2504 114.7335 50.8804 107.6355 47.8994 107.3505 47.8994 107.3505 51.5904 107.7775 55.2814 109.9065 58.9724 112.0365 57.2694 108.9135 53.1514 106.7835 49.0344 104.6535 46.3374 102.9505 46.3374 102.9505M85.4219 119.7396C86.4539 120.1816 90.2889 124.1646 90.4369 125.9336"/>
      <polygon fill="#FEFEFE" points="189.786 13.813 255.84 24.381 254.959 69.298 189.786 57.849"/>
      <polyline stroke="#DCE7EF" points="189.786 13.813 217.543 48.005 255.84 24.381"/>
      <line x1="209.938" x2="189.787" y1="37.684" y2="57.849" stroke="#DCE7EF"/>
      <line x1="229.563" x2="255.571" y1="41.008" y2="68.82" stroke="#DCE7EF"/>
      <path fill="#0AC2F0" d="M264.126,20.9329 C264.126,27.3979 259.3,32.6379 253.347,32.6379 C247.393,32.6379 242.566,27.3979 242.566,20.9329 C242.566,14.4679 247.393,9.2269 253.347,9.2269 C259.3,9.2269 264.126,14.4679 264.126,20.9329"/>
      <path fill="#FEFEFE" d="M248.8087,26.0325 L248.8087,24.0625 C253.6107,21.1845 255.0177,20.1865 255.0177,18.7445 C255.0177,17.7075 254.0847,17.0835 253.1177,16.9475 C251.7817,16.7605 250.7617,17.1445 249.9697,17.8595 L248.5447,16.0065 C249.6887,14.8475 251.4297,14.4945 253.0647,14.7245 C255.5797,15.0775 257.5497,16.7615 257.5497,19.1005 C257.5497,21.1055 255.8967,22.6145 252.8537,24.4025 L257.6377,25.0745 L257.6377,27.2735 L248.8087,26.0325 Z"/>
      <path fill="#DCE7EF" d="M236.6212,123.2308 C233.3722,128.7408 231.5062,135.0318 231.2652,141.4258 C231.2182,142.6618 231.1592,144.0758 232.2372,144.9158 C233.0912,145.5798 234.2662,145.5748 235.2692,145.3208 C237.7692,144.6888 239.8862,142.3918 241.0232,140.1688 C241.5322,139.1768 241.8432,138.1428 241.5042,137.0358 C241.2392,136.1718 240.5142,135.4368 239.5552,135.7818 C238.9712,135.9918 238.6472,136.5388 238.3492,137.0448 C237.9042,137.7988 237.4762,138.5638 237.0702,139.3388 C236.3152,140.7798 235.6312,142.2678 235.1182,143.8138 C234.1872,146.6188 233.9032,149.6558 234.8512,152.4978 C235.7032,155.0478 237.5492,158.0638 240.2472,158.9528 C241.5042,159.3668 243.0142,159.2318 244.0942,158.4338 C245.3902,157.4758 245.5462,155.8678 245.7442,154.3888 C246.2762,150.4058 246.8092,146.4218 247.3432,142.4388 L246.3432,142.4388 C246.3812,144.4598 246.3702,146.4888 246.4562,148.5078 C246.5142,149.8488 248.5642,149.9568 249.5582,149.7248 C252.9052,148.9468 253.4772,145.2538 253.6762,142.3658 C253.3492,142.4098 253.0202,142.4538 252.6932,142.4988 C253.0702,144.7488 253.4462,146.9998 253.8232,149.2508 C254.1542,151.2328 254.3862,153.2878 255.1832,155.1508 C255.8662,156.7468 257.0542,158.1288 258.7062,158.7568 C260.1302,159.2978 261.7622,159.1008 262.8412,157.9738 C263.8752,156.8938 264.3092,155.1338 263.3632,153.8628 C262.9832,153.3518 262.1152,153.8498 262.5002,154.3678 C263.4222,155.6058 262.5392,157.4188 261.1802,157.9108 C259.2912,158.5948 257.3362,157.0418 256.4592,155.4908 C255.4132,153.6408 255.1932,151.4128 254.8492,149.3518 C254.4522,146.9788 254.0552,144.6058 253.6582,142.2328 C253.5592,141.6468 252.7122,141.8358 252.6762,142.3658 C252.5562,144.1208 252.4322,146.1708 251.2372,147.5798 C250.3422,148.6338 248.5282,149.3518 247.3142,148.3978 C247.3632,148.5158 247.4122,148.6328 247.4612,148.7518 C247.4222,146.6478 247.3822,144.5428 247.3432,142.4388 C247.3302,141.7758 246.4262,141.8208 246.3432,142.4388 C245.9512,145.3658 245.5592,148.2928 245.1682,151.2178 C244.9752,152.6628 244.8392,154.1288 244.5722,155.5618 C244.3472,156.7798 243.7802,157.7638 242.5172,158.0808 C240.0132,158.7088 238.0602,156.4648 236.9062,154.5558 C235.5182,152.2618 234.9942,149.6178 235.3792,146.9658 C235.7602,144.3358 236.8562,141.8568 238.1002,139.5318 C238.4182,138.9338 238.7502,138.3438 239.0912,137.7588 C239.2852,137.4238 239.7012,136.4368 240.2192,136.7538 C240.9042,137.1748 240.6612,138.5618 240.4122,139.1378 C239.5342,141.1628 237.8492,143.1688 235.8022,144.0828 C234.9902,144.4458 233.8512,144.7118 233.0262,144.2468 C231.9522,143.6388 232.2332,142.0048 232.2842,140.9818 C232.5872,134.9138 234.4002,128.9658 237.4842,123.7358 C237.8122,123.1798 236.9482,122.6758 236.6212,123.2308"/>
      <path fill="#DCE7EF" d="M246.2491 113.7396C235.2721 112.9606 224.9381 120.9046 221.4691 131.0976 217.7961 141.8906 222.1171 154.2146 230.2461 161.7986 239.1501 170.1076 252.3141 172.5426 263.9941 170.0326 270.0101 168.7406 276.1211 166.1466 280.3111 161.4976 284.3391 157.0256 286.3341 150.5836 284.2011 144.7826 283.1031 141.7956 281.1701 139.2106 279.0801 136.8466 277.0081 134.5036 274.7521 132.3136 272.3041 130.3636 267.6071 126.6226 262.1101 123.6746 256.0781 122.9596 254.6011 122.7846 253.1141 122.7596 251.6321 122.8736 250.9941 122.9226 250.9881 123.9226 251.6321 123.8736 257.5051 123.4206 263.1551 125.4106 268.0581 128.5386 270.6031 130.1636 272.9531 132.0796 275.1291 134.1706 277.2801 136.2376 279.3581 138.4646 281.0461 140.9316 282.7861 143.4786 284.0341 146.3626 284.0891 149.4856 284.1411 152.4096 283.2561 155.2956 281.7841 157.8056 278.6941 163.0776 273.1341 166.2956 267.4451 168.0876 256.3501 171.5816 243.4781 170.3586 233.8901 163.5006 225.1161 157.2256 219.6681 145.8366 221.5051 135.0436 223.2461 124.8156 232.0911 115.9126 242.5351 114.7996 243.7701 114.6686 245.0111 114.6516 246.2491 114.7396 246.8921 114.7856 246.8891 113.7856 246.2491 113.7396M90.9854 317.6185C115.6364 397.8595 186.1774 457.5845 275.9944 458.00336 365.8114 458.4185 471.0524 388.6635 471.444597 304.7225 471.8334 220.7795 376.8344 231.6265 287.0174 231.2095 197.2014 230.7925 31.7864 124.9205 90.9854 317.6185"/>
      <path fill="#CB6128" d="M359.1797,335.6263 C352.2907,328.3363 337.4367,324.8923 317.3347,335.0233 C297.2337,345.1563 257.8077,366.9773 257.8077,366.9773 L271.0487,380.2583 L339.1107,366.3853"/>
      <path fill="#2891CF" d="M301.2794,321.8294 C301.5084,344.7144 294.4494,363.1664 285.5154,363.2554 C284.9574,363.2614 279.6334,363.3134 279.6334,363.3134 C279.6334,363.3134 269.1414,343.6064 268.9274,322.1524 C268.7654,305.8774 273.5444,287.2704 278.8054,280.4394 C281.3164,280.4144 282.1084,280.4064 284.6884,280.381083 C293.6224,280.2924 301.0504,298.9444 301.2794,321.8294"/>
      <path fill="#2283B4" d="M295.3956,321.7152 C295.6236,344.6012 288.5666,363.2252 279.6326,363.31452 C270.6996,363.4032 263.2716,344.9232 263.0426,322.0382 C262.8146,299.1532 269.8726,280.5282 278.8056,280.43988 C287.7396,280.3512 295.1666,298.8302 295.3956,321.7152"/>
      <path fill="#369BBE" d="M292.6827,321.7425 C292.9007,343.4975 286.6207,361.1965 278.6567,361.276765 C270.6917,361.3555 264.0597,343.7845 263.8427,322.0305 C263.6247,300.2755 269.9057,282.5765 277.8697,282.496235 C285.8337,282.4175 292.4657,299.9885 292.6827,321.7425"/>
      <path fill="#6DCBDB" d="M279.7637,360.8285 C285.4717,358.8265 291.8127,348.5905 291.5467,321.9055 C291.2797,295.1375 284.7377,285.3135 278.9817,283.2085 L278.9517,283.18927 C286.3227,283.1165 292.5197,300.4545 292.7337,321.8935 C292.9477,343.3335 287.1457,360.7725 279.7767,360.8465 L279.7637,360.8285 Z"/>
      <path fill="#0AC2F0" d="M148.4464,346.8607 L147.5964,261.8057 C119.5054,262.0867 97.1304,302.1967 97.6214,351.3937 C97.8144,370.6997 101.4994,388.5357 107.6034,403.0667 L148.4464,346.8607 Z"/>
      <polygon fill="#86D3E6" points="148.446 346.861 107.603 403.067 122.081 403.067 163.267 347.151 162.213 264.7 147.596 261.806"/>
      <polygon fill="#DF7426" points="287.073 400.899 295.014 405.882 290.077 408.261 287.215 404.171"/>
      <path fill="#2891CF" d="M286.6319,435.5863 L282.7249,435.669578 C282.0739,435.6833 281.5359,435.1663 281.5229,434.5163 L279.7739,352.0983 C279.7599,351.4473 280.2759,350.9093 280.9259,350.8963 L284.8319,350.813022 C285.4829,350.7993 286.0209,351.3153 286.0349,351.9653 L287.7839,434.3833 C287.7979,435.0333 287.2819,435.5723 286.6319,435.5863"/>
      <path fill="#85D2E7" d="M292.6846,321.8939 C292.8986,343.3329 287.0976,360.7739 279.7276,360.84713 C272.3576,360.9199 266.2086,343.5999 265.9956,322.1609 C265.7816,300.7209 271.5816,283.2819 278.9526,283.207664 C286.3226,283.1339 292.4706,300.4559 292.6846,321.8939"/>
      <path fill="#CB6128" d="M198.2559,356.7445 C198.2559,356.7445 251.4729,387.5845 273.3189,379.6075 C277.7429,377.9915 275.7449,363.3635 268.4629,361.8035 C261.1809,360.2425 204.9329,349.6635 204.9329,349.6635"/>
      <polygon fill="#FEFEFE" points="422.092 367.661 458.129 367.661 458.129 336.53 422.092 336.53"/>
      <polygon fill="#FEFEFE" points="465.648 293.628 501.685 293.628 501.685 262.497 465.648 262.497"/>
      <polygon fill="#FEFEFE" points="422.092 330.858 458.129 330.858 458.129 299.727 422.092 299.727"/>
      <polygon fill="#FEFEFE" points="465.648 330.858 501.685 330.858 501.685 299.727 465.648 299.727"/>
      <polygon fill="#FEFEFE" points="508.536 293.628 544.573 293.628 544.573 262.497 508.536 262.497"/>
      <polygon fill="#FEFEFE" points="378.93 293.628 414.967 293.628 414.967 262.497 378.93 262.497"/>
      <polygon fill="#FEFEFE" points="508.536 330.858 544.573 330.858 544.573 299.727 508.536 299.727"/>
      <polygon fill="#FEFEFE" points="378.93 330.858 414.967 330.858 414.967 299.727 378.93 299.727"/>
      <path stroke="#0C1629" stroke-linecap="round" stroke-width=".5" d="M401.4288,293.4994 C401.5148,295.9034 403.3028,296.5174 404.1878,296.6194 C410.3798,297.3334 420.3208,297.5354 420.7498,309.7294"/>
      <path fill="#20B57C" d="M470.8272,288.4857 C474.6542,288.9227 478.5082,289.0117 482.350197,288.7467 C482.9892,288.7027 482.9942,287.7027 482.350197,287.7467 C478.5082,288.0117 474.6542,287.9237 470.8272,287.4857 C470.1882,287.4127 470.1942,288.4137 470.8272,288.4857"/>
      <polyline fill="#BBD7DF" points="420.102 289.19 458.714 293.658 454.566 280.893"/>
      <polygon fill="#FEFEFE" points="457.757 289.829 420.028 290.353 421.697 260.789 458.448 264.094 454.566 276.745"/>
      <polyline fill="#BBD7DF" points="434.781 261.965 445.631 262.941 445.631 258.556 434.781 258.556"/>
      <polygon fill="#DCE7EF" points="445.631 262.941 434.781 261.965 434.781 265.895 445.631 265.895"/>
      <polygon fill="#DCE7EF" points="489.268 299.726 478.418 299.77 478.418 303.7 489.268 303.7"/>
    </g>
    <text fill="#20B57C" font-family="ProximaNova-Semibold, Proxima Nova" font-size="7.309" font-weight="500" letter-spacing=".021">
      <tspan x="573.06" y="296.4">1h</tspan>
    </text>
    <text fill="#EC9C31" font-family="ProximaNova-Semibold, Proxima Nova" font-size="7.309" font-weight="500" letter-spacing=".021">
      <tspan x="526.481" y="292.819">5h</tspan>
    </text>
    <path fill="#20B57C" d="M595.7589,295.2357 C599.5859,295.6727 603.4399,295.7617 607.281897,295.4977 C607.9209,295.4537 607.9259,294.4527 607.281897,294.4977 C603.4399,294.7617 599.5859,294.6737 595.7589,294.2357 C595.1199,294.1627 595.1259,295.1637 595.7589,295.2357"/>
    <text fill="#20B57C" font-family="ProximaNova-Semibold, Proxima Nova" font-size="7.309" font-weight="500" letter-spacing=".021">
      <tspan x="614.991" y="296.15">3h</tspan>
    </text>
    <text fill="#0AC2F0" font-family="ProximaNova-Semibold, Proxima Nova" font-size="7.309" font-weight="500" letter-spacing=".021">
      <tspan x="528.594" y="330.787">3h</tspan>
    </text>
    <path fill="#EC9C31" d="M557.5753,332.1761 C561.4023,332.6131 565.2563,332.7021 569.098297,332.4371 C569.7373,332.3931 569.7423,331.3931 569.098297,331.4371 C565.2563,331.7021 561.4023,331.6141 557.5753,331.1761 C556.9363,331.1031 556.9423,332.1031 557.5753,332.1761"/>
    <text fill="#EC9C31" font-family="ProximaNova-Semibold, Proxima Nova" font-size="7.309" font-weight="500" letter-spacing=".021">
      <tspan x="572.561" y="333.091">1h</tspan>
    </text>
    <g transform="translate(507 269)">
      <g transform="translate(0 4)">
        <path fill="#064975" d="M142.819557,1.91413672 C142.751557,1.53313672 143.015557,1.11713672 143.368557,1.03713672 C143.413557,1.53613672 143.426557,2.03513672 143.400557,2.53313672 C143.119557,2.41213672 142.875557,2.21913672 142.819557,1.91413672 M138.066557,5.54213672 C137.647557,6.23713672 136.410557,6.85413672 135.798557,6.05913672 C135.209557,5.29513672 135.392557,3.71113672 135.843557,2.92213672 C136.084557,2.50113672 136.468557,2.18513672 136.976557,2.25013672 C137.384557,2.30113672 137.769557,2.54313672 137.740557,2.98513672 C137.715557,3.36613672 138.056557,3.51513672 138.347557,3.44313672 C138.456557,4.17813672 138.441557,4.92113672 138.066557,5.54213672 M149.469557,6.38013672 C148.489557,6.45013672 147.721557,5.70713672 147.422557,4.81913672 C147.044557,3.69713672 147.357557,2.44913672 147.610557,1.33713672 C147.713557,0.88313672 147.121557,0.45113672 146.774557,0.85113672 C146.150557,1.57013672 145.384557,2.50113672 144.390557,2.66013672 C144.433557,1.96613672 144.417557,1.26813672 144.327557,0.57713672 C144.295557,0.33313672 144.189557,0.18513672 143.960557,0.0951367198 C143.166557,-0.21786328 142.361557,0.28213672 142.004557,1.00113672 C141.616557,1.78313672 141.851557,2.66013672 142.535557,3.18513672 C142.781557,3.37413672 143.030557,3.50213672 143.279557,3.58613672 C143.248557,3.77513672 143.220557,3.96313672 143.176557,4.15013672 C142.994557,4.92813672 142.664557,6.43013672 141.625557,6.41813672 C140.601557,6.40613672 140.023557,5.22313672 139.798557,4.38913672 C139.528557,3.39613672 139.402557,2.39113672 138.900557,1.47513672 C138.673557,1.06113672 138.108557,1.22613672 137.996557,1.60013672 C137.357557,1.19213672 136.447557,1.12713672 135.798557,1.53313672 C134.431557,2.38713672 134.144557,4.73213672 134.701557,6.12313672 C135.307557,7.63513672 137.064557,7.72813672 138.238557,6.81213672 C138.693557,6.45613672 138.972557,6.01813672 139.146557,5.53913672 C139.198557,5.64813672 139.248557,5.76013672 139.310557,5.86513672 C139.841557,6.75813672 140.840557,7.56613672 141.939557,7.39313672 C143.093557,7.20913672 143.643557,6.10013672 143.957557,5.09213672 C144.099557,4.63313672 144.197557,4.16413672 144.273557,3.69113672 C145.005557,3.60613672 145.711557,3.19813672 146.333557,2.68713672 C146.202557,3.65413672 146.215557,4.63513672 146.634557,5.53013672 C147.148557,6.62113672 148.224557,7.46913672 149.469557,7.38013672 C150.107557,7.33413672 150.113557,6.33413672 149.469557,6.38013672"/>
        <path fill="#2AB882" d="M52.4543568 11.9962367C52.4783568 12.4772367 52.3263568 14.3742367 51.5053568 13.4922367 50.8763568 12.8162367 50.7803568 11.5982367 50.6253568 10.7342367 50.4863568 9.95723672 50.3983568 9.17023672 50.3343568 8.38123672 51.5573568 9.15223672 52.3813568 10.5542367 52.4543568 11.9962367M50.3573568 4.06723672C50.4433568 3.18323672 50.6033568 2.02723672 51.4733568 1.55823672 52.3533568 1.08623672 53.1013568 1.67823672 52.9433568 2.63623672 52.7853568 3.58723672 52.0983568 4.40823672 51.4453568 5.07723672 51.0773568 5.45523672 50.6783568 5.79323672 50.2543568 6.09623672 50.2633568 5.41823672 50.2913568 4.74023672 50.3573568 4.06723672M57.9063568 6.87823672C57.4183568 7.14523672 56.8653568 6.69523672 56.6913568 6.24223672 56.5083568 5.76523672 56.5993568 5.22323672 56.7363568 4.71323672 56.8043568 4.49223672 56.8683568 4.27323672 56.9263568 4.05923672 57.0963568 3.43623672 56.1483568 3.17923672 55.9623568 3.79323672 55.9083568 3.96823672 55.8573568 4.15023672 55.8083568 4.33423672 55.4913568 5.41823672 55.0003568 6.65523672 53.8623568 6.96723672 53.1483568 7.16323672 52.3733568 6.96623672 51.6553568 6.88923672 51.3923568 6.86123672 51.1413568 6.85723672 50.8913568 6.86923672 51.4473568 6.46523672 51.9653568 6.00723672 52.4253568 5.49223672 53.1863568 4.64223672 53.9103568 3.61823672 53.9673568 2.43523672 54.0173568 1.36123672 53.2813568.40023672 52.1623568.38323672 50.9973568.36323672 50.1133568 1.21123672 49.7183568 2.24623672 49.2123568 3.57223672 49.2383568 5.18123672 49.2473568 6.57923672 49.2483568 6.62523672 49.2543568 6.67023672 49.2543568 6.71523672 49.1033568 6.79723672 48.9553568 6.88123672 48.8003568 6.95623672 48.2203568 7.23523672 48.7263568 8.09823672 49.3053568 7.82023672 49.3073568 7.81823672 49.3093568 7.81623672 49.3123568 7.81523672 49.3763568 8.96323672 49.4903568 10.1072367 49.7053568 11.2362367 49.9163568 12.3502367 50.1183568 13.8792367 51.1973568 14.5282367 52.2363568 15.1542367 53.1413568 14.2532367 53.3543568 13.2542367 53.7963568 11.1872367 52.8553568 9.09723672 51.2373568 7.84623672 51.7433568 7.86823672 52.2603568 7.97823672 52.7423568 8.01923672 53.4783568 8.08223672 54.2213568 8.00823672 54.8623568 7.61323672 55.2483568 7.37723672 55.5543568 7.06023672 55.8123568 6.70523672 55.8803568 6.85723672 55.9613568 7.00823672 56.0713568 7.14823672 56.6333568 7.86923672 57.5823568 8.19623672 58.4113568 7.74123672 58.9753568 7.43223672 58.4713568 6.56823672 57.9063568 6.87823672M99.8176568 1.91413672C99.7496568 1.53313672 100.013657 1.11713672 100.366657 1.03713672 100.410657 1.53613672 100.424657 2.03513672 100.397657 2.53313672 100.116657 2.41213672 99.8726568 2.21913672 99.8176568 1.91413672M95.0646568 5.54213672C94.6456568 6.23713672 93.4086568 6.85413672 92.7956568 6.05913672 92.2076568 5.29513672 92.3906568 3.71113672 92.8406568 2.92213672 93.0826568 2.50113672 93.4666568 2.18513672 93.9746568 2.25013672 94.3826568 2.30113672 94.7676568 2.54313672 94.7386568 2.98513672 94.7136568 3.36613672 95.0546568 3.51513672 95.3446568 3.44313672 95.4536568 4.17813672 95.4396568 4.92113672 95.0646568 5.54213672M106.466657 6.38013672C105.487657 6.45013672 104.719657 5.70713672 104.420657 4.81913672 104.042657 3.69713672 104.355657 2.44913672 104.607657 1.33713672 104.711657.88313672 104.119657.45113672 103.772657.85113672 103.148657 1.57013672 102.381657 2.50113672 101.388657 2.66013672 101.431657 1.96613672 101.414657 1.26813672 101.324657.57713672 101.293657.33313672 101.186657.18513672 100.958657.0951367198 100.163657-.21786328 99.3596568.28213672 99.0026568 1.00113672 98.6136568 1.78313672 98.8496568 2.66013672 99.5336568 3.18513672 99.7796568 3.37413672 100.027657 3.50213672 100.277657 3.58613672 100.246657 3.77513672 100.218657 3.96313672 100.173657 4.15013672 99.9926568 4.92813672 99.6626568 6.43013672 98.6236568 6.41813672 97.5996568 6.40613672 97.0216568 5.22313672 96.7956568 4.38913672 96.5266568 3.39613672 96.4006568 2.39113672 95.8986568 1.47513672 95.6716568 1.06113672 95.1066568 1.22613672 94.9946568 1.60013672 94.3556568 1.19213672 93.4456568 1.12713672 92.7966568 1.53313672 91.4296568 2.38713672 91.1426568 4.73213672 91.6996568 6.12313672 92.3056568 7.63513672 94.0616568 7.72813672 95.2356568 6.81213672 95.6916568 6.45613672 95.9706568 6.01813672 96.1446568 5.53913672 96.1956568 5.64813672 96.2456568 5.76013672 96.3086568 5.86513672 96.8396568 6.75813672 97.8386568 7.56613672 98.9376568 7.39313672 100.090657 7.20913672 100.640657 6.10013672 100.955657 5.09213672 101.097657 4.63313672 101.195657 4.16413672 101.271657 3.69113672 102.003657 3.60613672 102.709657 3.19813672 103.331657 2.68713672 103.200657 3.65413672 103.212657 4.63513672 103.632657 5.53013672 104.145657 6.62113672 105.222657 7.46913672 106.466657 7.38013672 107.105657 7.33413672 107.110657 6.33413672 106.466657 6.38013672"/>
        <path fill="#EC9C31" d="M51.2170568 40.0450367C51.6440568 39.3790367 52.3480568 38.9100367 53.1580568 39.0740367 53.8650568 39.2170367 54.4840568 39.7810367 54.2970568 40.5490367 54.1730568 41.0590367 53.7880568 41.4830367 53.4530568 41.8700367 53.0540568 42.3320367 52.6490568 42.7910367 52.2470568 43.2510367 51.9130568 43.6330367 51.5790568 44.0150367 51.2450568 44.3970367 50.5300568 43.0780367 50.3860568 41.3460367 51.2170568 40.0450367M62.3650568 45.5360367C61.3030568 45.7660367 59.8670568 46.1190367 58.8970568 45.4250367 58.6860568 45.2740367 58.5020568 45.0530367 58.3690568 44.8070367 58.6060568 44.2080367 58.7120568 43.5560367 58.6000568 42.8750367 58.5370568 42.4880367 58.0110568 42.4140367 57.7640568 42.6540367 57.1580568 43.2450367 57.0660568 44.0660367 57.3010568 44.8130367 56.8500568 45.5900367 56.0370568 46.1900367 55.1820568 46.4180367 53.8980568 46.7600367 52.6740568 46.1800367 51.8370568 45.2360367 52.3970568 44.5960367 52.9570568 43.9550367 53.5180568 43.3150367 54.2760568 42.4450367 55.3590568 41.4680367 55.3400568 40.2140367 55.3090568 38.1500367 52.6200568 37.5270367 51.1990568 38.6060367 49.4850568 39.9060367 49.3280568 42.4840367 50.1080568 44.3380367 50.2310568 44.6310367 50.3870568 44.9100367 50.5600568 45.1820367 50.2910568 45.4890367 50.0220568 45.7970367 49.7530568 46.1040367 49.3310568 46.5870367 50.0350568 47.2970367 50.4600568 46.8110367 50.7000568 46.5360367 50.9410568 46.2620367 51.1810568 45.9860367 52.1150568 46.9990367 53.4050568 47.6570367 54.8340568 47.4950367 56.0330568 47.3590367 57.1210568 46.6970367 57.8280568 45.7690367 57.8700568 45.8180367 57.9070568 45.8740367 57.9520568 45.9210367 59.1570568 47.1790367 61.1190568 46.8270367 62.6310568 46.5000367 63.2600568 46.3650367 62.9940568 45.4000367 62.3650568 45.5360367M4.10575683 7.37413672C4.17475683 8.14313672 4.28975683 8.98213672 4.03075683 9.72813672 3.77775683 10.4591367 3.06275683 10.9301367 2.28375683 10.8221367 1.55075683 10.7231367 1.00175683 10.0221367.986756827 9.29913672.972756827 8.57113672 1.50575683 7.99013672 2.07875683 7.61513672 2.68375683 7.21913672 3.36475683 7.00013672 4.05275683 6.79913672 4.07075683 6.99013672 4.08775683 7.18313672 4.10575683 7.37413672M10.5277568 1.86113672C10.3637568 2.97513672 10.1997568 4.08713672 10.0357568 5.19913672 9.93675683 5.86513672 9.95775683 7.41813672 8.87875683 6.88613672 8.03575683 6.46913672 8.20975683 5.25213672 8.31275683 4.49313672 8.43575683 3.58413672 8.51575683 2.71913672 8.18475683 1.85913672 8.18075683 1.84013672 8.18075683 1.82013672 8.17675683 1.80113672 8.17375683 1.80313672 8.16975683 1.80513672 8.16775683 1.80613672 8.15075683 1.76513672 8.14575683 1.72313672 8.12675683 1.68213672 7.87875683 1.14113672 7.10575683 1.54313672 7.21275683 2.06713672 7.38775683 2.92113672 7.16075683 3.84213672 6.57875683 4.49813672 6.14075683 4.99013672 5.54875683 5.27313672 4.93475683 5.48913672 4.93275683 5.46713672 4.92975683 5.44313672 4.92775683 5.42013672 4.81275683 4.15113672 4.69775683 2.88313672 4.58175683 1.61513672 4.52375683.97813672 3.52375683.97313672 3.58175683 1.61513672 3.70875683 3.00913672 3.83475683 4.40213672 3.96175683 5.79713672 2.49675683 6.22513672.810756827 6.78313672.182756827 8.31813672-.426243173 9.80913672.550756827 11.5921367 2.16475683 11.8071367 2.92675683 11.9081367 3.73075683 11.6641367 4.29375683 11.1351367 4.92775683 10.5391367 5.14975683 9.66613672 5.17875683 8.82413672 5.20675683 8.05613672 5.12675683 7.27613672 5.04175683 6.50313672 5.47275683 6.36413672 5.89575683 6.20613672 6.29275683 5.98213672 6.65975683 5.77513672 6.97975683 5.51813672 7.25075683 5.22213672 7.23475683 5.43513672 7.22875683 5.64513672 7.24975683 5.85213672 7.35175683 6.85713672 7.91675683 7.75813672 8.96275683 7.95813672 10.0187568 8.16013672 10.6927568 7.43913672 10.8527568 6.45313672 11.0857568 5.01613672 11.2797568 3.56913672 11.4917568 2.12713672 11.5847568 1.49813672 10.6217568 1.22713672 10.5277568 1.86113672"/>
        <path fill="#0AC2F0" d="M11.9621568,45.3888367 C11.7351568,44.2738367 11.6351568,43.1418367 11.6651568,42.0038367 C12.4751568,41.4998367 13.0011568,40.6108367 13.3101568,39.6378367 C14.4271568,41.5668367 13.7381568,44.1388367 11.9621568,45.3888367 M12.0331568,39.1358367 C12.1211568,38.8438367 12.3181568,38.3348367 12.6271568,38.1018367 C12.5371568,38.9578367 12.2921568,39.9028367 11.7651568,40.5758367 C11.8201568,40.0868367 11.8951568,39.5998367 12.0331568,39.1358367 M14.1681568,39.1208367 C14.0041568,38.8418367 13.7051568,38.8298367 13.4881568,38.9588367 C13.5961568,38.4608367 13.6541568,37.9608367 13.6691568,37.4978367 C13.6761568,37.3008367 13.5111568,37.0468367 13.3031568,37.0158367 C11.5461568,36.7538367 11.0191568,38.7818367 10.8221568,40.1208367 C10.7631568,40.5298367 10.7331568,40.9378367 10.7051568,41.3458367 C9.90915683,41.6018367 8.97615683,41.2658367 8.51015683,40.5748367 C8.31515683,40.2838367 8.22115683,39.9518367 8.21115683,39.6178367 C8.44715683,39.0468367 8.69715683,38.4828367 8.92215683,37.9068367 C9.10915683,37.4278367 8.41415683,37.0798367 8.08615683,37.4198367 C7.55115683,37.9748367 7.29315683,38.6498367 7.25815683,39.3228367 C6.66515683,40.7578367 6.03515683,42.1788367 5.36915683,43.5818367 C5.17715683,41.6268367 5.25615683,39.6528367 5.62515683,37.7168367 C5.71715683,37.0948367 4.78215683,36.8088367 4.66015683,37.4518367 C4.41315683,39.1228367 3.38515683,40.5118367 1.85215683,41.2258367 C1.26815683,41.4958367 1.77515683,42.3598367 2.35615683,42.0888367 C3.11915683,41.7338367 3.78115683,41.2048367 4.31615683,40.5708367 C4.24115683,42.2018367 4.32715683,43.8368367 4.61915683,45.4608367 C4.69315683,45.8768367 5.34815683,45.9508367 5.53215683,45.5798367 C6.28315683,44.0688367 6.97915683,42.5298367 7.64615683,40.9808367 C8.13415683,41.8478367 9.04515683,42.4708367 10.2341568,42.4328367 C10.3871568,42.4278367 10.5331568,42.4118367 10.6741568,42.3878367 C10.6721568,43.7088367 10.8151568,45.0278367 11.1371568,46.3208367 C11.2211568,46.6568367 11.5901568,46.7518367 11.8711568,46.6188367 C14.5831568,45.3438367 15.6701568,41.6938367 14.1681568,39.1208367"/>
      </g>
      <polygon fill="#FEFEFE" points="127.538 31.628 163.575 31.628 163.575 .497 127.538 .497"/>
      <path stroke="#FEFEFE" stroke-dasharray="3" d="M127.538,68.858 L163.575,68.858 L163.575,37.727 L127.538,37.727 L127.538,68.858 Z"/>
      <path fill="#20B57C" d="M131.7608,26.2357 C135.5878,26.6727 139.4428,26.7617 143.2848,26.4977 C143.9238,26.4537 143.9288,25.4527 143.2848,25.4977 C139.4428,25.7617 135.5878,25.6737 131.7608,25.2357 C131.1228,25.1627 131.1278,26.1637 131.7608,26.2357"/>
    </g>
    <text fill="#20B57C" font-family="ProximaNova-Semibold, Proxima Nova" font-size="7.309" font-weight="500" letter-spacing=".021">
      <tspan x="657.994" y="296.15">3h</tspan>
    </text>
    <g transform="translate(506 291)">
      <path fill="#EC9C31" d="M1.2462,1.183 C5.0732,1.62 8.9272,1.709 12.7691973,1.445 C13.4082,1.401 13.4132,0.4 12.7691973,0.445 C8.9272,0.709 5.0732,0.621 1.2462,0.183 C0.6072,0.11 0.6132,1.111 1.2462,1.183"/>
      <path fill="#0AC2F0" d="M2.8389,38.2093 C6.6659,38.6463 10.5199,38.7353 14.3618973,38.4703 C15.0009,38.4263 15.0059,37.4263 14.3618973,37.4703 C10.5199,37.7353 6.6659,37.6473 2.8389,37.2093 C2.1999,37.1363 2.2059,38.1363 2.8389,38.2093"/>
      <polygon fill="#FEFEFE" points="42.648 83.661 78.685 83.661 78.685 52.53 42.648 52.53"/>
      <polygon fill="#FEFEFE" points="85.536 83.661 121.573 83.661 121.573 52.53 85.536 52.53"/>
    </g>
    <text fill="#EC9C31" font-family="ProximaNova-Semibold, Proxima Nova" font-size="7.309" font-weight="500" letter-spacing=".021">
      <tspan x="572.561" y="369.894">1h</tspan>
    </text>
    <g transform="translate(0 222)">
      <path stroke="#FEFEFE" stroke-dasharray="3" d="M634.538,152.661 L670.575,152.661 L670.575,121.53 L634.538,121.53 L634.538,152.661 Z"/>
      <polygon fill="#BBD7DF" points="561.418 84.77 561.418 81.361 572.268 81.361 572.268 84.772"/>
      <path fill="#5BBF91" d="M318.3165,141.8607 C319.4175,91.9717 298.7235,50.6397 279.8295,47.8027 C279.3885,47.7877 260.7565,46.5367 260.7565,46.5367 L259.3185,46.4917 L260.3075,125.4767 L305.4605,145.4907 L318.3165,141.8607 Z"/>
      <path fill="#20B57C" d="M305.336,145.3958 C304.866,98.4438 284.526,47.0808 259.347,46.5148 L260.308,125.7548 L305.336,145.3958 Z"/>
      <path fill="#DF7426" d="M292.2608,141.9437 C288.5748,145.2447 281.4778,143.3317 276.4068,137.6717 C271.3378,132.0097 269.6818,123.1967 273.3658,119.8957 C277.0518,116.5947 285.6928,119.0917 290.7628,124.7527 C295.8328,130.4127 295.9458,138.6427 292.2608,141.9437"/>
      <path fill="#EEAC53" d="M307.0118,146.8167 C304.3358,190.0477 294.6758,225.8277 269.0278,235.8437 C264.7688,237.5067 246.0318,239.8307 242.0308,239.8707 C231.0898,239.9787 223.2488,234.0307 217.7228,223.8207 C213.2868,215.6227 241.1018,146.7647 241.1018,146.7647 L251.8338,143.2027 L307.0118,146.8167 Z"/>
      <path fill="#EC9C31" d="M241.1016,146.765 L293.5316,150.536 C293.9286,190.287 277.8716,223.853 257.4576,235.521 C252.6076,238.294 247.4246,239.816 242.0306,239.87 C224.9626,240.04 209.7106,225.468 200.2596,202.97 L241.1016,146.765 Z"/>
      <path fill="#DCE7EF" d="M52.0552,0.2484 C83.4132,11.4474 160.6882,101.0424 162.9282,135.7604 C128.2102,141.3594 53.9342,14.8674 52.0552,0.2484"/>
      <path stroke="#EDF2F7" d="M74.9131,27.8294 C94.2401,53.0384 157.6831,132.4464 157.6831,132.4464"/>
      <path fill="#DCE7EF" d="M0.9732,181.1654 C25.9232,159.1134 141.6952,134.7104 173.1782,149.5144 C161.3162,182.6204 14.6822,186.5784 0.9732,181.1654"/>
      <path stroke="#EDF2F7" d="M36.1631,174.4671 C67.5711,169.7171 167.7441,152.5071 167.7441,152.5071"/>
      <path fill="#DCE7EF" d="M39.4844,84.4349 C50.7654,85.2409 144.2374,119.0839 158.3384,141.6459 C139.8054,157.7619 39.4844,84.4349 39.4844,84.4349"/>
      <path stroke="#EDF2F7" d="M76.148,103.3714 C99.516,113.0404 147.461,139.2284 147.461,139.2284"/>
      <path fill="#0B1528" d="M431.3174,38.3206 C447.0414,20.9706 478.4874,29.6456 477.9444,50.7906 C477.4024,71.9356 478.4874,66.5136 485.5354,68.1396 C492.5844,69.7666 496.3794,70.8506 495.2944,80.6106 C494.2104,90.3696 482.2824,97.9606 491.4994,101.7556 C500.7154,105.5496 516.4394,113.1406 499.6314,131.0326 C482.8244,148.9246 425.8964,140.2496 410.7144,120.7306 C395.5344,101.2136 387.2594,84.9316 405.6934,80.5946 C424.1274,76.2576 418.1634,78.9676 413.2844,68.1246 C408.4044,57.2816 408.0044,44.2846 416.6784,36.6936 C425.3534,29.1036 431.3174,38.3206 431.3174,38.3206"/>
      <path fill="#3F0525" d="M434.8428,111.1156 C424.6198,109.0886 416.2808,107.5616 409.6768,128.4876 C407.5298,135.2946 408.2238,141.2056 405.4108,144.7856 C377.9168,179.7716 417.2448,206.1396 410.6518,246.6666 C404.3178,285.5976 489.5738,281.8026 489.5738,281.8026 C489.5738,281.8026 479.8028,244.1826 482.2388,228.1476 C486.0758,202.8946 500.9668,192.9686 495.1828,153.6146 C492.4938,135.3186 490.1938,123.8516 477.1848,115.5536"/>
      <path fill="#DF7426" d="M482.5997,126.5199 C471.5607,135.7179 458.0827,149.0859 468.9437,163.5729 C464.5667,180.9619 441.7607,210.9399 448.7197,221.2219 C457.6157,234.3649 465.5357,240.9609 473.8797,223.5629 C478.9857,212.9199 491.0337,189.3399 494.4767,177.5699 C501.5937,153.2469 497.0347,144.4409 487.3937,123.0259 C483.1017,126.9729 493.6387,117.3209 482.5997,126.5199"/>
      <path fill="#CB6128" d="M449.5567,98.1087 C449.5567,98.1087 441.5297,101.7907 448.6627,112.2707 C438.2927,117.0367 424.6617,145.2797 432.9667,148.1487 C441.2717,151.0177 473.0867,115.6727 473.0867,115.6727 L470.8067,98.2557"/>
      <path fill="#DF7426" d="M426.2374,98.8871 C429.1354,108.6031 430.9684,114.7701 438.8434,117.9381 C441.3014,118.9271 444.0064,119.7661 447.0384,120.5481 C449.9864,120.3001 450.8984,120.5091 454.0624,118.6841 C458.1334,115.3811 468.0004,105.5991 469.8824,101.0721 C474.8644,89.0821 482.9254,82.2201 476.0814,70.7161 C466.7764,55.0801 451.3714,47.2681 436.8654,55.6371 C422.3594,64.0071 421.0354,81.4511 426.2374,98.8871"/>
      <path fill="#0B1528" d="M473.087,99.5335 C472.275,63.2155 441.541,69.2325 440.293,63.8265 C426.839,64.6675 422.901,79.8335 422.901,99.5335 C422.901,99.5335 416.129,67.2125 420.011,56.3515 C422.176,50.2965 442.715,45.0005 442.715,45.0005 L460.373,48.3635 C460.373,48.3635 475.483,66.7245 480.37,71.1305 C485.258,75.5345 473.087,99.5335 473.087,99.5335"/>
      <path stroke="#0C1629" stroke-linecap="round" stroke-width=".5" d="M479.3672,62.8255 C479.4522,65.2305 481.2402,65.8435 482.1252,65.9455 C488.3172,66.6595 498.2592,66.8615 498.6872,79.0555"/>
      <path fill="#0B1528" d="M439.9942,89.5746 C439.6942,94.1266 439.2382,96.8796 438.7652,97.5156 C435.6922,101.6596 438.4792,103.2456 441.9382,101.0836"/>
      <path fill="#DF7426" d="M450.4258,235.4164 C444.0218,233.4214 397.3398,211.6714 390.7578,207.2594 C355.9318,183.9114 371.1428,188.7524 387.3908,193.3434 C407.4278,199.0034 430.3678,205.1484 447.1858,210.3954 C464.0028,215.6424 471.1368,226.1464 469.9108,229.7674 C467.1958,237.7934 459.4018,238.2134 450.4258,235.4164"/>
      <path stroke="#0C1629" stroke-linecap="round" stroke-width=".5" d="M405.377,117.8763 C394.728,104.0113 391.713,92.1563 392.517,87.5343 C393.32,82.9133 400.555,79.0953 405.578,77.4873"/>
      <path fill="#F58A1F" d="M377.2422,190.6615 C382.0612,191.5805 385.6622,200.2925 384.6642,203.1335 C382.9662,202.3595 379.8822,201.1095 379.8822,201.1095 C379.8822,201.1095 368.2172,205.5165 361.5452,201.1945 C354.8732,196.8725 360.2852,190.8345 362.6082,185.8985 C362.7502,186.3175 363.8132,185.7515 363.8152,186.2255 C363.8502,192.6995 366.0592,192.0575 377.2422,190.6615"/>
      <path fill="#FEFEFE" d="M353.0372,63.0423 L307.4202,63.0423 C303.8862,63.0423 301.0212,60.1773 301.0212,56.6443 L301.0212,30.4353 C301.0212,26.9003 303.8862,24.0363 307.4202,24.0363 L353.0372,24.0363 C356.5712,24.0363 359.4352,26.9003 359.4352,30.4353 L359.4352,56.6443 C359.4352,60.1773 356.5712,63.0423 353.0372,63.0423"/>
      <path fill="#064975" d="M309.2784 49.0853C319.7004 48.9903 330.1214 48.8963 340.5424 48.8013 343.4894 48.7733 346.4374 48.7473 349.3844 48.7203 350.0284 48.7143 350.0304 47.7143 349.3844 47.7203 338.9644 47.8143 328.5434 47.9103 318.1224 48.0053 315.1744 48.0313 312.2264 48.0593 309.2784 48.0853 308.6354 48.0913 308.6334 49.0913 309.2784 49.0853M308.46 56.0042C317.976 56.3642 327.499 56.5022 337.022 56.4112 339.754 56.3852 342.486 56.3402 345.218 56.2772 345.86 56.2632 345.862 55.2632 345.218 55.2772 335.698 55.4962 326.173 55.4922 316.653 55.2602 313.922 55.1932 311.19 55.1082 308.46 55.0042 307.816 54.9802 307.817 55.9802 308.46 56.0042M326.5489 41.3138C333.6689 40.9488 340.8039 40.9158 347.9279 41.2158 348.5709 41.2438 348.5699 40.2438 347.9279 40.2158 340.8039 39.9158 333.6689 39.9488 326.5489 40.3138 325.9079 40.3468 325.9039 41.3468 326.5489 41.3138M327.8497 33.7679L347.1447 33.3199C347.7867 33.3049 347.7897 32.3049 347.1447 32.3199L327.8497 32.7679C327.2067 32.7829 327.2047 33.7829 327.8497 33.7679M309.5001 36.6732C309.5001 39.7112 311.9631 42.1732 315.0001 42.1732 318.0371 42.1732 320.5001 39.7112 320.5001 36.6732 320.5001 33.6362 318.0371 31.1732 315.0001 31.1732 311.9621 31.1732 309.5001 33.6362 309.5001 36.6732M308.0001 36.6732C308.0001 32.8072 311.1341 29.6732 315.0001 29.6732 318.8661 29.6732 322.0001 32.8072 322.0001 36.6732 322.0001 40.5392 318.8661 43.6732 315.0001 43.6732 311.1341 43.6732 308.0001 40.5392 308.0001 36.6732"/>
    </g>
    <g transform="translate(308 251)">
      <mask id="tempo-hero-b" fill="#fff">
        <use xlink:href="#tempo-hero-a"/>
      </mask>
      <polygon fill="#064975" points="-595 435 685 435 685 -285 -595 -285" mask="url(#tempo-hero-b)"/>
      <polygon fill="#064975" points="-5 19.673 19 19.673 19 -4.327 -5 -4.327" mask="url(#tempo-hero-b)"/>
    </g>
    <path fill="#064975" d="M317.6299,259.4642 C317.9789,259.6882 318.0809,260.1512 317.8579,260.5002 C317.6349,260.8492 317.1709,260.9512 316.8209,260.7282 L314.5959,259.3052 C314.3809,259.1672 314.2499,258.9292 314.2499,258.6732 L314.2499,255.1732 C314.2499,254.7592 314.5859,254.4232 314.9999,254.4232 C315.4139,254.4232 315.7499,254.7592 315.7499,255.1732 L315.7499,258.2632 L317.6299,259.4642 Z"/>
    <g transform="translate(314 254)">
      <mask id="tempo-hero-d" fill="#fff">
        <use xlink:href="#tempo-hero-c"/>
      </mask>
      <polygon fill="#064975" points="-601 432 679 432 679 -288 -601 -288" mask="url(#tempo-hero-d)"/>
      <polygon fill="#064975" points="-4.75 11.846 8.976 11.846 8.976 -4.577 -4.75 -4.577" mask="url(#tempo-hero-d)"/>
    </g>
    <g transform="translate(364)">
      <path fill="#DCE7EF" d="M30.294,135.9144 C48.885,196.4304 102.084,241.4724 169.82,241.787807 C237.557,242.1014 316.927,189.4934 317.221902,126.1874 C317.515,62.8824 245.87,71.0624 178.134,70.7484 C110.398,70.4344 -14.352,-9.4106 30.294,135.9144"/>
      <path fill="#DCE7EF" d="M228.0645,164.9349 L251.2345,168.0279 C251.2345,168.0279 251.2345,194.2299 249.7375,193.2939 C247.6085,191.9629 225.8185,190.5759 226.7545,188.5169 C227.6905,186.4569 228.0645,164.9349 228.0645,164.9349"/>
      <path fill="#0B1528" d="M232.5919 174.1566C237.3279 175.1506 241.8279 176.9506 246.6819 177.3726 247.3219 177.4276 247.3199 176.4276 246.6819 176.3726 241.9239 175.9586 237.5009 174.1666 232.8589 173.1916 232.2309 173.0596 231.9619 174.0236 232.5919 174.1566M232.2061 178.6126C234.2691 179.4156 236.5021 179.8846 238.6461 180.4096 241.2381 181.0436 243.8561 181.6756 246.5071 182.0146 247.1431 182.0956 247.1371 181.0956 246.5071 181.0146 243.8951 180.6796 241.3081 180.0336 238.7541 179.4056 236.6621 178.8916 234.4841 178.4316 232.4721 177.6476 231.8721 177.4146 231.6121 178.3816 232.2061 178.6126M232.3751 183.3714C236.6091 183.7784 240.6581 185.1834 244.8961 185.5924 245.5351 185.6534 245.5311 184.6524 244.8961 184.5924 240.6601 184.1834 236.6121 182.7794 232.3751 182.3714 231.7341 182.3094 231.7391 183.3104 232.3751 183.3714"/>
      <path fill="#724D9E" d="M304.0206,108.1663 C302.6936,118.5463 296.1666,125.7043 288.3276,125.7043 C279.5286,125.7043 272.3956,115.7773 272.3956,103.5323 C272.3956,103.2083 272.4036,102.8873 272.4136,102.5653 L257.7386,100.3023 C257.6896,101.2923 257.6556,102.2883 257.6556,103.2963 C257.6556,126.8943 271.4016,146.0233 288.3576,146.0233 C303.7476,146.0233 316.5036,130.9903 318.7276,110.4353 L304.0206,108.1663 Z"/>
      <path fill="#EE9C2F" d="M272.6758,99.9261 C273.3058,89.3301 278.2168,82.8291 285.7818,81.7161 L283.5788,61.1581 C269.3568,63.6871 259.2548,77.7691 258.0028,97.7971 C258.7248,97.9281 271.3228,99.7721 272.6758,99.9261"/>
      <path fill="#064975" d="M288.3272,81.3607 C297.1262,81.3607 304.2592,91.2877 304.2592,103.5327 C304.2592,104.4977 304.2612,104.7257 304.1752,105.6587 C308.3952,106.1847 317.5582,107.7557 318.8032,107.8857 C318.9332,106.2947 319.0592,104.9367 319.0592,103.2967 C319.0592,79.6997 305.3132,60.5697 288.3572,60.5697 C287.5652,60.5697 286.7812,60.6197 286.0042,60.7017 C286.6752,66.5497 288.2402,80.7677 288.3272,81.3607"/>
      <path fill="#FEFEFE" d="M54.1036,15.2366 L50.7966,108.0966 C50.6366,112.5946 54.0186,116.5966 58.9576,117.7536 L225.6956,156.7946 C232.4046,158.3646 239.0676,154.1336 239.4916,148.0326 L247.3306,35.3016 C247.6846,30.2116 243.4916,25.7536 237.7456,25.1096 L66.4756,5.9396 C60.0436,5.2196 54.3066,9.5316 54.1036,15.2366"/>
      <polyline stroke="#D0D9E1" points="70.146 98.9 72.967 21.768 231.172 42.112"/>
      <line x1="98.393" x2="93.955" y1="26.032" y2="104.563" stroke="#D0D9E1"/>
      <line x1="124.626" x2="120.187" y1="28.163" y2="106.694" stroke="#D0D9E1"/>
      <line x1="150.859" x2="146.42" y1="32.783" y2="111.314" stroke="#D0D9E1"/>
      <line x1="176.689" x2="172.25" y1="35.626" y2="114.156" stroke="#D0D9E1"/>
      <line x1="71.03" x2="155.776" y1="73.775" y2="86.959" stroke="#D0D9E1"/>
      <line x1="70.606" x2="193.317" y1="47.948" y2="67.143" stroke="#D0D9E1"/>
      <line x1="202.922" x2="198.483" y1="38.824" y2="117.355" stroke="#D0D9E1"/>
      <path fill="#3092D0" d="M76.9542,94.2112 C84.6492,96.6722 89.4902,97.6142 94.2982,97.4972 C99.1052,97.3812 105.5452,91.7532 110.9712,92.1512 C113.6812,92.3502 125.6992,94.0432 134.4082,91.5842 C143.1342,89.1192 149.4972,81.1782 155.9512,81.7072 C178.1792,83.5262 188.8382,62.7302 200.4782,63.1532 C212.1192,63.5772 231.1722,42.1112 231.1722,42.1112 L228.3032,66.5352 L215.1492,89.9812 L128.9382,109.0142 L88.8052,101.3372 L76.0142,96.1752 L76.9542,94.2112 Z"/>
      <path fill="#395FAC" d="M74.7901,107.9984 L218.4421,138.1714 C222.4481,139.1594 226.4461,136.5784 226.5791,132.9164 L228.8091,60.5724 C228.8091,60.5724 227.6591,75.4154 209.2691,73.7284 C196.7181,72.5774 189.7511,82.2104 185.1321,88.9084 C180.5131,95.6074 166.7641,91.9254 158.8841,91.2074 C151.0041,90.4894 140.3201,102.7784 118.3741,96.0164 C105.3081,91.9894 105.6341,102.0564 87.6671,97.4544 C82.6911,96.1804 77.2881,91.8804 73.3891,93.8744 C71.3551,94.9144 70.0941,96.8294 70.1451,98.8994 C70.1761,100.1454 70.1571,101.3314 70.1131,102.3864 C70.0071,104.9824 71.9481,107.2974 74.7901,107.9984"/>
      <path stroke="#F2CF3F" d="M70.2822979,97.6302 C70.2793,95.7562 73.5183,93.7482 73.5183,93.7482 C77.4183,91.7542 82.8213,96.0542 87.7973,97.3282 C105.7633,101.9302 105.4373,91.8632 118.5043,95.8902 C140.4503,102.6522 151.1343,90.3632 159.0133,91.0812 C166.8933,91.7992 180.6423,95.4822 185.2613,88.7822 C189.8813,82.0842 196.8473,72.4512 209.3993,73.6032 C227.7893,75.2892 229.0743,59.9702 229.0743,59.9702"/>
      <line x1="62.962" x2="63.951" y1="39.747" y2="39.892" stroke="#034A75"/>
      <line x1="65.914" x2="233.679" y1="40.179" y2="64.741" stroke="#034A75" stroke-dasharray="1.983 1.983"/>
      <line x1="234.66" x2="235.649" y1="64.885" y2="65.03" stroke="#034A75"/>
      <path fill="#EC9C31" d="M109.126,158.3255 C113.947,157.3695 116.409,150.3775 124.19,157.7195 C129.555,162.7805 134.089,164.8885 137.371,170.4425 C149.984,189.8035 138.384,189.4825 139.519,200.7465 C139.803,203.5635 137.489,236.4935 134.391,237.3415 C113.995,232.7425 94.203,221.0925 87.382,215.7025 C85.572,203.7915 81.238,194.5145 83.967,175.9525 C85.234,167.3225 86.92,160.1485 92.864,158.2845 C108.434,153.4015 109.126,158.3255 109.126,158.3255"/>
      <path fill="#724D9E" d="M122.5176,150.011 L121.9076,156.026 C121.9076,156.026 126.0596,157.192 122.0466,160.446 C119.6786,162.366 111.8226,162.321 106.5486,159.924 C104.0346,158.782 103.9596,156.76 103.9596,156.76 L104.1336,148.575 L122.5176,150.011 Z"/>
      <path fill="#010202" d="M94.9288,136.1859 C95.0328,143.2129 99.8538,150.1799 101.3048,151.5999 C105.1978,156.8999 114.8008,155.7889 117.7108,154.5119 C125.8128,150.9569 131.5608,144.6249 131.4308,135.9489 C131.2548,124.1559 125.1218,114.7889 114.2668,114.803882 C103.4098,114.8209 94.7528,124.3929 94.9288,136.1859"/>
      <path fill="#010202" d="M116.8077,100.7259 C110.7017,99.3459 105.1687,103.4839 104.4747,108.6519 C100.7157,108.4959 97.2697,110.8409 96.3957,114.3819 C95.4027,118.4069 95.7647,121.7649 100.0867,122.7429 C100.0867,122.7429 107.3357,119.6719 112.7737,123.4879 C118.2107,127.3029 118.5157,126.5429 118.5157,126.5429 C118.8177,127.2679 117.7497,135.5039 117.8167,137.4629 C117.8697,139.0489 121.2357,135.4759 121.6577,139.3099 C122.0787,143.1429 118.3247,145.7309 118.5067,146.5399 C119.0907,149.1309 112.7747,155.7519 116.4427,154.8479 C134.3957,153.2939 134.2377,130.5359 132.1497,128.5639 C134.3057,127.7329 135.8597,126.0639 136.3917,123.9059 C137.1747,120.7339 135.5437,117.0739 132.2077,115.7469 C133.5567,110.2829 128.7387,106.7889 124.3757,107.7259 C123.5817,104.6619 120.9887,101.6709 116.8077,100.7259"/>
      <polygon fill="#FEFEFE" points=".05 109.663 35.265 119.153 37.013 76.696 .3 70.203"/>
      <polygon stroke="#DCE7EF" points="17.119 106.253 11.788 104.754 11.788 88.045 17.119 89.543"/>
      <polygon stroke="#DCE7EF" points="10.077 104.274 4.746 102.776 4.746 90.203 10.077 91.701"/>
      <polygon fill="#DCE7EF" points="24.595 108.354 19.263 106.856 19.263 85.54 24.595 87.039"/>
      <polygon stroke="#DCE7EF" points="24.595 108.354 19.263 106.856 19.263 85.54 24.595 87.039"/>
      <polygon stroke="#DCE7EF" points="31.961 110.425 26.63 108.926 26.63 82.533 31.961 84.031"/>
      <line x1="5.104" x2="9.866" y1="92.16" y2="97.076" stroke="#DCE7EF"/>
      <line x1="6.927" x2="9.839" y1="90.638" y2="93.645" stroke="#DCE7EF"/>
      <line x1="4.949" x2="10.018" y1="95.539" y2="100.685" stroke="#DCE7EF"/>
      <line x1="4.796" x2="9.865" y1="98.304" y2="103.45" stroke="#DCE7EF"/>
      <line x1="4.447" x2="7.343" y1="100.496" y2="103.436" stroke="#DCE7EF"/>
      <path stroke="#EDF2F7" d="M21.5909 88.1732C21.5909 89.0702 21.0329 89.7982 20.3459 89.7982 19.6569 89.7982 19.0999 89.0702 19.0999 88.1732 19.0999 87.2762 19.6569 86.5482 20.3459 86.5482 21.0329 86.5482 21.5909 87.2762 21.5909 88.1732zM21.4825 93.2747C21.4825 93.9327 20.9495 94.4657 20.2915 94.4657 19.6325 94.4657 19.0995 93.9327 19.0995 93.2747 19.0995 92.6167 19.6325 92.0827 20.2915 92.0827 20.9495 92.0827 21.4825 92.6167 21.4825 93.2747zM24.4102 96.6224C24.4102 97.2804 23.8762 97.8144 23.2182 97.8144 22.5592 97.8144 22.0262 97.2804 22.0262 96.6224 22.0262 95.9644 22.5592 95.4314 23.2182 95.4314 23.8762 95.4314 24.4102 95.9644 24.4102 96.6224zM21.836 99.8626C21.836 100.5206 21.303 101.0536 20.645 101.0536 19.986 101.0536 19.452 100.5206 19.452 99.8626 19.452 99.2046 19.986 98.6706 20.645 98.6706 21.303 98.6706 21.836 99.2046 21.836 99.8626zM24.8585 102.5062C24.9275 103.1602 24.4545 103.7482 23.7995 103.8182 23.1445 103.8882 22.5575 103.4132 22.4885 102.7592 22.4185 102.1052 22.8915 101.5182 23.5465 101.4472 24.2015 101.3772 24.7885 101.8522 24.8585 102.5062zM21.2618 104.3489C21.3058 105.0059 20.8098 105.5749 20.1528 105.6189 19.4958 105.6619 18.9278 105.1659 18.8828 104.5099 18.8388 103.8529 19.3348 103.2849 19.9918 103.2409 20.6488 103.1959 21.2168 103.6929 21.2618 104.3489zM24.6514 107.1741C24.6954 107.8311 24.1994 108.4001 23.5424 108.4441 22.8854 108.4881 22.3174 107.9911 22.2724 107.3351 22.2284 106.6781 22.7244 106.1101 23.3814 106.0661 24.0384 106.0221 24.6064 106.5181 24.6514 107.1741zM25.3839 91.5032C25.3839 92.2972 24.8599 92.9402 24.2129 92.9402 23.5679 92.9402 23.0429 92.2972 23.0429 91.5032 23.0429 90.7092 23.5679 90.0662 24.2129 90.0662 24.8599 90.0662 25.3839 90.7092 25.3839 91.5032z"/>
      <path fill="#F2CF3F" d="M185.628 89.5901C186.8 92.0721 185.736 95.0341 183.253 96.2061 180.771 97.3771 177.809 96.3141 176.638 93.8311 175.466 91.3481 176.529 88.3861 179.013 87.2151 181.495 86.0441 184.457 87.1071 185.628 89.5901M91.1456 97.9183C91.1456 100.6633 88.6186 102.8893 85.4996 102.8893 82.3816 102.8893 79.8546 100.6633 79.8546 97.9183 79.8546 95.1733 82.3816 92.9473 85.4996 92.9473 88.6186 92.9473 91.1456 95.1733 91.1456 97.9183"/>
      <path stroke="#F2CF3F" stroke-dasharray="3" d="M86.6006 96.0989C85.1086 83.4059 88.5886 27.3559 88.5886 27.3559M177.753 149.9935C176.262 137.3015 180.531 95.5695 180.531 95.5695"/>
      <path fill="#D0D9E1" d="M73.8741,24.8929 C77.9421,27.3169 83.6061,29.2349 90.7241,29.7469 C97.8411,30.2579 104.9581,32.6879 104.9581,32.6879 L105.8291,12.3549 L73.8741,24.8929 Z"/>
      <path fill="#EE9C2F" d="M78.6876,0.5775 L107.6246,4.5015 C107.6246,4.5015 104.2696,31.4505 102.5806,30.4995 C100.1756,29.1475 72.7886,26.9425 73.8746,24.8925 C74.9596,22.8445 78.6876,0.5775 78.6876,0.5775"/>
      <path fill="#FEFEFE" d="M85.1573,14.4417 C86.6013,14.1007 87.9963,13.5197 89.2213,12.6747 C90.2093,11.9937 91.2933,11.0967 91.5463,9.8567 C91.7783,8.7227 91.0063,7.7697 89.8933,7.6017 C88.6853,7.4197 87.5783,8.0347 86.9063,9.0137 C86.0923,10.2027 85.7653,11.8187 85.4833,13.2047 C85.1623,14.7817 85.0013,16.3937 85.0143,18.0037 C85.0243,19.1477 84.9933,20.5757 85.9503,21.3947 C86.8913,22.2017 88.0613,21.5787 88.5353,20.5907 C89.7243,18.1157 88.4293,15.1987 86.1643,13.8807 C86.1243,14.1857 86.0853,14.4907 86.0453,14.7957 C87.8053,14.4057 89.4443,15.8117 91.2503,15.3297 C92.8033,14.9157 93.7563,13.4917 94.4863,12.1637 C94.7973,11.5987 93.9523,11.1047 93.6233,11.6587 C93.0563,12.6117 92.4153,13.8167 92.9623,14.9217 C93.4063,15.8207 94.4253,16.3377 95.3993,16.0567 C96.0163,15.8787 95.7543,14.9137 95.1333,15.0917 C94.5163,15.2697 93.8783,14.8227 93.7723,14.1957 C93.6513,13.4777 94.1373,12.7507 94.4863,12.1637 C94.1983,11.9957 93.9113,11.8277 93.6233,11.6587 C92.9303,12.9177 91.9933,14.4197 90.3823,14.4467 C88.7903,14.4737 87.4063,13.4707 85.7793,13.8307 C85.3513,13.9247 85.3013,14.5357 85.6593,14.7447 C87.1733,15.6257 88.1973,17.3237 87.9513,19.1077 C87.8723,19.6857 87.3043,21.4077 86.5063,20.5467 C85.8973,19.8927 86.0173,18.6957 86.0133,17.8857 C86.0063,15.5077 86.3843,13.1297 87.1383,10.8747 C87.4243,10.0247 87.8453,9.0597 88.7423,8.7097 C89.5383,8.3977 90.8433,8.6307 90.5443,9.7517 C90.2573,10.8277 89.0983,11.5977 88.2073,12.1417 C87.1783,12.7697 86.0613,13.2017 84.8903,13.4777 C84.2643,13.6257 84.5303,14.5897 85.1573,14.4417"/>
      <path stroke="#274F5C" d="M166.0977,147.803 L214.2157,159.299 C216.7877,159.913 218.6057,162.323 218.4617,164.928 L216.0297,209.145 C215.8527,212.34 212.8507,214.467 209.7157,213.618 L162.4477,200.814 C159.9847,200.146 158.2607,197.832 158.3537,195.318 L159.9377,152.409 C160.0547,149.236 162.9697,147.056 166.0977,147.803 Z"/>
      <line x1="160.08" x2="218.166" y1="154.298" y2="168.416" stroke="#274F5C"/>
      <path stroke="#274F5C" d="M166.5538 151.6907C166.5538 152.2727 166.0828 152.7187 165.5018 152.6887 164.9208 152.6577 164.4498 152.1627 164.4498 151.5817 164.4498 150.9997 164.9208 150.5527 165.5018 150.5837 166.0828 150.6147 166.5538 151.1097 166.5538 151.6907zM169.8448 152.6038C169.8448 153.1848 169.3728 153.6308 168.7918 153.6008 168.2108 153.5708 167.7408 153.0748 167.7408 152.4938 167.7408 151.9128 168.2108 151.4658 168.7918 151.4968 169.3728 151.5268 169.8448 152.0228 169.8448 152.6038zM173.1085 153.4564C173.1085 154.0374 172.6365 154.4844 172.0555 154.4534 171.4745 154.4234 171.0045 153.9284 171.0045 153.3464 171.0045 152.7654 171.4745 152.3184 172.0555 152.3494 172.6365 152.3804 173.1085 152.8754 173.1085 153.4564z"/>
      <line x1="163.673" x2="184.179" y1="163.536" y2="168.845" stroke="#274F5C"/>
      <line x1="163.897" x2="211.371" y1="174.246" y2="186.095" stroke="#274F5C"/>
      <line x1="163.897" x2="211.371" y1="180.264" y2="192.114" stroke="#274F5C"/>
      <line x1="163.897" x2="211.371" y1="186.951" y2="198.8" stroke="#274F5C"/>
      <path fill="#724D9E" d="M170.3731,196.2503 C171.0841,199.1993 174.3691,200.3933 177.7131,198.9153 C181.0571,197.4373 183.3131,193.0653 181.4541,190.6693 C180.4801,189.4133 178.9771,188.8273 178.3971,188.9783 C177.9571,188.4343 180.0471,187.1183 181.2301,186.0953 C182.3831,185.0983 181.9761,183.5673 180.6161,184.1693 C177.2721,185.6463 169.6631,193.3013 170.3731,196.2503"/>
      <path fill="#724D9E" d="M171.1553,193.9955 C171.3243,192.8535 171.2513,189.8625 172.3783,187.8415 C173.5063,185.8195 174.8883,186.9985 174.6503,187.9985 C174.4133,188.9985 174.0333,189.8515 174.9823,189.4505"/>
      <path fill="#DF7426" d="M122.8067,184.7611 C123.8967,198.5671 129.1577,209.9241 132.2517,221.0921 C135.3477,232.2601 138.0267,221.5601 138.0267,221.5601 C138.0267,221.5601 139.5537,209.3801 138.7917,205.4701 C138.0307,201.5601 122.8067,184.7611 122.8067,184.7611"/>
      <path fill="#5F449A" d="M132.6895,136.8245 C132.6895,136.8245 134.5705,141.7235 134.4335,142.4265 C134.2975,143.1285 130.8385,143.4275 130.8385,143.4275"/>
      <path fill="#EC9C31" d="M123.959,170.8441 C124.627,169.2561 131.535,163.5031 132.12,164.1841 C134.177,166.5771 140.041,171.2241 140.608,177.4951 C141.571,188.1341 147.33,196.6321 151.145,198.5671 C154.855,200.4491 163.511,195.9871 170.036,194.3791 C174.175,193.3591 176.668,199.0871 176.063,200.1581 C170.712,209.6301 151.327,222.6771 143.878,218.5491 C132.61,212.3051 121.734,196.8931 122.147,185.4871 C122.42,177.9421 121.225,177.3441 123.959,170.8441"/>
      <path fill="#724D9E" d="M132.4913,128.4681 C132.4913,128.4681 124.5793,132.0771 123.1663,139.3461 C123.1663,139.3461 118.2563,136.5761 118.0923,141.0151 C117.9283,145.4531 118.5893,154.2421 119.3963,154.4001 C120.2043,154.5571 128.2463,151.5701 131.1273,144.3861 C134.9223,134.9251 132.4913,128.4681 132.4913,128.4681"/>
      <polygon fill="#EE9C2F" points="23.023 74.188 12.993 72.414 12.993 75.519 23.023 77.123"/>
      <polygon fill="#DF7426" points="12.993 72.413 12.993 69.652 23.023 71.021 23.023 74.187"/>
      <path stroke="#DF7426" d="M126.3155,159.6224 C125.9615,160.2514 125.4875,160.9314 124.8705,161.6644 C121.6835,165.4484 111.1175,165.3594 104.0245,160.6374 C102.2975,159.4874 101.1175,157.6844 100.6785,156.3924"/>
    </g>
  </g>
</svg>
