<svg xmlns="http://www.w3.org/2000/svg" xmlns:xlink="http://www.w3.org/1999/xlink" width="503" height="380" viewBox="0 0 503 380">
  <defs>
    <polygon id="cost-tracker-a" points=".338 .607 52.395 .607 52.395 75.124 .338 75.124"/>
    <polygon id="cost-tracker-c" points=".213 .128 53.414 .128 53.414 47.289 .213 47.289"/>
  </defs>
  <g fill="none" fill-rule="evenodd" transform="translate(0 -1)">
    <path fill="#F7D9B2" d="M47.6299,214.1372 C76.9069,309.4402 160.6899,380.3742 267.3649,380.871416 C374.0399,381.3652 499.0359,298.5172 499.50032,198.8192 C499.9619,99.1212 387.1329,112.0042 280.4569,111.5082 C173.7819,111.0132 -22.6811,-14.7298 47.6299,214.1372"/>
    <path fill="#DCE7EF" d="M359.0909,259.8393 L395.5809,264.7103 C395.5809,264.7103 395.5809,305.9753 393.2229,304.5013 C389.8689,302.4053 355.5539,300.2203 357.0279,296.9783 C358.5019,293.7353 359.0909,259.8393 359.0909,259.8393"/>
    <path fill="#0B1528" d="M366.2979 274.0854C370.0279 274.8644 373.6599 275.9844 377.3239 277.0184 380.9629 278.0424 384.6399 278.8164 388.4099 279.1404 389.0509 279.1944 389.0479 278.1944 388.4099 278.1404 384.6629 277.8184 381.0159 277.0234 377.4029 276.0004 373.8029 274.9814 370.2309 273.8874 366.5639 273.1204 365.9359 272.9894 365.6669 273.9534 366.2979 274.0854M365.6895 281.103C367.9985 282.007 370.4745 282.569 372.8705 283.188 376.3425 284.085 379.8355 284.918 383.3525 285.629 384.9375 285.95 386.5295 286.247 388.1335 286.451 388.7705 286.532 388.7645 285.531 388.1335 285.451 385.0045 285.052 381.9055 284.332 378.8355 283.621 375.6015 282.871 372.3765 282.066 369.1825 281.157 368.1005 280.849 367.0035 280.549 365.9555 280.138 365.3555 279.904 365.0955 280.871 365.6895 281.103M365.879 288.5873C372.55 289.2213 378.924 291.4503 385.597 292.0833 386.237 292.1453 386.233 291.1443 385.597 291.0833 378.926 290.4503 372.552 288.2213 365.879 287.5873 365.238 287.5263 365.242 288.5273 365.879 288.5873"/>
    <path fill="#724D9E" d="M478.711,170.437 C476.62,186.785 466.343,198.056 453.996,198.056 C440.14,198.056 428.906,182.423 428.906,163.139 C428.906,162.628 428.919,162.123 428.934,161.618 L405.823,158.052 C405.746,159.612 405.692,161.18 405.692,162.768 C405.692,199.931 427.34,230.058 454.044,230.058 C478.28,230.058 498.371,206.382 501.872,174.01 L478.711,170.437 Z"/>
    <path fill="#EE9C2F" d="M429.3467,157.4604 C430.3397,140.7734 438.0747,130.5344 449.9887,128.7814 L446.5197,96.4064 C424.1197,100.3894 408.2107,122.5654 406.2397,154.1074 C407.3757,154.3134 427.2167,157.2164 429.3467,157.4604"/>
    <g transform="translate(450 94.872)">
      <mask id="cost-tracker-b" fill="#fff">
        <use xlink:href="#cost-tracker-a"/>
      </mask>
      <path fill="#064975" d="M3.9962,33.3501 C17.8532,33.3501 29.0862,48.9841 29.0862,68.2671 C29.0862,69.7871 29.0902,70.1471 28.9542,71.6151 C35.6002,72.4451 50.0322,74.9181 51.9902,75.1241 C52.1962,72.6181 52.3952,70.4801 52.3952,67.8961 C52.3952,30.7341 30.7472,0.6071 4.0442,0.6071 C2.7962,0.6071 1.5612,0.6851 0.3382,0.8151 C1.3942,10.0261 3.8592,32.4161 3.9962,33.3501" mask="url(#cost-tracker-b)"/>
    </g>
    <path fill="#FEFEFE" d="M85.1261,24.0864 L79.9191,170.3284 C79.6671,177.4114 84.9931,183.7134 92.7721,185.5344 L355.3601,247.0194 C365.9261,249.4934 376.4181,242.8294 377.0871,233.2214 L389.4321,55.6864 C389.9891,47.6694 383.3861,40.6484 374.3371,39.6354 L104.6101,9.4444 C94.4821,8.3114 85.4451,15.1014 85.1261,24.0864"/>
    <polyline stroke="#D0D9E1" points="110.39 155.843 114.834 34.37 363.985 66.409"/>
    <line x1="154.876" x2="147.885" y1="41.086" y2="164.762" stroke="#D0D9E1"/>
    <line x1="196.19" x2="189.198" y1="44.444" y2="168.12" stroke="#D0D9E1"/>
    <line x1="237.503" x2="230.512" y1="51.719" y2="175.395" stroke="#D0D9E1"/>
    <line x1="278.181" x2="271.19" y1="56.196" y2="179.872" stroke="#D0D9E1"/>
    <line x1="111.784" x2="245.246" y1="116.276" y2="137.038" stroke="#D0D9E1"/>
    <line x1="111.114" x2="304.368" y1="75.601" y2="105.83" stroke="#D0D9E1"/>
    <line x1="319.494" x2="312.503" y1="61.233" y2="184.909" stroke="#D0D9E1"/>
    <path fill="#3092D0" d="M121.1134,148.4594 C133.2314,152.3354 140.8554,153.8184 148.4264,153.6354 C155.9984,153.4524 166.1394,144.5894 174.6834,145.2164 C178.9524,145.5294 197.8804,148.1954 211.5954,144.3214 C225.3364,140.4404 235.3584,127.9354 245.5224,128.7674 C280.5274,131.6334 297.3134,98.8804 315.6464,99.5484 C333.9794,100.2164 363.9844,66.4094 363.9844,66.4094 L359.4664,104.8744 L338.7514,141.7984 L202.9814,171.7724 L139.7754,159.6834 L119.6314,151.5534 L121.1134,148.4594 Z"/>
    <path fill="#395FAC" d="M117.7042,170.1733 L343.9372,217.6913 C350.2462,219.2473 356.5422,215.1823 356.7512,209.4153 L360.2632,95.4843 C360.2632,95.4843 358.4522,118.8593 329.4902,116.2023 C309.7242,114.3903 298.7522,129.5603 291.4772,140.1093 C284.2032,150.6583 262.5512,144.8603 250.1412,143.7293 C237.7312,142.5993 220.9052,161.9523 186.3442,151.3023 C165.7662,144.9603 166.2802,160.8153 137.9842,153.5673 C130.1472,151.5603 121.6392,144.7883 115.4982,147.9303 C112.2962,149.5683 110.3082,152.5833 110.3902,155.8433 C110.4382,157.8063 110.4082,159.6733 110.3402,161.3343 C110.1732,165.4243 113.2282,169.0693 117.7042,170.1733"/>
    <path stroke="#F2CF3F" d="M110.606495,153.8452 C110.6005,150.8932 115.7025,147.7322 115.7025,147.7322 C121.8435,144.5902 130.3525,151.3622 138.1895,153.3682 C166.4845,160.6162 165.9695,144.7622 186.5485,151.1042 C221.1095,161.7542 237.9355,142.4012 250.3455,143.5312 C262.7545,144.6602 284.4085,150.4602 291.6825,139.9102 C298.9575,129.3612 309.9285,114.1912 329.6955,116.0042 C358.6575,118.6602 360.6805,94.5342 360.6805,94.5342"/>
    <line x1="99.078" x2="100.067" y1="62.686" y2="62.832" stroke="#034A75"/>
    <line x1="102.038" x2="369.06" y1="63.12" y2="102.215" stroke="#034A75" stroke-dasharray="1.992 1.992"/>
    <line x1="370.047" x2="371.036" y1="102.359" y2="102.504" stroke="#034A75"/>
    <path fill="#EC9C31" d="M171.7794,249.4321 C179.3724,247.9261 183.2504,236.9131 195.5034,248.4761 C203.9514,256.4481 211.0924,259.7671 216.2604,268.5141 C236.1254,299.0031 217.8564,298.4991 219.6434,316.2391 C220.0904,320.6751 216.4474,372.5361 211.5674,373.8701 C179.4474,366.6271 148.2774,348.2801 137.5354,339.7911 C134.6854,321.0341 127.8604,306.4231 132.1564,277.1911 C134.1534,263.6001 136.8064,252.3031 146.1694,249.3671 C170.6884,241.6761 171.7794,249.4321 171.7794,249.4321"/>
    <path fill="#724D9E" d="M192.8702,236.3364 L191.9072,245.8104 C191.9072,245.8104 198.4472,247.6454 192.1282,252.7704 C188.3972,255.7944 176.0252,255.7234 167.7212,251.9484 C163.7612,250.1494 163.6432,246.9664 163.6432,246.9664 L163.9162,234.0764 L192.8702,236.3364 Z"/>
    <path fill="#010202" d="M149.42,214.5649 C149.586,225.6309 157.176,236.6029 159.461,238.8379 C165.592,247.1859 180.716,245.4359 185.299,243.4239 C198.059,237.8259 207.11,227.8549 206.906,214.1909 C206.629,195.6189 196.971,180.8659 179.874,180.890868 C162.777,180.9169 149.144,195.9929 149.42,214.5649"/>
    <path fill="#010202" d="M183.876,158.7202 C174.259,156.5452 165.548,163.0632 164.454,171.2002 C158.534,170.9552 153.106,174.6502 151.73,180.2272 C150.166,186.5652 150.737,191.8532 157.544,193.3922 C157.544,193.3922 168.96,188.5582 177.523,194.5662 C186.086,200.5742 186.566,199.3782 186.566,199.3782 C187.042,200.5192 185.361,213.4912 185.465,216.5762 C185.549,219.0732 190.85,213.4472 191.515,219.4842 C192.179,225.5212 186.266,229.5962 186.553,230.8702 C187.473,234.9502 177.525,245.3772 183.301,243.9542 C211.575,241.5062 211.326,205.6652 208.037,202.5602 C211.434,201.2512 213.881,198.6222 214.72,195.2242 C215.952,190.2282 213.385,184.4652 208.13,182.3762 C210.254,173.7702 202.666,168.2682 195.795,169.7432 C194.546,164.9182 190.461,160.2082 183.876,158.7202"/>
    <polygon fill="#FEFEFE" points="0 172.795 55.458 187.741 58.211 120.876 .394 110.65"/>
    <polygon stroke="#DCE7EF" points="26.882 167.424 18.486 165.064 18.486 138.748 26.882 141.109"/>
    <polygon stroke="#DCE7EF" points="15.792 164.307 7.396 161.947 7.396 142.146 15.792 144.506"/>
    <polygon fill="#DCE7EF" points="38.653 170.733 30.257 168.374 30.257 134.803 38.653 137.164"/>
    <polygon stroke="#DCE7EF" points="38.653 170.733 30.257 168.374 30.257 134.803 38.653 137.164"/>
    <polygon stroke="#DCE7EF" points="50.255 173.995 41.859 171.635 41.859 130.069 50.255 132.43"/>
    <line x1="7.958" x2="15.457" y1="145.23" y2="152.971" stroke="#DCE7EF"/>
    <line x1="10.829" x2="15.416" y1="142.833" y2="147.567" stroke="#DCE7EF"/>
    <line x1="7.716" x2="15.699" y1="150.552" y2="158.656" stroke="#DCE7EF"/>
    <line x1="7.474" x2="15.457" y1="154.906" y2="163.01" stroke="#DCE7EF"/>
    <line x1="6.924" x2="11.486" y1="158.358" y2="162.989" stroke="#DCE7EF"/>
    <path stroke="#EDF2F7" d="M33.9239 138.9506C33.9239 140.3646 33.0459 141.5106 31.9619 141.5106 30.8779 141.5106 29.9989 140.3646 29.9989 138.9506 29.9989 137.5376 30.8779 136.3906 31.9619 136.3906 33.0459 136.3906 33.9239 137.5376 33.9239 138.9506zM33.753 146.9848C33.753 148.0208 32.913 148.8618 31.876 148.8618 30.84 148.8618 29.999 148.0208 29.999 146.9848 29.999 145.9478 30.84 145.1078 31.876 145.1078 32.913 145.1078 33.753 145.9478 33.753 146.9848zM38.3624 152.2573C38.3624 153.2943 37.5224 154.1343 36.4854 154.1343 35.4494 154.1343 34.6084 153.2943 34.6084 152.2573 34.6084 151.2213 35.4494 150.3803 36.4854 150.3803 37.5224 150.3803 38.3624 151.2213 38.3624 152.2573zM34.3096 157.3598C34.3096 158.3958 33.4696 159.2368 32.4326 159.2368 31.3966 159.2368 30.5556 158.3958 30.5556 157.3598 30.5556 156.3228 31.3966 155.4828 32.4326 155.4828 33.4696 155.4828 34.3096 156.3228 34.3096 157.3598zM39.0684 161.5229C39.1784 162.5539 38.4324 163.4789 37.4014 163.5889 36.3714 163.6989 35.4464 162.9529 35.3364 161.9209 35.2264 160.8909 35.9724 159.9659 37.0034 159.8559 38.0344 159.7469 38.9594 160.4929 39.0684 161.5229zM33.4044 164.4253C33.4744 165.4593 32.6924 166.3553 31.6584 166.4243 30.6244 166.4943 29.7284 165.7123 29.6594 164.6783 29.5894 163.6443 30.3714 162.7493 31.4054 162.6793 32.4394 162.6103 33.3354 163.3913 33.4044 164.4253zM38.7432 168.8754C38.8122 169.9094 38.0312 170.8044 36.9972 170.8744 35.9622 170.9434 35.0672 170.1624 34.9972 169.1284 34.9282 168.0944 35.7102 167.1984 36.7442 167.1294 37.7782 167.0594 38.6732 167.8414 38.7432 168.8754zM39.8965 144.1958C39.8965 145.4448 39.0715 146.4588 38.0535 146.4588 37.0365 146.4588 36.2105 145.4448 36.2105 144.1958 36.2105 142.9458 37.0365 141.9318 38.0535 141.9318 39.0715 141.9318 39.8965 142.9458 39.8965 144.1958z"/>
    <path fill="#F2CF3F" d="M292.2598 141.1821C294.1048 145.0921 292.4298 149.7571 288.5198 151.6011 284.6098 153.4461 279.9448 151.7711 278.0998 147.8611 276.2558 143.9511 277.9308 139.2861 281.8408 137.4421 285.7508 135.5971 290.4148 137.2721 292.2598 141.1821M143.462 154.2983C143.462 158.6213 139.482 162.1263 134.571 162.1263 129.661 162.1263 125.681 158.6213 125.681 154.2983 125.681 149.9753 129.661 146.4703 134.571 146.4703 139.482 146.4703 143.462 149.9753 143.462 154.2983"/>
    <path stroke="#F2CF3F" stroke-dasharray="3" d="M136.3038 151.4331C133.9548 131.4431 139.4358 43.1711 139.4358 43.1711M279.8575 236.31C277.5085 216.32 284.2325 150.598 284.2325 150.598"/>
    <path fill="#D0D9E1" d="M116.2628,39.2934 C122.6688,43.1104 131.5898,46.1314 142.7978,46.9374 C154.0058,47.7424 165.2148,51.5684 165.2148,51.5684 L166.5868,19.5464 L116.2628,39.2934 Z"/>
    <g transform="translate(116 .872)">
      <mask id="cost-tracker-d" fill="#fff">
        <use xlink:href="#cost-tracker-c"/>
      </mask>
      <path fill="#EE9C2F" d="M7.8428,0.1275 L53.4138,6.3075 C53.4138,6.3075 48.1308,48.7475 45.4698,47.2505 C41.6848,45.1215 -1.4472,41.6485 0.2628,38.4215 C1.9728,35.1935 7.8428,0.1275 7.8428,0.1275" mask="url(#cost-tracker-d)"/>
    </g>
    <path fill="#FEFEFE" d="M133.9542,22.5571 C136.0642,22.0671 138.1002,21.2351 139.9182,20.0501 C141.4902,19.0251 143.2202,17.6891 143.7542,15.7981 C144.2392,14.0811 143.1232,12.5731 141.3952,12.3371 C139.5562,12.0871 137.8932,13.0731 136.9252,14.5961 C135.7602,16.4291 135.2642,18.8091 134.8332,20.9061 C134.3432,23.2971 134.0902,25.7431 134.0932,28.1851 C134.0962,29.9131 133.9742,32.1841 135.3662,33.4841 C135.9152,33.9961 136.6572,34.2121 137.3892,34.0141 C138.2642,33.7771 138.8232,33.0131 139.1722,32.2211 C140.8152,28.4831 138.8852,24.1551 135.4732,22.2001 C135.4332,22.5041 135.3922,22.8091 135.3522,23.1131 C136.7952,22.7751 138.2162,23.3051 139.5942,23.6891 C140.8862,24.0481 142.2302,24.3081 143.5552,23.9561 C145.9192,23.3281 147.3692,21.1201 148.4752,19.1011 C148.7852,18.5361 147.9422,18.0421 147.6122,18.5961 C146.7732,20.0051 145.7692,21.8141 146.5732,23.4601 C147.1972,24.7371 148.6972,25.5381 150.0852,25.1001 C150.6962,24.9081 150.4342,23.9421 149.8192,24.1361 C148.8082,24.4541 147.6822,23.7721 147.3682,22.7721 C146.9722,21.5031 147.8562,20.1391 148.4752,19.1011 C148.1872,18.9331 147.9002,18.7641 147.6122,18.5961 C146.5522,20.5311 145.1232,22.8201 142.7172,23.1051 C140.0982,23.4151 137.7432,21.5261 135.0872,22.1491 C134.6652,22.2471 134.6022,22.8541 134.9682,23.0631 C137.4652,24.4941 139.1382,27.3391 138.7092,30.2591 C138.5582,31.2861 137.6822,33.9681 136.1902,32.8751 C134.9512,31.9681 135.1112,29.8651 135.0962,28.5371 C135.0502,24.6091 135.6602,20.6411 136.9482,16.9251 C137.4602,15.4491 138.2752,13.8961 139.8892,13.4361 C141.2592,13.0451 143.2042,13.5911 142.8312,15.3691 C142.4562,17.1591 140.6002,18.4481 139.1542,19.3521 C137.4702,20.4081 135.6222,21.1431 133.6882,21.5931 C133.0622,21.7391 133.3272,22.7031 133.9542,22.5571"/>
    <path stroke="#274F5C" d="M261.502,232.8598 L337.28,250.9638 C341.332,251.9318 344.193,255.7248 343.968,259.8288 L340.136,329.4648 C339.859,334.4968 335.131,337.8458 330.193,336.5088 L255.752,316.3428 C251.874,315.2928 249.159,311.6478 249.305,307.6888 L251.8,240.1148 C251.984,235.1168 256.576,231.6828 261.502,232.8598 Z"/>
    <line x1="252.025" x2="343.503" y1="243.089" y2="265.322" stroke="#274F5C"/>
    <path stroke="#274F5C" d="M262.2208 238.9829C262.2208 239.8979 261.4788 240.6009 260.5638 240.5529 259.6488 240.5049 258.9068 239.7239 258.9068 238.8089 258.9068 237.8939 259.6488 237.1909 260.5638 237.2389 261.4788 237.2869 262.2208 238.0679 262.2208 238.9829zM267.4024 240.4204C267.4024 241.3354 266.6604 242.0384 265.7454 241.9904 264.8304 241.9424 264.0884 241.1614 264.0884 240.2464 264.0884 239.3314 264.8304 238.6284 265.7454 238.6764 266.6604 238.7244 267.4024 239.5044 267.4024 240.4204zM272.5421 241.7631C272.5421 242.6781 271.8001 243.3811 270.8851 243.3331 269.9701 243.2851 269.2281 242.5051 269.2281 241.5891 269.2281 240.6741 269.9701 239.9711 270.8851 240.0191 271.8001 240.0671 272.5421 240.8481 272.5421 241.7631z"/>
    <line x1="257.684" x2="289.977" y1="257.636" y2="265.998" stroke="#274F5C"/>
    <line x1="258.034" x2="332.801" y1="274.503" y2="293.164" stroke="#274F5C"/>
    <line x1="258.034" x2="332.801" y1="283.981" y2="302.642" stroke="#274F5C"/>
    <line x1="258.034" x2="332.801" y1="294.512" y2="313.172" stroke="#274F5C"/>
    <path fill="#724D9E" d="M268.2354,309.1577 C269.3534,313.8027 274.5284,315.6807 279.7944,313.3537 C285.0594,311.0267 288.6144,304.1417 285.6854,300.3677 C284.1514,298.3897 281.7854,297.4667 280.8724,297.7047 C280.1784,296.8477 283.4694,294.7757 285.3334,293.1647 C287.1484,291.5947 286.5074,289.1837 284.3664,290.1307 C279.1004,292.4577 267.1174,304.5127 268.2354,309.1577"/>
    <path fill="#724D9E" d="M269.4669,305.6059 C269.7329,303.8089 269.6169,299.0979 271.3929,295.9149 C273.1679,292.7309 275.3469,294.5859 274.9719,296.1619 C274.5969,297.7369 273.9979,299.0809 275.4939,298.4489"/>
    <path fill="#DF7426" d="M193.3243,291.0639 C195.0403,312.8059 203.3253,330.6909 208.2003,348.2799 C213.0743,365.8689 217.2933,349.0169 217.2933,349.0169 C217.2933,349.0169 219.6993,329.8349 218.4993,323.6769 C217.2993,317.5189 193.3243,291.0639 193.3243,291.0639"/>
    <path fill="#5F449A" d="M208.8878,215.5698 C208.8878,215.5698 211.8508,223.2858 211.6358,224.3908 C211.4208,225.4968 205.9748,225.9678 205.9748,225.9678"/>
    <path fill="#EC9C31" d="M195.1397,269.145 C196.1917,266.646 207.0707,257.585 207.9917,258.657 C211.2307,262.427 220.4657,269.744 221.3597,279.621 C222.8757,296.375 231.9447,309.759 237.9527,312.806 C243.7947,315.769 257.4277,308.742 267.7037,306.21 C274.2227,304.604 278.1487,313.625 277.1967,315.311 C268.7677,330.229 238.2407,350.775 226.5087,344.275 C208.7647,334.442 191.6347,310.169 192.2857,292.206 C192.7157,280.324 190.8317,279.383 195.1397,269.145"/>
    <path fill="#724D9E" d="M208.5762,202.4096 C208.5762,202.4096 196.1152,208.0936 193.8902,219.5416 C193.8902,219.5416 186.1582,215.1796 185.8992,222.1686 C185.6402,229.1586 186.6812,243.0016 187.9542,243.2486 C189.2252,243.4956 201.8912,238.7906 206.4292,227.4776 C212.4042,212.5796 208.5762,202.4096 208.5762,202.4096"/>
    <polygon fill="#EE9C2F" points="36.18 116.925 20.383 114.131 20.383 119.023 36.18 121.547"/>
    <polygon fill="#DF7426" points="20.383 114.131 20.383 109.783 36.18 111.94 36.18 116.925"/>
    <path stroke="#DF7426" d="M198.8506,251.4731 C198.2916,252.4631 197.5456,253.5341 196.5736,254.6891 C191.5556,260.6491 174.9146,260.5091 163.7456,253.0721 C161.0266,251.2601 159.1656,248.4201 158.4746,246.3861"/>
  </g>
</svg>
