<svg height="663" viewBox="0 0 858 663" width="858" xmlns="http://www.w3.org/2000/svg" xmlns:xlink="http://www.w3.org/1999/xlink"><linearGradient id="a"><stop offset="0"/><stop offset="1" stop-color="#fff"/></linearGradient><linearGradient id="b" x1="63.732877%" x2="47.02392%" xlink:href="#a" y1="56.232216%" y2="48.6357%"/><linearGradient id="c" x1="62.419443%" x2="47.297141%" xlink:href="#a" y1="53.824147%" y2="49.160444%"/><linearGradient id="d" x1="64.866038%" x2="46.78221%" xlink:href="#a" y1="58.624946%" y2="48.109693%"/><linearGradient id="e" x1="-338.776555%" x2="338.362974%" xlink:href="#a" y1="45.199512%" y2="53.561466%"/><linearGradient id="f" x1="-362.401134%" x2="353.63681%" xlink:href="#a" y1="44.616198%" y2="53.966454%"/><linearGradient id="g" x1="-753.327932%" x2="708.582716%" xlink:href="#a" y1="28.57964%" y2="67.555286%"/><linearGradient id="h"><stop offset="0" stop-color="#fff"/><stop offset="1" stop-color="#ffc600"/></linearGradient><linearGradient id="i" x1="48.285649%" x2="52.681986%" xlink:href="#h" y1="-39.674872%" y2="170.576576%"/><linearGradient id="j"><stop offset="0" stop-color="#fff"/><stop offset="1" stop-color="#008ddc"/></linearGradient><linearGradient id="k" x1="49.674451%" x2="50.697781%" xlink:href="#j" y1="39.916904%" y2="59.681163%"/><linearGradient id="l" x1="28.667718%" x2="133.169399%" xlink:href="#j" y1="44.147674%" y2="66.685845%"/><linearGradient id="m" x1="67.97711%" x2="-28.795077%" xlink:href="#j" y1="44.940619%" y2="73.446453%"/><linearGradient id="n" x1="48.90821%" x2="53.312113%" xlink:href="#j" y1="-39.752404%" y2="170.86087%"/><linearGradient id="o" x1="48.226023%" x2="52.401896%" xlink:href="#j" y1="-39.438045%" y2="170.327976%"/><linearGradient id="p" x1="51.26461%" x2="45.405445%" xlink:href="#j" y1="128.672302%" y2="-175.763493%"/><linearGradient id="q" x1="41.491528%" x2="74.109282%" xlink:href="#j" y1="9.159294%" y2="187.622244%"/><linearGradient id="r" x1="50.315401%" x2="55.554773%" xlink:href="#j" y1="32.316332%" y2="358.834482%"/><linearGradient id="s" x1="48.667223%" x2="51.121074%" xlink:href="#j" y1="21.833933%" y2="87.961084%"/><linearGradient id="t"><stop offset="0" stop-color="#fff"/><stop offset="1" stop-color="#53d6ed"/></linearGradient><linearGradient id="u" x1="45.703205%" x2="51.044872%" xlink:href="#t" y1="-36.161218%" y2="74.685256%"/><linearGradient id="v"><stop offset="0" stop-color="#fff"/><stop offset="1" stop-color="#ff6c1d"/></linearGradient><linearGradient id="w" x1="31.361612%" x2="126.46648%" xlink:href="#v" y1="44.990478%" y2="69.953055%"/><linearGradient id="x" x1="72.087062%" x2="-28.4681%" xlink:href="#v" y1="33.466727%" y2="99.036982%"/><linearGradient id="y" x1="50.001277%" x2="50.313192%" xlink:href="#v" y1="33.041919%" y2="66.205134%"/><linearGradient id="z" x1="49.144993%" x2="49.144993%" xlink:href="#v" y1="128.410638%" y2="-178.576596%"/><linearGradient id="A" x1="55.142171%" x2="-29.785977%" xlink:href="#v" y1="65.788321%" y2="-356.508759%"/><linearGradient id="B" x1="43.29596%" x2="68.384849%" xlink:href="#v" y1="7.273646%" y2="72.445776%"/><linearGradient id="C" x1="55.907143%" x2="14.161905%" xlink:href="#v" y1="61.292973%" y2="-10.490474%"/><linearGradient id="D" x1="33.897421%" x2="47.830894%" xlink:href="#v" y1="7.85132%" y2="42.008496%"/><linearGradient id="E" x1="71.440714%" x2="45.289818%" xlink:href="#a" y1="63.631405%" y2="47.012687%"/><linearGradient id="F" x1="69.161225%" x2="45.786609%" xlink:href="#a" y1="60.307602%" y2="47.741738%"/><linearGradient id="G" x1="44.195018%" x2="57.876657%" xlink:href="#j" y1="-39.203454%" y2="170.300884%"/><linearGradient id="H"><stop offset="0" stop-color="#fff"/><stop offset=".9982" stop-color="#8066ff"/></linearGradient><linearGradient id="I" x1="-28.367082%" x2="55.017455%" xlink:href="#H" y1="-36.197314%" y2="66.514146%"/><linearGradient id="J"><stop offset="0" stop-color="#fff"/><stop offset="1" stop-color="#8b73ff"/></linearGradient><linearGradient id="K" x1="48.421529%" x2="51.608348%" xlink:href="#J" y1="39.789771%" y2="59.906138%"/><linearGradient id="L" x1="28.069542%" x2="138.79145%" xlink:href="#J" y1="47.202438%" y2="62.514569%"/><linearGradient id="M" x1="53.619015%" x2="37.438195%" xlink:href="#J" y1="128.460162%" y2="-172.451138%"/><linearGradient id="N" x1="49.832238%" x2="65.959572%" xlink:href="#J" y1="32.186984%" y2="356.075298%"/><linearGradient id="O"><stop offset="0" stop-color="#fff"/><stop offset=".9982" stop-color="#8b73ff"/></linearGradient><linearGradient id="P" x1="-24.718459%" x2="49.94376%" xlink:href="#O" y1="-208.192728%" y2="78.788062%"/><linearGradient id="Q" x1="50.144156%" x2="50.144156%" xlink:href="#O" y1="-39.582143%" y2="170.87987%"/><linearGradient id="R" x1="50.381385%" x2="50.687446%" xlink:href="#j" y1="33.919087%" y2="65.634448%"/><linearGradient id="S" x1="50.805363%" x2="50.805363%" xlink:href="#j" y1="128.175714%" y2="-177.941429%"/><linearGradient id="T" x1="50.620588%" x2="50.620588%" xlink:href="#j" y1="32.434109%" y2="356.017054%"/><linearGradient id="U" x1="-27.788308%" x2="47.502446%" xlink:href="#j" y1="-36.110472%" y2="53.847466%"/><linearGradient id="V" x1="62.429879%" x2="47.307648%" xlink:href="#a" y1="53.82405%" y2="49.160344%"/><linearGradient id="W" x1="62.584958%" x2="47.271429%" xlink:href="#a" y1="54.095741%" y2="49.10174%"/><linearGradient id="X" x1="65.519136%" x2="46.514661%" xlink:href="#a" y1="60.382278%" y2="47.728731%"/><linearGradient id="Y" x1="62.429879%" x2="47.307648%" xlink:href="#a" y1="53.825775%" y2="49.162069%"/><linearGradient id="Z" x1="64.885714%" x2="46.801887%" xlink:href="#a" y1="58.62165%" y2="48.106396%"/><linearGradient id="aa" x1="46.171937%" x2="55.026263%" xlink:href="#h" y1="-40.095798%" y2="170.93942%"/><linearGradient id="ab" x1="49.066477%" x2="51.115769%" xlink:href="#j" y1="39.969957%" y2="59.59019%"/><linearGradient id="ac" x1="27.569151%" x2="135.165052%" xlink:href="#j" y1="43.320839%" y2="62.721866%"/><linearGradient id="ad" x1="69.585272%" x2="-28.528066%" xlink:href="#j" y1="42.224517%" y2="74.615111%"/><linearGradient id="ae" x1="45.811004%" x2="54.559307%" xlink:href="#j" y1="-39.083419%" y2="169.424807%"/><linearGradient id="af" x1="46.010641%" x2="54.402611%" xlink:href="#j" y1="-39.584003%" y2="170.337887%"/><linearGradient id="ag" x1="53.118789%" x2="41.402836%" xlink:href="#j" y1="127.837658%" y2="-176.667715%"/><linearGradient id="ah" x1="41.398569%" x2="77.995569%" xlink:href="#j" y1="9.932757%" y2="183.304924%"/><linearGradient id="ai" x1="49.873739%" x2="60.193465%" xlink:href="#j" y1="33.119718%" y2="357.832299%"/><linearGradient id="aj" x1="47.131115%" x2="52.087499%" xlink:href="#j" y1="21.533057%" y2="87.572777%"/><linearGradient id="ak" x1="62.823912%" x2="47.234599%" xlink:href="#a" y1="54.490285%" y2="49.013425%"/><linearGradient id="al" x1="45.779808%" x2="51.121795%" xlink:href="#t" y1="-36.284936%" y2="74.561539%"/><linearGradient id="am" x1="30.438873%" x2="122.611305%" xlink:href="#v" y1="47.808981%" y2="72.771559%"/><linearGradient id="an" x1="69.831546%" x2="-30.720577%" xlink:href="#v" y1="37.324599%" y2="102.893708%"/><linearGradient id="ao" x1="50.102979%" x2="50.414894%" xlink:href="#v" y1="33.147542%" y2="66.310928%"/><linearGradient id="ap" x1="49.389046%" x2="49.389046%" xlink:href="#v" y1="129.06383%" y2="-177.923404%"/><linearGradient id="aq" x1="55.249117%" x2="-29.717643%" xlink:href="#v" y1="65.514439%" y2="-356.676636%"/><linearGradient id="ar" x1="42.527273%" x2="67.616162%" xlink:href="#v" y1="7.752893%" y2="72.925023%"/><linearGradient id="as" x1="56.478571%" x2="14.735714%" xlink:href="#v" y1="61.074719%" y2="-10.708728%"/><linearGradient id="at" x1="34.015385%" x2="47.903846%" xlink:href="#v" y1="8.018638%" y2="41.951069%"/><linearGradient id="au"><stop offset="0"/><stop offset="1" stop-opacity="0"/></linearGradient><linearGradient id="av" x1="53.124284%" x2="48.828418%" xlink:href="#au" y1="46.244062%" y2="51.438414%"/><linearGradient id="aw" x1="52.760799%" x2="48.99922%" xlink:href="#au" y1="47.062134%" y2="51.423236%"/><linearGradient id="ax"><stop offset="0" stop-color="#fff"/><stop offset="1" stop-color="#69a7f6"/></linearGradient><linearGradient id="ay" x1="19.299485%" x2="138.728439%" xlink:href="#ax" y1="83.57326%" y2="-47.073987%"/><linearGradient id="az" x1="159.703348%" x2="17.34892%" xlink:href="#ax" y1="113.210287%" y2="47.106172%"/><linearGradient id="aA" x1="146.82472%" x2="27.922105%" xlink:href="#ax" y1="92.37496%" y2="49.584007%"/><linearGradient id="aB" x1="156.171094%" x2="15.776563%" xlink:href="#ax" y1="117.034766%" y2="28.255859%"/><linearGradient id="aC" x1="-.023009%" x2="99.971582%" y1="50.005014%" y2="50.005014%"><stop offset="0" stop-color="#ff813d"/><stop offset=".996" stop-color="#ff6c1d"/></linearGradient><linearGradient id="aD"><stop offset="0"/><stop offset="1" stop-color="#231f20" stop-opacity="0"/></linearGradient><linearGradient id="aE" x1="-.122392%" x2="99.893291%" xlink:href="#aD" y1="50.026224%" y2="50.026224%"/><linearGradient id="aF" x1="36.760596%" x2="52.553666%" xlink:href="#aD" y1="120.109464%" y2="26.302203%"/><linearGradient id="aG" x1="-92.272678%" x2="303.95516%" xlink:href="#a" y1="-735.303245%" y2="1446.59621%"/><linearGradient id="aH" x1="130.284201%" x2="40.976208%" xlink:href="#a" y1=".985441%" y2="59.444423%"/><linearGradient id="aI" x1="469.694808%" x2="4.227115%" xlink:href="#a" y1="-52.185574%" y2="64.85703%"/><linearGradient id="aJ" x1="99.944055%" x2="-.099519%" xlink:href="#aD" y1="50.00104%" y2="50.00104%"/><linearGradient id="aK" x1="65.184239%" x2="44.667764%" xlink:href="#aD" y1="-55.092923%" y2="49.588923%"/><linearGradient id="aL" x1="63.829953%" x2="38.610919%" xlink:href="#aD" y1="-26.169815%" y2="63.625873%"/><linearGradient id="aM" x1="36.299894%" x2="63.464149%" xlink:href="#aD" y1="43.699121%" y2="56.340786%"/><linearGradient id="aN" x1="72.641444%" x2="37.932115%" xlink:href="#aD" y1="43.178046%" y2="53.820087%"/><linearGradient id="aO" x1="176.208673%" x2="15.356546%" xlink:href="#a" y1="93.24966%" y2="37.244933%"/><linearGradient id="aP" x1="62.373267%" x2="47.250965%" xlink:href="#a" y1="53.82405%" y2="49.160344%"/><linearGradient id="aQ" x1="62.525095%" x2="47.211565%" xlink:href="#a" y1="54.095741%" y2="49.10174%"/><linearGradient id="aR" x1="60.865831%" x2="47.62266%" xlink:href="#a" y1="51.534006%" y2="49.663505%"/><linearGradient id="aS" x1="-586.66376%" x2="739.87534%" xlink:href="#a" y1="40.22125%" y2="60.59591%"/><linearGradient id="aT" x1="-625.345654%" x2="777.39675%" xlink:href="#a" y1="39.032179%" y2="61.814925%"/><linearGradient id="aU" x1="-1294.11574%" x2="1569.81682%" xlink:href="#a" y1="5.435397%" y2="100.403056%"/><linearGradient id="aV" x1="48.089261%" x2="52.485598%" xlink:href="#h" y1="-39.482241%" y2="170.769207%"/><linearGradient id="aW" x1="49.859956%" x2="50.883286%" xlink:href="#j" y1="39.839795%" y2="59.604054%"/><linearGradient id="aX" x1="28.599883%" x2="135.704907%" xlink:href="#j" y1="46.406847%" y2="68.948831%"/><linearGradient id="aY" x1="67.955564%" x2="-26.437792%" xlink:href="#j" y1="43.433442%" y2="71.942817%"/><linearGradient id="aZ" x1="48.089463%" x2="52.493366%" xlink:href="#j" y1="-40.301964%" y2="170.311311%"/><linearGradient id="a0" x1="48.526104%" x2="52.701899%" xlink:href="#j" y1="-39.762221%" y2="170.001458%"/><linearGradient id="a1" x1="51.564415%" x2="45.70525%" xlink:href="#j" y1="129.162654%" y2="-175.27314%"/><linearGradient id="a2" x1="42.079746%" x2="74.697532%" xlink:href="#j" y1="8.64977%" y2="187.12697%"/><linearGradient id="a3" x1="49.986238%" x2="55.221474%" xlink:href="#j" y1="32.009497%" y2="358.522345%"/><linearGradient id="a4" x1="48.232744%" x2="50.683065%" xlink:href="#j" y1="22.195033%" y2="88.13203%"/><linearGradient id="a5" x1="45.919872%" x2="51.261859%" xlink:href="#t" y1="-36.076923%" y2="74.769551%"/><linearGradient id="a6" x1="31.610227%" x2="123.782659%" xlink:href="#v" y1="46.193162%" y2="71.155739%"/><linearGradient id="a7" x1="71.00746%" x2="-29.544664%" xlink:href="#v" y1="35.232142%" y2="100.801251%"/><linearGradient id="a8" x1="49.863404%" x2="50.175319%" xlink:href="#v" y1="33.08699%" y2="66.250376%"/><linearGradient id="a9" x1="49.833427%" x2="49.833427%" xlink:href="#v" y1="128.690426%" y2="-178.297872%"/><linearGradient id="ba" x1="54.96375%" x2="-29.964397%" xlink:href="#v" y1="65.979562%" y2="-356.316788%"/><linearGradient id="bb" x1="42.968687%" x2="68.057576%" xlink:href="#v" y1="7.478926%" y2="72.651056%"/><linearGradient id="bc" x1="55.138095%" x2="13.392857%" xlink:href="#v" y1="60.90232%" y2="-10.879426%"/><linearGradient id="bd" x1="33.584851%" x2="47.519289%" xlink:href="#v" y1="7.639469%" y2="41.796645%"/><linearGradient id="be" x1="63.413103%" x2="47.025911%" xlink:href="#a" y1="55.714373%" y2="48.748604%"/><linearGradient id="bf" x1="64.219808%" x2="46.828211%" xlink:href="#a" y1="57.385108%" y2="48.377197%"/><linearGradient id="bg" x1="45.833654%" x2="51.175641%" xlink:href="#t" y1="-35.999039%" y2="74.847436%"/><linearGradient id="bh" x1="30.889188%" x2="123.06162%" xlink:href="#v" y1="47.313219%" y2="72.275796%"/><linearGradient id="bi" x1="70.235698%" x2="-30.316426%" xlink:href="#v" y1="36.359859%" y2="101.928968%"/><linearGradient id="bj" x1="50.174468%" x2="50.486383%" xlink:href="#v" y1="33.128963%" y2="66.292177%"/><linearGradient id="bk" x1="49.559884%" x2="49.559884%" xlink:href="#v" y1="128.948936%" y2="-178.038298%"/><linearGradient id="bl" x1="54.81501%" x2="-30.111148%" xlink:href="#v" y1="66.156934%" y2="-356.139416%"/><linearGradient id="bm" x1="42.69697%" x2="67.785859%" xlink:href="#v" y1="7.668595%" y2="72.840725%"/><linearGradient id="bn" x1="56.880952%" x2="15.135714%" xlink:href="#v" y1="61.01236%" y2="-10.769953%"/><linearGradient id="bo" x1="34.047974%" x2="47.884035%" xlink:href="#v" y1="8.304264%" y2="41.981125%"/><linearGradient id="bp" x1="48.156942%" x2="52.546654%" xlink:href="#h" y1="-39.64247%" y2="170.292138%"/><linearGradient id="bq" x1="49.988496%" x2="51.013927%" xlink:href="#j" y1="39.967627%" y2="59.600761%"/><linearGradient id="br" x1="28.6208%" x2="134.321077%" xlink:href="#j" y1="42.688104%" y2="65.484323%"/><linearGradient id="bs" x1="68.665543%" x2="-29.209784%" xlink:href="#j" y1="43.423355%" y2="72.255465%"/><linearGradient id="bt" x1="48.372086%" x2="52.826474%" xlink:href="#j" y1="-40.183697%" y2="172.843959%"/><linearGradient id="bu" x1="48.683314%" x2="52.911786%" xlink:href="#j" y1="-39.242802%" y2="171.286752%"/><linearGradient id="bv" x1="51.667616%" x2="45.922478%" xlink:href="#j" y1="127.134423%" y2="-175.78303%"/><linearGradient id="bw" x1="42.554956%" x2="74.590029%" xlink:href="#j" y1="10.593464%" y2="183.661293%"/><linearGradient id="bx" x1="49.8381%" x2="55.030544%" xlink:href="#j" y1="33.528342%" y2="358.957828%"/><linearGradient id="by" x1="48.770964%" x2="51.232275%" xlink:href="#j" y1="21.907837%" y2="87.683266%"/><linearGradient id="bz" x1="49.985032%" x2="49.985032%" xlink:href="#j" y1="-39.362739%" y2="170.582166%"/><linearGradient id="bA" x1="-22.740196%" x2="55.861254%" xlink:href="#H" y1="-43.296083%" y2="68.318144%"/><linearGradient id="bB" x1="49.846083%" x2="49.846083%" xlink:href="#J" y1="-14.5%" y2="108.89186%"/><linearGradient id="bC" x1="26.989624%" x2="137.274713%" xlink:href="#J" y1="41.681644%" y2="68.344379%"/><linearGradient id="bD" x1="50.257789%" x2="50.257789%" xlink:href="#J" y1="128.825777%" y2="-177.865308%"/><linearGradient id="bE" x1="50.205769%" x2="50.205769%" xlink:href="#J" y1="32.603385%" y2="360.13766%"/><linearGradient id="bF" x1="-12.13809%" x2="49.373082%" xlink:href="#O" y1="-215.65076%" y2="80.80841%"/><linearGradient id="bG" x1="49.900325%" x2="49.900325%" xlink:href="#O" y1="-39.62987%" y2="170.832468%"/><linearGradient id="bH" x1="50.489178%" x2="50.795671%" xlink:href="#j" y1="33.894018%" y2="65.60955%"/><linearGradient id="bI" x1="51.113405%" x2="51.113405%" xlink:href="#j" y1="127.965714%" y2="-178.15%"/><linearGradient id="bJ" x1="50.864706%" x2="50.864706%" xlink:href="#j" y1="32.320155%" y2="355.903101%"/><linearGradient id="bK" x1="-27.605115%" x2="47.685639%" xlink:href="#j" y1="-36.195209%" y2="53.762729%"/><linearGradient id="bL" x1="50.141401%" x2="50.141401%" xlink:href="#j" y1="-39.603503%" y2="170.341401%"/><linearGradient id="bM" x1="-22.585656%" x2="56.015795%" xlink:href="#H" y1="-43.187539%" y2="68.427132%"/><linearGradient id="bN" x1="50.07235%" x2="50.07235%" xlink:href="#J" y1="-14.215116%" y2="109.176744%"/><linearGradient id="bO" x1="27.187826%" x2="140.537916%" xlink:href="#J" y1="42.756932%" y2="69.419666%"/><linearGradient id="bP" x1="49.76437%" x2="49.76437%" xlink:href="#J" y1="129.026554%" y2="-177.665351%"/><linearGradient id="bQ" x1="50.677885%" x2="50.677885%" xlink:href="#J" y1="32.056%" y2="359.513523%"/><linearGradient id="bR" x1="-12.340086%" x2="49.171086%" xlink:href="#O" y1="-215.529852%" y2="80.929318%"/><g fill="none" fill-rule="evenodd" transform="translate(-30)"><g fill-rule="nonzero"><path d="m643.5.2h244.5v46.1h-244.5z" fill="#2ba7ff"/><path d="m755.1 27.4h-84c-.9 0-1.6-.7-1.6-1.6v-1.8c0-.9.7-1.6 1.6-1.6h84c.9 0 1.6.7 1.6 1.6v1.8c0 .9-.7 1.6-1.6 1.6z" fill="#fff"/><path d="m643.5 63.9h244.5v48.4h-244.5z" fill="#f5f5f5"/><path d="m814.7 90.9h-91.7c-.9 0-1.6-.7-1.6-1.6v-1.8c0-.9.7-1.6 1.6-1.6h91.7c.9 0 1.6.7 1.6 1.6v1.8c0 .9-.7 1.6-1.6 1.6z" fill="url(#b)" opacity=".6"/><path d="m643.2 63.9h6.7v48.4h-6.7z" fill="#2ba7ff"/><path d="m643.5 207.7h244.5v203.2h-244.5z" fill="#f5f5f5"/><path d="m844.7 233.6h-136.7c-.9 0-1.6-.7-1.6-1.6v-1.8c0-.9.7-1.6 1.6-1.6h136.7c.9 0 1.6.7 1.6 1.6v1.8c0 .9-.7 1.6-1.6 1.6z" fill="url(#c)"/><path d="m779 250.1h-71c-.9 0-1.6-.7-1.6-1.6v-1.8c0-.9.7-1.6 1.6-1.6h71c.9 0 1.6.7 1.6 1.6v1.8c0 .9-.7 1.6-1.6 1.6z" fill="url(#d)"/><path d="m643.2 207.7h6.7v153.2h-6.7z" fill="#2ba7ff"/><path d="m643.5 121.2h244.5v77.6h-244.5z" fill="#e9f2fb"/><path d="m844.7 147.1h-136.7c-.9 0-1.6-.7-1.6-1.6v-1.8c0-.9.7-1.6 1.6-1.6h136.7c.9 0 1.6.7 1.6 1.6v1.8c0 .9-.7 1.6-1.6 1.6z" fill="url(#e)" opacity=".28"/><path d="m837.1 163.6h-129.1c-.9 0-1.6-.7-1.6-1.6v-1.8c0-.9.7-1.6 1.6-1.6h129.1c.9 0 1.6.7 1.6 1.6v1.8c0 .9-.7 1.6-1.6 1.6z" fill="url(#f)" opacity=".28"/><path d="m769.7 180.2h-61.7c-.9 0-1.6-.7-1.6-1.6v-1.8c0-.9.7-1.6 1.6-1.6h61.6c.9 0 1.6.7 1.6 1.6v1.8c0 .9-.7 1.6-1.5 1.6z" fill="url(#g)" opacity=".28"/><path d="m643.5 121.2h6.7v77.6h-6.7z" fill="#ff4949"/><g transform="translate(661 133)"><circle cx="16" cy="15.7" fill="url(#i)" r="15.4"/><path d="m13.3 22.6c-.5.5-1.2.9-2.9 1.4-3.8 1.3-4.3 3.3-4.3 3.3s2.8 3.8 10.5 3.7h.1c7.5-.3 10.7-5.1 10.7-5.1-.5-.4-1.1-1.5-3.7-2.3-1.7-.5-3.3-.6-3.8-1.2z" fill="url(#k)"/><path d="m12.3 16.5c-.3.3-1 0-1.3-.4-.4-.5-.4-1.7.4-2 .1 0 .3-.1.4-.1 0 0 .4.4.6 1.1 0 .8 0 1.3-.1 1.4z" fill="url(#l)"/><path d="m20.7 16.3c.3.3 1-.1 1.3-.5.4-.5.3-1.7-.4-2-.1 0-.3-.1-.4-.1 0 0-.4.5-.5 1.2-.2.8-.1 1.3 0 1.4z" fill="url(#m)"/><circle cx="16.2" cy="4.9" fill="url(#n)" r="3.7"/><path d="m22.3 11.1c.1 3.4-2.5 6.3-5.8 6.4s-6-2.7-6.1-6.1 2.5-6.3 5.8-6.4 6 2.7 6.1 6.1z" fill="url(#o)"/><path d="m12.9 17.8s.9 3.5.3 4.9c0 .1-2 1.1-2 1.1 0 .3.1 1 .2 1.4.9 4.2 5 4.5 5.5 4.5 2.9-.1 5.8-1.6 5.4-6.5 0 0-1.8-.5-2.1-.7 0 0-.1-.2-.1-.2-.6-1.3.4-4.7.4-4.7z" fill="url(#p)"/><path d="m19.7 7c0 1.6-1.5 2.8-3.3 2.9-1.9 0-3.4-1.2-3.4-2.7 0-1.6 1.5-2.8 3.3-2.9s3.3 1.2 3.4 2.7z" fill="url(#q)"/><path d="m21.4 13c0 .5-.4 3-.4 3.2-.2 2.6-3.2 5.1-4.5 5.1-1.5.1-4.3-2.3-4.7-4.8 0-.2-.5-3-.5-3.2-.3-2.8 2.2-5.1 4.9-5.2s5.4 1.7 5.2 4.9z" fill="url(#r)"/><path d="m10.4 11.4s3 .3 4.7.3c.1-.2.4-2.3.2-2.8 0 0 .3 2.3.3 2.7.9 0 4.5-.1 6.7-.5 0 0 .1-2.1-1.3-3.8-1.5-1.9-2.8-2.2-4.7-2.3-1.6-.1-3.3 1-4 1.7-1.7 1.7-1.9 3.1-1.9 4.7z" fill="url(#s)"/></g><g transform="translate(661 222)"><circle cx="16.3" cy="15.6" fill="url(#u)" r="15.6"/><path d="m12.1 15.9c-.3.2-.8 0-1-.4-.3-.4-.3-1.3.3-1.6.1 0 .2-.1.3-.1 0 0 .3.4.4.9.2.7.1 1.1 0 1.2z" fill="url(#w)"/><path d="m21.4 16c.3.1.8-.2.9-.6.2-.5 0-1.4-.7-1.4-.1 0-.2 0-.3 0 0 0-.2.4-.2 1 .1.5.2.9.3 1z" fill="url(#x)"/><path d="m13.5 21.8c-.3.2-.1.8-1.1 1.2-.6.3-2.6.3-4.2.7-2 .6-3.5 2.5-3.5 2.5s4 5.1 11.8 5.1h.1c7.6-.1 11.6-5.6 11.6-5.6-.5-.4-.6-1.2-3.3-2-1.1-.3-3.2-.3-3.7-.7-.3-.2-.9-.7-1.1-.9z" fill="url(#y)"/><path d="m13.2 17.7s.3 3.6-.2 4.9c-.2.5-1.1.4-1.1.6-.4 3.3 5 3.9 5 3.9s5.1-.8 4.8-4c0 0-.5-.1-.9-.6-.8-1.1-.2-4.8-.2-4.8z" fill="url(#z)"/><path d="m21.8 13c0 .2-.4 3.1-.5 3.2-.2.8-.6 3.5-2.1 4.2-.6.3-1.7.6-2.4.6-.8 0-1.8-.2-2.5-.5-1.5-.6-2.2-3.8-2.3-4.2-.1-.2-.5-3.1-.5-3.3-.5-3.5 2-5.7 5.1-5.7 3.4 0 5.3 2 5.2 5.7z" fill="url(#A)"/><path d="m19.4 16.9c-.4 0-.8-.6-2.8-.6-1.7 0-2.8.7-2.9.7s-1.2.5-1.6-1.5c-.2-.9-.4-.9-.4-.9s.6 4.7 2 6.7c.1.2.4.4.6.4 1 .3 3.3.4 4.9-.1.3-.1.5-.3.7-.6.4-.8 1.2-2.7 1.6-6 0-.1.1-.7.1-.7s-.3.1-.4.7c-.1.7-.2 1.8-1.8 1.9z" fill="url(#B)"/><path d="m18.8 17.7c-.1.1-2.4.8-4.2 0 .1-.1.4-.5 2.1-.6 1.7 0 2.1.6 2.1.6z" fill="url(#C)"/><path d="m21.8 12.8c-.1 0-1.5-.9-4.9-.2 0 0-.1 0-.2 0-.2 0-.2 0-.2 0-3.4-.7-4.8.1-4.9.2s-.1.2-.1.3c.1.1.2.1.3.1 0 0 .2-.1.5-.2 0 .5.1 1.7.7 2.1.4.3 1.1.3 1.6.3h.8s.7-.1.8-1c0-.5.1-1 .1-1.3h.1.3.3c0 .3.1.8.1 1.3.1.9.8 1 .8 1h.8c.5 0 1.2-.1 1.6-.3.6-.4.7-1.6.6-2.1.3.1.5.2.5.2h.1c.1 0 .2 0 .2-.1.2-.1.2-.2.1-.3zm-5.9 1.6c0 .7-.6.8-.6.8s-1.6.2-2.2-.2c-.5-.4-.6-1.6-.6-2 .7-.1 1.8-.3 3.5.1 0 .2-.1.8-.1 1.3zm4.4.5c-.6.4-2.2.3-2.2.3s-.5-.1-.6-.8c0-.5-.1-1.1-.1-1.4 1.7-.3 2.8-.2 3.5-.1-.1.4-.1 1.7-.6 2z" fill="url(#D)"/></g><g transform="translate(343 301)"><path d="m2.412795 8.811423h244.506268v61.201569h-244.506268z" fill="#f5f5f5" transform="matrix(.99787442 -.06516629 .06516629 .99787442 -2.30336 8.20779)"/><path d="m157.5 32.5-90.8 5.9c-.9.1-1.6-.6-1.7-1.5l-.1-1.8c-.1-.9.6-1.6 1.5-1.7l90.8-5.9c.9-.1 1.6.6 1.7 1.5l.1 1.8c0 .9-.6 1.6-1.5 1.7z" fill="url(#E)"/><path d="m211.4 45.5-143.6 9.4c-.9.1-1.6-.6-1.7-1.5l-.1-1.8c-.1-.9.6-1.6 1.5-1.7l143.6-9.4c.9-.1 1.6.6 1.7 1.5l.1 1.8c0 .9-.6 1.7-1.5 1.7z" fill="url(#F)"/><path d="m2.609906 16.51689h6.700172v61.201569h-6.700172z" fill="#2ba7ff" transform="matrix(.99787442 -.06516629 .06516629 .99787442 -3.057815 .488543)"/><g transform="translate(20 28)"><circle cx="16.2" cy="15.8" fill="url(#G)" r="15.7"/><g transform="translate(6 4)"><path d="m8.9 21.9c0-1 7-1 7-1s2.5 1.7 3.5.4-2.5-14.9-3-16.2c-1.8-5.7-7.3-4.6-9.2-3.9-1.4.6-3.3 2.4-3.6 5.1-.6 8-.3 12.7.2 15.9.4 2.9 5.1-.3 5.1-.3z" fill="url(#I)"/><path d="m7.7 19c-.5.6-1.1.9-2.8 1.6-3.8 1.4-4.3 3.5-4.3 3.5s3 3.8 10.9 3.3h.1c7.6-.6 10.7-5.7 10.7-5.7-.5-.4-1.2-1.5-3.9-2.2-1.8-.4-3.4-.5-4-1z" fill="url(#K)"/><path d="m6.2 12.5c-.3.3-.9 0-1.2-.3-.4-.4-.4-1.5.2-1.8.1 0 .3-.1.4-.1 0 0 .4.4.5 1 .2.7.2 1.1.1 1.2z" fill="url(#L)"/><path d="m7.1 14.1s1.1 3.6.6 5c0 .1-.6.5-1.5 1-.1 0 .3.9.6 1.4 1.1 2.1 4.7 4.7 5 4.5 2.7-1.4 4.7-5.4 4.6-6.9 0 0-1.3-.3-1.6-.5 0 0-.1-.2-.2-.2-.7-1.3.2-4.8.2-4.8z" fill="url(#M)"/><path d="m15.6 8.9c0 .2-.3 3.1-.3 3.3-.1 2.6-3 5.3-4.3 5.4-1.5.2-4.5-2.1-5-4.7 0-.2-.7-3.1-.7-3.3-.2-2.8 2-5.3 4.8-5.5s5.3 1.9 5.5 4.8z" fill="url(#N)"/><path d="m3.6 6.1c0 .4-.5 6.9-.4 9.9 0 1 .3 5.2.4 5.1 2-.7 1.9-.7 2-.8.4-.3 1.4-1.4.4-4.1-.4-1.1-.1-3.6-.2-3.6-.9 0-1.2-.7-1.2-.8 0-.2-.3-1.2.7-1.4 0 0 .6-2.7.6-2.7 1.2.8 4.7 3.1 9.4 2.8 0-.1 1.8 1.9 1.7 4.1-.3 5.2 2.2 5.5 2.3 5.4.2-1.1-2.2-13.3-3.5-15.9-.3-.5-.5-1-.9-1.5-1.6-1.7-4.2-2.6-7.6-1.4-3.2 1.1-3.7 4.9-3.7 4.9z" fill="url(#P)"/></g></g></g><g transform="translate(63)"><path d="m.5.2h244.5v46.1h-244.5z" fill="#2ba7ff"/><path d="m110.2 27.4h-84c-.9 0-1.6-.7-1.6-1.6v-1.8c0-.9.7-1.6 1.6-1.6h84c.9 0 1.6.7 1.6 1.6v1.8c0 .9-.7 1.6-1.6 1.6z" fill="#fff"/><g transform="translate(0 63)"><path d="m.5.9h244.5v77.6h-244.5z" fill="#f5f5f5"/><g transform="translate(19 12)"><circle cx="15.4" cy="16.3" fill="url(#Q)" r="15.4"/><g transform="translate(4 6)"><path d="m8.2 16.6c-.6.5-1.5 1.2-3.3 1.7-3.9 1.2-4.9 2.4-4.9 2.4s3.9 5 11.6 5h.1c7.5-.1 11.4-5.5 11.4-5.5-.5-.4-1.6-1.1-4.3-1.9-1.7-.5-2.7-1.2-3.3-1.7z" fill="url(#R)"/><path d="m8.2 12.4s.6 3.6-.2 4.8 3.9 2.2 3.9 2.2h.1s4.7-1 3.9-2.2-.2-4.8-.2-4.8z" fill="url(#S)"/><path d="m16.9 7.8c0 .2-.5 3-.5 3.2-.2 2.6-2 4.6-4.6 4.6s-4.3-2-4.6-4.5c0-.2-.5-3.1-.5-3.3 0-2.8 2.3-5.1 5.1-5.1 2.9 0 5.1 2.3 5.1 5.1z" fill="url(#T)"/><path d="m7.3 11c0-.9 1.1-2.4.6-6 0 0 1.7-1 3.7.5 1.3 1 3.1 3 5.1 2.5v2s.5-.6 1.6-1.8c1-1.2.2-2.6-.9-3.5-1-.8-.1-4.9-4.7-3.7-1.2.3-1.8-.9-3.3-.7-1 .2-1.9 1-2 1.7-1.2.1-3.2 1.9-1.7 5 1.1 2.6 1.6 4 1.6 4z" fill="url(#U)"/></g></g><path d="m201.6 26.8h-136.7c-.9 0-1.6-.7-1.6-1.6v-1.8c0-.9.7-1.6 1.6-1.6h136.7c.9 0 1.6.7 1.6 1.6v1.8c0 .9-.7 1.6-1.6 1.6z" fill="url(#V)" opacity=".6"/><path d="m194 43.3h-129.1c-.9 0-1.6-.7-1.6-1.6v-1.8c0-.9.7-1.6 1.6-1.6h129.1c.9 0 1.6.7 1.6 1.6v1.8c0 .9-.7 1.6-1.6 1.6z" fill="url(#W)" opacity=".6"/><path d="m126.6 59.8h-61.6c-.9 0-1.6-.7-1.6-1.6v-1.8c0-.9.7-1.6 1.6-1.6h61.6c.9 0 1.6.7 1.6 1.6v1.8c0 .9-.8 1.6-1.6 1.6z" fill="url(#X)" opacity=".6"/><path d="m.2.9h6.7v77.6h-6.7z" fill="#2ba7ff"/></g><g transform="translate(0 150)"><path d="m.5.4h244.5v61.2h-244.5z" fill="#f5f5f5"/><path d="m201.6 26.2h-136.7c-.9 0-1.6-.7-1.6-1.6v-1.8c0-.9.7-1.6 1.6-1.6h136.7c.9 0 1.6.7 1.6 1.6v1.8c0 .9-.7 1.6-1.6 1.6z" fill="url(#Y)"/><path d="m135.9 42.8h-71c-.9 0-1.6-.7-1.6-1.6v-1.8c0-.9.7-1.6 1.6-1.6h71c.9 0 1.6.7 1.6 1.6v1.8c0 .9-.7 1.6-1.6 1.6z" fill="url(#Z)"/><path d="m.2.1h6.7v61.5h-6.7z" fill="#ff4949"/><g transform="translate(18 12)"><circle cx="16.2" cy="16.1" fill="url(#aa)" r="15.6"/><path d="m13.5 23.2c-.5.6-1.2.9-2.9 1.5-3.9 1.4-4.3 3.4-4.3 3.4s2.9 3.8 10.8 3.5h.1c7.6-.4 10.8-5.4 10.8-5.4-.5-.4-1.1-1.5-3.8-2.2-1.8-.5-3.3-.6-3.9-1.1z" fill="url(#ab)"/><path d="m12.4 17c-.3.3-1 0-1.3-.4-.4-.5-.5-1.7.3-2 .1 0 .3-.1.4-.1 0 0 .4.4.6 1.2.1.7.1 1.2 0 1.3z" fill="url(#ac)"/><path d="m21 16.6c.3.3 1-.1 1.3-.5.3-.5.3-1.7-.5-2-.1 0-.3-.1-.4-.1 0 0-.4.5-.5 1.2-.1.8-.1 1.3.1 1.4z" fill="url(#ad)"/><circle cx="16.2" cy="5.1" fill="url(#ae)" r="3.8"/><path d="m22.5 11.3c.1 3.5-2.4 6.4-5.8 6.6-3.3.1-6.2-2.6-6.3-6.1s2.4-6.4 5.8-6.6c3.3-.1 6.1 2.6 6.3 6.1z" fill="url(#af)"/><path d="m13 18.3s1 3.6.4 5c0 .1-2 1.2-2 1.2 0 .3.2 1 .3 1.5 1 4.3 5.2 4.4 5.6 4.4 3-.2 5.9-1.7 5.3-6.7 0 0-1.9-.4-2.1-.6 0 0-.1-.2-.1-.2-.7-1.3.3-4.8.3-4.8z" fill="url(#ag)"/><path d="m19.7 7.2c.1 1.6-1.4 2.9-3.3 3s-3.5-1.1-3.6-2.7 1.4-2.9 3.3-3 3.5 1.1 3.6 2.7z" fill="url(#ah)"/><path d="m21.6 13.2c0 .5-.3 3.1-.3 3.2-.1 2.6-3.2 5.2-4.4 5.3-1.5.1-4.5-2.3-4.9-4.8 0-.2-.6-3.1-.6-3.3-.3-2.8 2.1-5.2 4.9-5.4 2.8 0 5.4 1.7 5.3 5z" fill="url(#ai)"/><path d="m10.4 11.8s3 .3 4.8.2c.1-.2.3-2.3.1-2.8 0 0 .4 2.3.3 2.8.9 0 4.6-.2 6.8-.6 0 0 0-2.1-1.4-3.9-1.6-1.9-2.9-2.2-4.9-2.2-1.6 0-3.3 1.1-4 1.9-1.6 1.6-1.8 3-1.7 4.6z" fill="url(#aj)"/></g></g><g transform="translate(0 220)"><path d="m.5.5h244.5v51.9h-244.5z" fill="#f5f5f5"/><path d="m184.6 29.3h-119.7c-.9 0-1.6-.7-1.6-1.6v-1.8c0-.9.7-1.6 1.6-1.6h119.6c.9 0 1.6.7 1.6 1.6v1.8c.1.8-.7 1.6-1.5 1.6z" fill="url(#ak)"/><path d="m.2.3h6.7v52.1h-6.7z" fill="#2ba7ff"/><g transform="translate(18 10)"><circle cx="16.2" cy="16.4" fill="url(#al)" r="15.6"/><path d="m12.1 16.6c-.3.2-.8 0-1-.4-.3-.4-.3-1.3.3-1.6.1 0 .2-.1.3-.1 0 0 .3.4.4.9.1.8.1 1.2 0 1.2z" fill="url(#am)"/><path d="m21.4 16.7c.3.1.8-.2.9-.6.2-.5 0-1.4-.7-1.4-.1 0-.2 0-.3 0 0 0-.2.4-.2 1s.2 1 .3 1z" fill="url(#an)"/><path d="m13.4 22.5c-.3.2-.1.8-1.1 1.2-.6.3-2.6.3-4.2.7-2 .6-3.5 2.5-3.5 2.5s4 5.1 11.8 5.1h.1c7.6-.1 11.6-5.6 11.6-5.6-.5-.4-.6-1.2-3.3-2-1.1-.3-3.2-.3-3.7-.7-.3-.2-.9-.7-1.1-.9z" fill="url(#ao)"/><path d="m13.1 18.4s.3 3.6-.2 4.9c-.2.5-1.1.4-1.1.6-.4 3.3 5 3.9 5 3.9s5.1-.8 4.8-4c0 0-.5-.1-.9-.6-.8-1.1-.2-4.8-.2-4.8z" fill="url(#ap)"/><path d="m21.7 13.8c0 .2-.4 3.1-.5 3.2-.2.8-.6 3.5-2.1 4.2-.6.3-1.7.6-2.4.6-.8 0-1.8-.2-2.5-.5-1.5-.6-2.2-3.8-2.3-4.2-.1-.2-.5-3.1-.5-3.3-.5-3.5 2-5.7 5.1-5.7 3.4-.1 5.4 2 5.2 5.7z" fill="url(#aq)"/><path d="m19.4 17.6c-.4 0-.8-.6-2.8-.6-1.7 0-2.8.7-2.9.7-.1.1-1.2.5-1.6-1.5-.2-.9-.4-.9-.4-.9s.6 4.7 2 6.7c.1.2.4.4.6.4 1 .3 3.3.4 4.9-.1.3-.1.5-.3.7-.6.4-.8 1.2-2.7 1.6-6 0-.1.1-.7.1-.7s-.3.1-.4.7c-.2.7-.3 1.8-1.8 1.9z" fill="url(#ar)"/><path d="m18.7 18.5c-.1.1-2.4.8-4.2 0 .1-.1.4-.5 2.1-.6 1.7 0 2.1.6 2.1.6z" fill="url(#as)"/><path d="m21.7 13.6c-.1 0-1.5-.9-4.9-.2 0 0-.1 0-.2 0-.2 0-.2 0-.2 0-3.4-.7-4.8.1-4.9.2s-.1.2-.1.3c.1.1.2.1.3.1 0 0 .2-.1.5-.2 0 .5.1 1.7.7 2.1.4.3 1.1.3 1.6.3h.8s.7-.1.8-1c0-.5.1-1 .1-1.3h.1.3.3c0 .3.1.8.1 1.3.1.9.8 1 .8 1h.8c.5 0 1.2-.1 1.6-.3.6-.4.7-1.6.6-2.1.3.1.5.2.5.2h.1c.1 0 .2 0 .2-.1.3-.1.2-.2.1-.3zm-5.9 1.6c0 .7-.6.8-.6.8s-1.6.2-2.2-.2c-.5-.4-.6-1.6-.6-2 .7-.1 1.8-.3 3.5.1 0 .2 0 .7-.1 1.3zm4.4.5c-.6.4-2.2.3-2.2.3s-.5-.1-.6-.8c0-.5-.1-1.1-.1-1.4 1.7-.3 2.8-.2 3.5-.1-.1.4-.1 1.6-.6 2z" fill="url(#at)"/></g></g></g><path d="m307.6 612.9s-120.6 48.7-122.8 48.2-184.4 0-184.4 0l120.8-48.2h58.9l-63.8 32.6 132.5-32.6z" fill="url(#av)" opacity=".15"/><path d="m725.1 624.5s-133.8 38.2-136 37.7-184.4 0-184.4 0l120.8-48.2h58.9 68.6z" fill="url(#aw)" opacity=".15"/><g transform="translate(672 269)"><path d="m.2 122.3h194.1v-34.6-87h-194.1z" fill="url(#ay)"/><path d="m92.6 93.4-48.7-39.1-43.7 39.1v28.9h92.6z" fill="url(#az)"/><path d="m194.3 104.2v18.1h-160.6l93.4-91.4z" fill="url(#aA)"/><circle cx="76.1" cy="29.1" fill="url(#aB)" r="12.8"/></g><g transform="translate(108 39)"><path d="m14.7 533.5.1 26.9s17.9-1.1 17.8-1.4 2.4-26.5 2.4-26.5z" fill="#c89773"/><path d="m134.7 537.1c.1.4 8.5 21.8 8.5 21.8s17.7-2.1 17.5-2.2c-.3-.1-9.2-30.4-9.2-30.4z" fill="#c89773"/><g transform="translate(200 97)"><path d="m16.3 50s12.2-11.8 13.6-14.2c1.5-2.4 4.8-14 5-15.7s-1.5-19.9-1.5-19.9-2.9.6-3.1 3.7-.9 13.2-1.1 13.8-2 1.7-2 1.7-5.3-5.9-6.8-6.1-3.5 1.8-3.5 1.8-3.8 1.1-4.3 1.4-1.4 1.1-1.3 2.1c.1.5-.7.9-1.4 1.1-.8.2-1.4 1-1.5 1.8-.1.6-.1 1.3-.2 2.1-.1 2.4-.8 5.5.4 5.3 1.1-.3 1.9-.4 1.9-.4s-.8 1.7-1.5 4.1c-1.2 4.4-1.1 5.7-3.1 10.3-2.8 6.2-6.2 12.4-4.8 12 1.3-.2 15.2-4.9 15.2-4.9z" fill="#c89773"/><path d="m26.8 39.3s2.3-1.6 1.5-5.6c-1-5.1.8-8.5 1.4-10.9s.6-3.6.6-3.6-3.3-.3-4.7 2.7-2.6 5.1-2.6 5.1-6.5 1.7-9 5.6c-2.4 3.7-5.8 3.4-5.8 3.4s.8-2.9 1.2-4.4c.4-1.4 1.1-3.1 1.1-3.1l-1.8.4s-.3.1-.5-.2c-.2-.4-.2-1.3-.1-2.6.1-.9.1-1.9.2-2.8.1-.8 0-1.6.2-2.1.1-.4.4-.8.6-.9s.8-.5 1.3-.6c1.1-.4 1.1-1 1.1-1s-.3-1.2 1.3-2.1c.9-.5 4.3-1.4 4.3-1.4s1.7-2 3.2-1.9 3.4 2.6 3.4 2.6l3.7 3.6s1.6-1 1.9-1.7.8-7.2.8-7.2l.4-6.6s.2-2.6 2.6-3.5c.6-.2.6.5.6.5l1.3 15.5s.3 2.6 0 3.8c-.4 1.7-3.2 11.5-3.2 11.5s-1 3.3-2 4.5c-1 1-3 3-3 3z" fill="#bd8257"/></g><path d="m33.2 255.2h-9.4s-4 23-5.2 36.7c-1.7 19-2.1 72-2.1 72l-.8 40.7s-3.7 18.7-4.7 40.4c-1 21.4-.2 68.1-.6 79.8-.5 14.7.2 23.6.2 23.6l29.4-2.6s11-77.8 14.4-98.2c1.8-10.6 4.8-30.1 6.1-36.1s8.8-73.5 8.8-73.5 21.8 62.9 23.2 71.9c1.3 9 .4 13.6 4.1 34.5 4.1 22.9 17.9 54.3 24.9 71.2 6.9 16.7 11.7 31.6 11.7 31.6s31.5-2.1 31.5-2c-.1-.1-14.1-62.4-19.1-91.1-4.4-25.1-9.1-58.6-10.6-66.7-.6-3.2-13.5-131.6-13.5-131.6z" fill="url(#aC)"/><path d="m13.2 555.5v18.4h58.9l-38.7-19.6z" fill="#000"/><path d="m140.8 555.5v18.4h58.8l-39-21z" fill="#000"/><path d="m48.9 64.1s0 24.8-4.1 31.6c-3.5 5.8 11.6 8.1 24.4 6.3s18.6 6.8 15.7-4.3-3-26.1-3-26.1-6.9-14.4-33-7.5z" fill="#c89773"/><path d="m50.5 61.3c1.3 2.2 2.9 4.2 4.8 5.7 4.6 3.5 10.5 5.8 16.3 6.4 12 1.3 18.2 1.3 21.5.3 2.9-.9 7.5-2.3 6.1-14.1-.9-7.5-1-8.6-.2-9.9s4.4-2 3.9-3.3-3.7-19-4.4-22.6c-1.2-5.6-4.1-11-8.5-14.7-9.2-7.7-23.5-5.6-33.2.1-5.1 3-9.4 7.6-11.6 13.1-2.5 6.6-1.9 13.8-.5 20.5 1.3 6.2 2.6 12.8 5.8 18.5z" fill="#c89773"/><path d="m72.3 43.7s27.2-5 29.8-20-1.5-19.9-1.5-20.9c0-1.4-11.4-.4-12.6-.3-4.5.4-9 .4-13.5 0-8.8-.7-16.9-3.9-25.6-1.1-8.3 2.6-14.1 9.5-14.9 18.2-.8 9.4 3.4 18.6 7.8 26.7 1.2 2.1 2.2 4.3 2.7 6.6 2 8.9 1.7 10.7 2.4 12.5.7 1.7 2.3 2.2 6.3 2.6 7.2.8 12.1-5.9 13.2-12.2.1-.7.3-1.6.4-2.6.1-.4.5-2.1.2-2.4 0 0-5.4-6.7-1-9.9s6.3 2.8 6.3 2.8z" fill="#000"/><g fill="#177fff"><path d="m33.1 94.5c-.8.4-2.6 1.3-5.7 3.8-4.6 3.8-10.4 11.1-11.5 20.8-2 16 6 47.5 8 62.1 2.1 15.4 2.5 60.3 1 68.5-1.6 8.2-2.3 13.2-2.3 13.2s34-1.9 55.8-.3c12.2.9 35.9-.6 43-1.3 2.8-.3.6-6.3-.1-19.5-1.6-30.5-3.6-54.6-2.6-77.9.8-17 3.9-48.3 2-55.9-1.6-6.2-15.3-16.3-34.2-17.4-2.5-.1-1.2-4.7-2.7-4.8-3-.2-9 .2-12.3.5-12.6.9-20.4-1.2-26.7-.5-.5.1-4.1 7-4.5 7.1-4.8.3-6.2 1-7.2 1.6z"/><path d="m170.1 163.7c-.9 1.3-51.1-59.5-51.1-59.5s-9.5-7.3-20.1 7.9 7.9 41.7 10.8 45.7c2.2 3 30.7 27.1 45.3 39.6 4.8 4.1 12.7 7.2 18.7 3s50.6-53.8 50.6-53.8l-21.2-9.2z"/><path d="m19.8 107.4s-3.3 5.1-6.3 13.2c-1.4 3.8-2.5 8.8-3.6 11.9-3 8.7-8.1 39.5-8.1 39.5s-3.9 13.1 1.1 19.2c7.1 8.7 22.8 24.7 23.7 24.9 4.9 1.3-2-36.4-2-36.4z"/></g><path d="m78.5 42s.5 7.1 8.6 9.8c6.6 2.3 11.4-.3 11.4-.3s1.6 9.3 1.2 12.5c-.3 3.4-.8 8.6-7.5 9.9-6.2 1.2-11.8.1-14.4-.6-1.2-.3-2.2-.9-3.1-1.7-1.8-1.7-4.4-5.2-3.5-10.4 1.3-7.6 1.1-17.4 1.1-17.4z" fill="#000"/><path d="m20.1 106.9s3.7-8 13.1-12.4c0 0 1-1.1 6.9-1.8.9-.1 3.7-6.8 4.7-6.9 3.8-.6 12.9.3 12.6.4-7.5 2.5-3.4 5.9-1.3 5.7.3 0 5.6-.1 6.2 0 48 6 22.9 57.1 9.6 88.6-8.4 19.8-17.2 47 4.2 78.9 14.3 21.4 15.4 45.2 13.6 76.3-1.8 30.9 9 32.6 18.4 53.6 9.3 21 .4 25.7-2.1 44.3-3.6 26.2 12.2 68.2 15 79.8 0 0-13.7-30.9-21-55.4-5.1-17-6.1-33.4-7.5-48.7-1-3-5.3-18.4-9.9-32.6-6.3-19.5-13.2-38.7-13.2-38.7s-10.1-26.2-10.7-25.8c-34.8 24.2-6.6 28.5-15 72-3.9 20.3-36 36.9-24.1 67.9 6.1 15.8 4.3 32.7-2.9 49.1-5.2 12-6.5 36.5-6.5 36.5s.4-32.7.6-59.1c.2-28.8-.7-41 5-74.3 0-4.9.6-54.7 2.1-96.8 1-27.3 6.5-50.8 7.4-60.2 1-9.7.7-21.5.6-32.5-.2-21.2-2.4-39.8-2.4-39.8s-.7-13.7-7.8-26.3c-1.1-1.9 6.2 15 2 29.4-3.7 12.6 7.9 23.6 7.9 25.4 0 2.2.4 11.7.3 11.8s-15-15-21.9-23.3c-.8-1-1.6-1.9-2-2.8-1.1-2.3-1.1-4.1-1.2-4.8-1-10.5 4.1-28.6 7.8-45.9 3.6-17 10.1-29.3 11.5-31.6z" fill="url(#aE)" opacity=".3"/><path d="m117.6 165.2-18.200637-18.9c-.099363.1 11.600637-2.5 16.900637.6 10.5 6.2 1.7 19.2 24.8 25.4 7.2 1.9 11.7 6.4 14.6 13 1.1 2.4 1.7 5.5 3.8 7.2 2 1.7 5.2 2.1 7.7 1.7 3.4-.5 7.3-2 9.7-4.5 2.8-3 4.9-7.5 7.8-10.3 7.4-6.9 17.5-10.4 17.400737-10.3-8.800737 10.4-23.100737 26.2-23.400737 26.4-.5.4-4.3 6.6-11.4 6.8-1.9.1-4.1-.6-6.5-1.3-.6-.2-1.1-.4-1.6-.7-1-.7-2.5-1.5-4-2.7-3.3-2.6-7.4-6.3-12-10.2-11.3-9.7-24.2-20.8-25.6-22.1.1.1.1 0 0-.1z" fill="url(#aF)" opacity=".3"/><path d="m99.7 41.1c-3 0-3.1-9-3.1-10s.1-10 3.1-10 3.1 9 3.1 10-.1 10-3.1 10zm0-18.3c-.5.6-1.4 3.6-1.4 8.3 0 4.6.8 7.6 1.4 8.3.5-.6 1.4-3.6 1.4-8.3 0-4.6-.8-7.6-1.4-8.3z" fill="#000"/><path d="m82.1 74.2.4 7.2s-9.3-6.3-10.5-13.6c1.4 2.9 3.3 5.1 6.3 5.7 1.1.2 2.6.5 3.8.7z" fill="#bb7f53"/><path d="m96.5 2.2c2.3-.3 4.9.2 7 1.8 1 .8 1.8 1.8 2.4 3s.9 2.4 1 3.6c.3 2.5-.1 4.9-.7 7.2s-1.6 4.5-2.7 6.6c.5-2.3 1.1-4.6 1.4-6.9.2-1.1.3-2.3.4-3.4s.1-2.3-.1-3.4c-.2-2.2-1-4.3-2.6-5.8s-3.8-2.3-6.1-2.7z" fill="#000"/><path d="m49.8 5.8c.1-.1.2-.3 0-.4-.1-.1-.3-.2-.4-.2-.3-.1-.6-.2-.9-.2-.6-.1-1.3-.1-1.9-.1-1.3 0-2.6.2-3.8.5-2.5.6-4.8 1.6-6.6 3.3-1.8 1.6-3.1 3.8-3.7 6.3-.7 2.4-.8 5.1-.8 7.7-.7-2.6-.9-5.3-.5-8 .2-1.4.7-2.7 1.3-3.9.7-1.2 1.5-2.4 2.6-3.3 2.1-1.9 4.8-3 7.5-3.3 1.4-.2 2.7-.2 4.1 0 .7.1 1.3.2 2 .4.3.1.6.2.9.4.1.1.3.2.4.4.1.1 0 .3-.2.4z" fill="#000"/><path d="m93.7 7.3c1 2.3 1.6 4.7 1.8 7.2.3 2.5.1 5-.5 7.5s-1.7 4.9-3.3 6.8c-1.6 2-3.7 3.5-5.9 4.5 1.9-1.6 3.6-3.3 4.9-5.3.6-1 1.2-2 1.6-3.1.5-1.1.8-2.2 1.1-3.3.6-2.3.8-4.7.8-7.1s-.1-4.8-.5-7.2z" fill="#565656"/><path d="m87.9 9.7c.5 1.4.7 2.9.5 4.4-.1 1.5-.6 3-1.3 4.4s-1.7 2.6-2.9 3.5c-.6.5-1.2.9-1.9 1.3-.7.3-1.4.6-2.1.8.5-.6 1.1-1 1.6-1.5s1-1 1.5-1.5c.9-1 1.7-2.2 2.3-3.4s1.1-2.5 1.5-3.8.6-2.7.8-4.2z" fill="#565656"/><path d="m46.8 6.9c-1.5 1.6-2.8 3.4-3.7 5.3-.5 1-.9 1.9-1.2 2.9-.1.5-.3 1-.5 1.5l-.3 1.5c-.1.5-.2 1-.2 1.6 0 .3-.1.5-.1.8v.8c0 .5-.1 1.1-.1 1.6s.1 1.1.1 1.6v.8l.1.8.2 1.6c.2 1.1.4 2.1.6 3.3-.5-1-1-2-1.4-3.1l-.5-1.6c-.2-.5-.3-1.1-.4-1.7-.5-2.2-.4-4.6 0-6.8.4-2.3 1.3-4.4 2.6-6.3 1.2-1.8 2.8-3.5 4.8-4.6z" fill="#565656"/><path d="m63.1 86.4s3.7-3.5 2.2-12.7-5.6-3.3-3.7-22c1.8-18.8 12.9-14 8.8-29.4-4-15.5-25.8-6.6-26.5 8.5s-3 17.7.5 22.1 1.3 10.7 2.6 12.7c.7 1.1 1.9 1.5 1.9 1.6.1 3.6-1.3 18.4-1.3 18.4z" fill="url(#aG)" opacity=".09"/></g><g transform="translate(519 291)"><path d="m1.2 85.6s-1-2.1-.4-3.1c.2-.4 6.5-8.1 6.5-8.1l1.1-1.6s4.1-.5 4.1-.6-1 3.8-1 3.8h4.9c.2 0 .6.8.3 1.4-.2.4-.8 1.3-.8 1.3l2.6 2.1s2.2 1.7 1.1 2.7c-.6.6-18.4 2.1-18.4 2.1z" fill="#bb7f53"/><path d="m120.4 64.7s5.3 29.1-3 42.7l37.6-13.1s-6.6-7.6-6.7-34.4z" fill="#e7bb86"/><path d="m52.9 323.4 5-17.5-23.4-1.9-30.4 19.6z" fill="url(#aH)"/><path d="m153.9 314 34.2 6.7 8.6 11.1-79.5-1.3z" fill="#e7bb86"/><path d="m156.8 93.1s37.9 66.3 40.6 76.5c2.4 9.1-4.8 13.8-8.5 17.5l-21.8 15.9-6.1-13 14.3-18.7-23.7-35.7c.4-25.2 5.2-42.5 5.2-42.5z" fill="#e7bb86"/><path d="m141.7 241.7-65.1-38.6s-14.3-9.7-27.6-10c-7.8-.2-21.8 3.9-21.2 22.8 0 .7 11.3 77.5 11.3 77.5l26.6-.4-.5-43.1s26.7 30 23.2 25.6z" fill="#4d4d4d"/><path d="m183.8 252.6s-49.7-5.8-84.8-6.9c0 0 7.7-15 9.3-31.4.9-9.8 2.6-20.2-3-44 0 0-2.9-7.1-10.3-14.4-17.8-17.7 14.5-44.5 28.9-60.4 1.5-1.7 12.9-3.4 14.6-2.9 15.2 4.8 19.6-3 19.6-3 7.8 10.8 16.8 23.3 16.5 32.4-.4 16-8.6 36.9-5.6 63.4 2.3 20.3 12.8 34.9 15.7 52.5.8 4.8-.4 9.2-.9 14.7z" fill="#53d6ed"/><path d="m88.4 301s13.6-1.1 29.5-2.1c6.6-.4 13.4-2.3 22.6-4.4 51.5-11.5 44.3-56.7 44.3-56.7l-85.7 7.8-61.3 41.2s-9.5 6.8-9 19.9c.6 15.8 13.1 24.4 32.7 25 20.7.6 99.5.2 99.5.2l16.9-18.8s-29.1-6.1-45.4-10c-19.5-4.8-26.5-5.6-44.1-2.1z" fill="#595959"/><path d="m201 313.7-14.1 6.7 8.4 11.4 43.6 21.5z" fill="url(#aI)"/><path d="m122.1 85.7s-.1-16.1-1.6-18.8 15.9-2.8 15.9-2.8-3.5 10.8-14.3 21.6z" fill="#e0a763"/><path d="m140.5 71.5c-1.4.7-18 6.2-28.3 5.7-5.6-.3-6.9-14.6-7.7-16.6-1.4-.8-3.5-2.6-3.5-2.6s2.7-6.4 2.4-15.3c0 0-8-29.3 14.7-29.3 18.9 0 27.8 6 33.1 18.2s0 34.5-10.7 39.9z" fill="#e7bb86"/><path d="m164.8 117.4c.6 3-1.2 22.1-15.5 48.3s8.2 25.3 14.2 53.9c2.2 10.5-1.1 23.3-5.8 32.7-4.5 9-11.5 16.7-18.8 23.5-6.5 6-24.5 23.5-29.7 24.3 0 0 39.4-5.5 50.2-12.3 8.7-5.5 21.2-15.8 24.4-33.4 1.7-8.9 1.5-18.5-1.6-27-5.3-14.9-14.8-31.1-13.6-60.7.7-17.9 7.5-38 5.4-42.4-2-4.5-9.2-6.9-9.2-6.9z" fill="url(#aJ)" opacity=".3"/><path d="m133.1 119.2s-2.7 21.1-16.7 34.5c-14 13.5-8 30.5-8 30.5s.1-13.7-7-21.1c-7.2-7.5-9.9-11.6-12-16.2-2.2-4.6 43.7-27.7 43.7-27.7z" fill="url(#aK)" opacity=".3"/><path d="m146 116.7-63.5 37.4c-7.2 4-16.3 2.6-21.9-3.6l-45.3-52.5 12-5.9 46.6 37.8 48.4-34 14.1-3.3z" fill="#e7bb86"/><path d="m132 90.3s-17.3 9-20 10.2l10.3 34.3s23.1-5.6 27.4-27.7c4.3-22-17.7-16.8-17.7-16.8z" fill="#53d6ed"/><path d="m96.1 12.4s-1.1 9.5 6.2 23c7.4 13.4 13.7 15.6 24.5 16.6s11.9 10.7 10.3 19.2c-1.7 8.4-8.3 29.5 18.4 47.6 10.2 5.1 13.1 16.8 13.7 20.1.4 2 35.3-19 13.9-51.5-13.6-20.7-4.1-23.4-9.6-38.5-2.2-5.9-7.4-9.9-6.3-22.8 2.1-24.7-22.7-27.7-35.6-22.6-18.2 7-22.7 7.3-35.5 8.9z" fill="#8676f7"/><path d="m75.9 261.4 23.1-15.8s-10.8 5.8-24.8-6.6-22.2-15.9-22.2-15.9 9.2 12.3 9.6 21.9c.4 9.7-5 22.8-1.6 26.8l5.5-3.4-.2-18.4z" fill="url(#aL)" opacity=".3"/><path d="m99.6 299.8-26 3s4.4 5 14.7 4.2c18.6-1.5 23.5-8.2 38.6 1.3s40.7 2.7 40.7 2.7-19.4-3.9-37.3-8.3c-14.1-3.6-22.6-4.6-30.7-2.9z" fill="url(#aM)" opacity=".3"/><path d="m160.7 113.3c-1.8-1.3-3.6-2.5-5.3-4-4.4-3.9-6.9-9.8-7.3-15.7s1.1-11.8 3.6-17.2c1.8-3.7 4-7.2 4.9-11.1 1-4.6-.1-9.5-3-13.3-4.4-5.8-11.9-8-18.2-11.6-5.2-2.9-9.9-7.1-12.5-12.4s-3-12-.1-17.2c3.6-6.5 11.5-9.5 19-9.8 5.5-.2 11.1 1 15.7 3.8 4.7 2.9 8.3 7.6 9.2 13 .9 4.9-.4 9.9.2 14.8 1 7.9 6.9 14.5 8.2 22.3.7 4.6-.2 9.2.2 13.8 1.2 13 12.9 23.2 14.5 36.2.9 6.8-1.2 13.9-5 19.6-2.1 3.2-4.3 6.2-7.2 8.7-1.5 1.3-4.4 4.2-7.6 5.3 1.8-6.5.8-13.5-3.2-18.9-1-1.4-2.2-2.8-3.7-4.2-.6-.7-1.5-1.4-2.4-2.1z" fill="url(#aN)" opacity=".3"/><path d="m197.8 174.5c-.2.8 0-7-11.8-15.1s-12.3-7.6-13.4-20.8c-1-13.2 6.8-4.7 6.8-4.7l16.8 32.4c.1 0 2.1 5.8 1.6 8.2z" fill="url(#aO)" opacity=".36"/><path d="m27 109.9c-1.1-1-6.7-8.6-9.7-10.7-1.9-1.4-5.5-2-8-2.3-1.6-.2-2.9-1.1-3.7-2.5-.5-1-1.1-2.1-1.6-2.9-1.1-1.8-4-7.9-3.2-9s5.7-2.5 5.8-3.1-4.6-6.5-3.7-8.3 1.9-1.9 3.5.1c1.6 2.1 4.6 5.4 5.1 5.7.3.2 1.6 2 4.3 3.8 1.8 1.2 4.8 1.8 7.7 5.8 3.6 4.8 11.5 16.5 11.5 16.5z" fill="#e7bb86"/><path d="m100 13c-.6-.6-1.5-.9-2.3-.8-.8.2-1.5.7-2 1.4-1.1 1.3-1.6 2.9-1.9 4.6-.5 3.3-.1 6.8.8 10 .9 3.3 2.3 6.4 4.1 9.3s4 5.5 6.4 7.9c-2.7-2.2-5-4.7-6.9-7.6s-3.4-6-4.4-9.4c-.5-1.7-.8-3.4-.9-5.1s-.1-3.5.2-5.2c.4-1.7 1-3.4 2.2-4.7.6-.6 1.4-1.2 2.3-1.3 1-.2 1.9.2 2.4.9z" fill="#8b8dff"/><path d="m175.9 62.5c-.6 1.7-.8 3.5-.7 5.2.1 1.8.5 3.5 1.2 5.1.6 1.6 1.5 3.2 2.4 4.7 1 1.5 2.2 2.7 3.5 3.8s2.8 2.2 4 3.5c1.3 1.3 2.4 2.8 3.1 4.4 1.5 3.3 1.9 7 1.9 10.5-.3-3.5-.9-7.1-2.5-10.2-.8-1.6-1.8-3-3.1-4.2-1.2-1.2-2.7-2.3-4-3.5-1.4-1.2-2.6-2.5-3.6-4-.5-.8-.9-1.6-1.3-2.4s-.7-1.6-1-2.5c-.6-1.7-1-3.5-1-5.3.1-1.6.3-3.5 1.1-5.1z" fill="#7460ff"/><path d="m145.5 2.4c5.1-.3 10.4.2 15 2.5 2.3 1.1 4.5 2.8 6 4.9 1.6 2.1 2.6 4.6 3.2 7.1.3 1.3.4 2.6.4 3.9s-.2 2.6-.3 3.9c-.4 2.5-.8 5-.9 7.5s.5 5 1.9 7.1 3.6 3.6 5.8 4.8c-2.3-1-4.6-2.4-6.2-4.5s-2.3-4.8-2.3-7.4c0-5.2 1.8-10.2.7-15.1-.5-2.4-1.4-4.8-2.9-6.8s-3.5-3.6-5.7-4.8c-4.4-2.3-9.6-3.1-14.7-3.1z" fill="#6c53f7"/><g fill="#9485ff"><path d="m.3.7c3.4 1.1 6.6 3 8.9 5.7 1.2 1.4 2.1 3 2.5 4.8s.7 3.6.6 5.4-.5 3.6-1.1 5.3-1.4 3.3-1.8 5c-.5 1.7-.5 3.4-.2 5.1.1.9.4 1.7.6 2.6.3.8.6 1.6.9 2.5-.4-.8-.8-1.6-1.2-2.4-.3-.8-.7-1.7-.9-2.5-.4-1.7-.5-3.6-.1-5.4s1.1-3.4 1.7-5.1c.6-1.6.9-3.3 1-5.1.1-1.7-.2-3.4-.5-5.1-.4-1.7-1.2-3.2-2.2-4.6-1.1-1.4-2.4-2.6-3.8-3.6-1.2-1-2.7-1.9-4.4-2.6z" opacity=".36" transform="translate(167 83)"/><path d="m109.5 17.9c-.2 1.4-.2 2.9 0 4.3.1.7.3 1.4.4 2.1.2.7.4 1.3.7 2 1 2.6 2.6 5.1 4.4 7.2.9 1.1 1.9 2.1 2.9 3.1s2.1 1.9 3.2 2.8 2.3 1.8 3.4 2.6c1.2.8 2.4 1.6 3.6 2.4-1.3-.6-2.6-1.4-3.8-2-1.2-.8-2.4-1.6-3.6-2.4-.6-.4-1.2-.9-1.7-1.4-.6-.5-1.2-.9-1.7-1.4-1-1-2.1-2-3-3.2-1.9-2.2-3.5-4.8-4.4-7.6-.9-2.7-1.3-5.7-.4-8.5z"/><path d="m118 13.5c.5.3.7.8.7 1.4.1.5.1 1 .2 1.5.1 1 .3 2 .7 2.9.7 1.9 2 3.4 3.4 4.8 1.5 1.4 3.1 2.5 4.9 3.6 1.7 1.1 3.5 2.1 5.4 3-2-.6-3.9-1.4-5.7-2.4s-3.6-2.1-5.2-3.5c-1.5-1.4-2.9-3.2-3.5-5.3-.3-1-.4-2.1-.4-3.1 0-.5 0-1 0-1.5s-.1-1.1-.5-1.4z"/></g></g><path d="m345.7 63.9h244.5v72.8h-244.5z" fill="#f5f5f5"/><path d="m546.9 89.8h-136.7c-.9 0-1.6-.7-1.6-1.6v-1.8c0-.9.7-1.6 1.6-1.6h136.7c.9 0 1.6.7 1.6 1.6v1.8c-.1.9-.8 1.6-1.6 1.6z" fill="url(#aP)" opacity=".6"/><path d="m539.3 106.3h-129.1c-.9 0-1.6-.7-1.6-1.6v-1.8c0-.9.7-1.6 1.6-1.6h129.1c.9 0 1.6.7 1.6 1.6v1.8c-.1.9-.8 1.6-1.6 1.6z" fill="url(#aQ)" opacity=".6"/><path d="m565.7 123.4h-192.3c-.9 0-1.6-.7-1.6-1.6 0-.9.7-1.6 1.6-1.6h192.3c.9 0 1.6.7 1.6 1.6 0 .9-.7 1.6-1.6 1.6z" fill="url(#aR)" opacity=".29"/><path d="m498.8 123.4h-126.6c-.9 0-1.6-.7-1.6-1.6 0-.9.7-1.6 1.6-1.6h126.6c.9 0 1.6.7 1.6 1.6-.1.9-.8 1.6-1.6 1.6z" fill="#18d400"/><path d="m344.4 63.9h6.7v72.8h-6.7z" fill="#2ba7ff"/><path d="m344.4.2h245.5v46.1h-245.5z" fill="#2ba7ff"/><path d="m518.9 27.4h-148.8c-.9 0-1.6-.7-1.6-1.6v-1.8c0-.9.7-1.6 1.6-1.6h148.8c.9 0 1.6.7 1.6 1.6v1.8c0 .9-.7 1.6-1.6 1.6z" fill="#fff"/><path d="m345.4 222.7h244.5v77.6h-244.5z" fill="#e9f2fb"/><g opacity=".19" transform="translate(408 243)"><path d="m138.6 5.6h-136.7c-.9 0-1.6-.7-1.6-1.6v-1.8c0-.9.7-1.6 1.6-1.6h136.7c.9 0 1.6.7 1.6 1.6v1.8c0 .9-.8 1.6-1.6 1.6z" fill="url(#aS)"/><path d="m131 22.1h-129.1c-.9 0-1.6-.7-1.6-1.6v-1.8c0-.9.7-1.6 1.6-1.6h129.1c.9 0 1.6.7 1.6 1.6v1.8c-.1.9-.8 1.6-1.6 1.6z" fill="url(#aT)"/><path d="m63.5 38.6h-61.6c-.9 0-1.6-.7-1.6-1.6v-1.8c0-.9.7-1.6 1.6-1.6h61.6c.9 0 1.6.7 1.6 1.6v1.8c0 .9-.7 1.6-1.6 1.6z" fill="url(#aU)"/></g><path d="m344.4 222.7h6.7v77.6h-6.7z" fill="#ff4949"/><g transform="translate(363 234)"><circle cx="15.9" cy="16.1" fill="url(#aV)" r="15.4"/><path d="m13.1 23.1c-.5.5-1.2.9-2.9 1.4-3.8 1.3-4.3 3.3-4.3 3.3s2.8 3.8 10.5 3.7h.1c7.5-.3 10.7-5.1 10.7-5.1-.5-.4-1.1-1.5-3.7-2.3-1.7-.5-3.3-.6-3.8-1.2z" fill="url(#aW)"/><path d="m12.1 16.9c-.3.3-1 0-1.3-.4-.4-.5-.4-1.7.4-2 .1 0 .3-.1.4-.1 0 0 .4.4.6 1.1.1.8 0 1.3-.1 1.4z" fill="url(#aX)"/><path d="m20.5 16.8c.3.3 1-.1 1.3-.5.4-.5.3-1.7-.4-2-.1 0-.3-.1-.4-.1 0 0-.4.5-.5 1.2-.1.8-.1 1.3 0 1.4z" fill="url(#aY)"/><circle cx="16.1" cy="5.4" fill="url(#aZ)" r="3.7"/><path d="m22.1 11.6c.1 3.4-2.5 6.3-5.8 6.4s-6-2.7-6.1-6.1 2.5-6.3 5.8-6.4 6.1 2.6 6.1 6.1z" fill="url(#a0)"/><path d="m12.7 18.2s.9 3.5.3 4.9c0 .1-2 1.1-2 1.1 0 .3.1 1 .2 1.4.9 4.2 5 4.5 5.5 4.5 2.9-.1 5.8-1.6 5.4-6.5 0 0-1.8-.5-2.1-.7 0 0-.1-.2-.1-.2-.6-1.3.4-4.7.4-4.7z" fill="url(#a1)"/><path d="m19.5 7.5c0 1.6-1.5 2.8-3.3 2.9-1.9 0-3.4-1.2-3.4-2.7s1.5-2.8 3.3-2.9 3.4 1.1 3.4 2.7z" fill="url(#a2)"/><path d="m21.3 13.5c0 .5-.4 3-.4 3.2-.2 2.6-3.2 5.1-4.5 5.1-1.5.1-4.3-2.3-4.7-4.8 0-.2-.5-3-.5-3.2-.3-2.8 2.2-5.1 4.9-5.2s5.3 1.6 5.2 4.9z" fill="url(#a3)"/><path d="m10.3 11.8s3 .3 4.7.3c.1-.2.4-2.3.2-2.8 0 0 .3 2.3.3 2.7.9 0 4.5-.1 6.7-.5 0 0 .1-2.1-1.3-3.8-1.5-1.9-2.8-2.2-4.7-2.3-1.6-.1-3.3 1-4 1.7-1.7 1.8-2 3.1-1.9 4.7z" fill="url(#a4)"/></g><g transform="translate(363 76)"><circle cx="16.1" cy="15.7" fill="url(#a5)" r="15.6"/><path d="m12 16c-.3.2-.8 0-1-.4-.3-.4-.3-1.3.3-1.6.1 0 .2-.1.3-.1 0 0 .3.4.4.9.1.7.1 1.1 0 1.2z" fill="url(#a6)"/><path d="m21.3 16.1c.3.1.8-.2.9-.6.2-.5 0-1.4-.7-1.4-.1 0-.2 0-.3 0 0 0-.2.4-.2 1 .1.6.2 1 .3 1z" fill="url(#a7)"/><path d="m13.4 21.9c-.3.2-.1.8-1.1 1.2-.6.3-2.6.3-4.2.7-2 .6-3.5 2.5-3.5 2.5s4 5.1 11.8 5.1h.1c7.6-.1 11.6-5.6 11.6-5.6-.5-.4-.6-1.2-3.3-2-1.1-.3-3.2-.3-3.7-.7-.3-.2-.9-.7-1.1-.9z" fill="url(#a8)"/><path d="m13 17.8s.3 3.6-.2 4.9c-.2.5-1.1.4-1.1.6-.4 3.3 5 3.9 5 3.9s5.1-.8 4.8-4c0 0-.5-.1-.9-.6-.8-1.1-.2-4.8-.2-4.8z" fill="url(#a9)"/><path d="m21.7 13.1c0 .2-.4 3.1-.5 3.2-.2.8-.6 3.5-2.1 4.2-.6.3-1.7.6-2.4.6-.8 0-1.8-.2-2.5-.5-1.5-.6-2.2-3.8-2.3-4.2-.1-.2-.5-3.1-.5-3.3-.5-3.5 2-5.7 5.1-5.7 3.4 0 5.3 2.1 5.2 5.7z" fill="url(#ba)"/><path d="m19.3 17c-.4 0-.8-.6-2.8-.6-1.7 0-2.8.7-2.9.7s-1.2.5-1.6-1.5c-.2-.9-.4-.9-.4-.9s.6 4.7 2 6.7c.1.2.4.4.6.4 1 .3 3.3.4 4.9-.1.3-.1.5-.3.7-.6.4-.8 1.2-2.7 1.6-6 0-.1.1-.7.1-.7s-.3.1-.4.7c-.2.7-.3 1.8-1.8 1.9z" fill="url(#bb)"/><path d="m18.7 17.9c-.1.1-2.4.8-4.2 0 .1-.1.4-.5 2.1-.6s2.1.6 2.1.6z" fill="url(#bc)"/><path d="m21.7 13c-.1 0-1.5-.9-4.9-.2 0 0-.1 0-.2 0-.2 0-.2 0-.2 0-3.4-.7-4.8.1-4.9.2s-.1.2-.1.3c.1.1.2.1.3.1 0 0 .2-.1.5-.2 0 .5.1 1.7.7 2.1.4.3 1.1.3 1.6.3h.8s.7-.1.8-1c0-.5.1-1 .1-1.3h.1.3.3c0 .3.1.8.1 1.3.1.9.8 1 .8 1h.8c.5 0 1.2-.1 1.6-.3.6-.4.7-1.6.6-2.1.3.1.5.2.5.2h.1c.1 0 .2 0 .2-.1.2-.1.2-.3.1-.3zm-5.9 1.5c0 .7-.6.8-.6.8s-1.6.2-2.2-.2c-.5-.4-.6-1.6-.6-2 .7-.1 1.8-.3 3.5.1 0 .3-.1.8-.1 1.3zm4.3.6c-.6.4-2.2.3-2.2.3s-.5-.1-.6-.8c0-.5-.1-1.1-.1-1.4 1.7-.3 2.8-.2 3.5-.1 0 .3 0 1.6-.6 2z" fill="url(#bd)"/></g><path d="m345.4 152.6h244.5v61.2h-244.5z" fill="#f5f5f5"/><path d="m546.6 178.4h-98.3c-.9 0-1.6-.7-1.6-1.6v-1.8c0-.9.7-1.6 1.6-1.6h98.3c.9 0 1.6.7 1.6 1.6v1.8c0 .9-.8 1.6-1.6 1.6z" fill="url(#be)"/><path d="m528.4 195h-80.1c-.9 0-1.6-.7-1.6-1.6v-1.8c0-.9.7-1.6 1.6-1.6h80.1c.9 0 1.6.7 1.6 1.6v1.8c-.1.8-.8 1.6-1.6 1.6z" fill="url(#bf)"/><path d="m344.4 152.6h6.7v61.2h-6.7z" fill="#189c00"/><g transform="translate(400 166)"><circle cx="15.6" cy="15.8" fill="url(#bg)" r="15.6"/><path d="m11.5 16.1c-.3.2-.8 0-1-.4-.3-.4-.3-1.3.3-1.6.1 0 .2-.1.3-.1 0 0 .3.4.4.9.1.7.1 1.1 0 1.2z" fill="url(#bh)"/><path d="m20.8 16.2c.3.1.8-.2.9-.6.2-.5 0-1.4-.7-1.4-.1 0-.2 0-.3 0 0 0-.2.4-.2 1s.2 1 .3 1z" fill="url(#bi)"/><path d="m12.8 22c-.3.2-.1.8-1.1 1.2-.6.3-2.6.3-4.2.7-2 .6-3.5 2.5-3.5 2.5s4 5.1 11.8 5.1h.1c7.6-.1 11.6-5.6 11.6-5.6-.5-.4-.6-1.2-3.3-2-1.1-.3-3.2-.3-3.7-.7-.3-.2-.9-.7-1.1-.9z" fill="url(#bj)"/><path d="m12.5 17.9s.3 3.6-.2 4.9c-.2.5-1.1.4-1.1.6-.4 3.3 5 3.9 5 3.9s5.1-.8 4.8-4c0 0-.5-.1-.9-.6-.8-1.1-.2-4.8-.2-4.8z" fill="url(#bk)"/><path d="m21.2 13.2c0 .2-.4 3.1-.5 3.2-.2.8-.6 3.5-2.1 4.2-.6.3-1.7.6-2.4.6-.8 0-1.8-.2-2.5-.5-1.5-.6-2.2-3.8-2.3-4.2-.1-.2-.5-3.1-.5-3.3-.5-3.5 2-5.7 5.1-5.7 3.3 0 5.3 2.1 5.2 5.7z" fill="url(#bl)"/><path d="m18.8 17.1c-.4 0-.8-.6-2.8-.6-1.7 0-2.8.7-2.9.7s-1.2.5-1.6-1.5c-.2-.9-.4-.9-.4-.9s.6 4.7 2 6.7c.1.2.4.4.6.4 1 .3 3.3.4 4.9-.1.3-.1.5-.3.7-.6.4-.8 1.2-2.7 1.6-6 0-.1.1-.7.1-.7s-.3.1-.4.7c-.2.7-.3 1.8-1.8 1.9z" fill="url(#bm)"/><path d="m18.1 18c-.1.1-2.4.8-4.2 0 .1-.1.4-.5 2.1-.6 1.8 0 2.1.6 2.1.6z" fill="url(#bn)"/><path d="m21.1 13.1c-.1 0-1.5-.9-4.9-.2 0 0-.1 0-.2 0-.2 0-.2 0-.2 0-3.4-.7-4.8.1-4.9.2s-.1.2-.1.3c.1.1.2.1.3.1 0 0 .2-.1.5-.2 0 .5.1 1.7.7 2.1.4.3 1.1.3 1.6.3h.8s.7-.1.8-1c0-.5.1-1 .1-1.3h.1.3.3c0 .3.1.8.1 1.3.1.9.8 1 .8 1h.8c.5 0 1.2-.1 1.6-.3.6-.4.7-1.6.6-2.1.3.1.5.2.5.2h.1c.1 0 .2 0 .2-.1.3-.1.3-.3.1-.3zm-5.9 1.6c0 .7-.6.8-.6.8s-1.6.2-2.2-.2c-.5-.4-.6-1.6-.6-2 .7-.1 1.8-.3 3.5.1 0 .2 0 .7-.1 1.3zm4.4.5c-.6.4-2.2.3-2.2.3s-.5-.1-.6-.8c0-.5-.1-1.1-.1-1.4 1.7-.3 2.8-.2 3.5-.1-.1.3-.1 1.6-.6 2z" fill="url(#bo)"/></g><g transform="translate(381 166)"><circle cx="16.1" cy="15.9" fill="url(#bp)" r="15.6"/><path d="m13.3 22.9c-.6.6-1.2.9-2.9 1.4-3.9 1.3-4.4 3.3-4.4 3.3s2.8 3.9 10.6 3.7h.1c7.6-.3 10.8-5.1 10.8-5.1-.5-.4-1.1-1.6-3.8-2.3-1.7-.5-3.3-.6-3.9-1.2z" fill="url(#bq)"/><path d="m12.3 16.7c-.3.3-1 0-1.3-.4-.4-.5-.4-1.7.4-2 .1 0 .3-.1.4-.1 0 0 .4.4.6 1.2 0 .7 0 1.2-.1 1.3z" fill="url(#br)"/><path d="m20.8 16.5c.3.3 1-.1 1.3-.5.4-.5.3-1.7-.4-2-.1 0-.3-.1-.4-.1 0 0-.4.5-.5 1.2-.2.8-.1 1.3 0 1.4z" fill="url(#bs)"/><circle cx="16.3" cy="4.9" fill="url(#bt)" r="3.7"/><path d="m22.4 11.2c.1 3.5-2.6 6.4-5.9 6.4-3.3.1-6.1-2.7-6.2-6.2s2.6-6.4 5.9-6.4 6.1 2.8 6.2 6.2z" fill="url(#bu)"/><path d="m12.9 18s.9 3.6.3 5c0 .1-2 1.1-2 1.2 0 .3.2 1 .2 1.5.9 4.3 5.1 4.5 5.5 4.5 3-.1 5.9-1.6 5.4-6.6 0 0-1.9-.5-2.1-.7 0 0-.1-.2-.1-.2-.6-1.3.4-4.8.4-4.8z" fill="url(#bv)"/><path d="m19.8 7.1c0 1.6-1.5 2.9-3.4 2.9s-3.5-1.2-3.5-2.8 1.5-2.9 3.4-2.9 3.4 1.2 3.5 2.8z" fill="url(#bw)"/><path d="m21.6 13.1c0 .5-.4 3.1-.4 3.2-.2 2.6-3.3 5.1-4.5 5.1-1.5.1-4.4-2.3-4.7-4.9 0-.2-.5-3.1-.6-3.3-.3-2.8 2.2-5.2 5-5.2s5.3 1.9 5.2 5.1z" fill="url(#bx)"/><path d="m10.4 11.5s3 .3 4.7.3c.1-.2.4-2.3.2-2.8 0 0 .3 2.3.3 2.8.9 0 4.6-.1 6.8-.5 0 0 .1-2.1-1.3-3.9-1.5-1.9-2.8-2.2-4.8-2.3-1.6-.1-3.3 1-4.1 1.8-1.6 1.6-1.8 3-1.8 4.6z" fill="url(#by)"/></g></g><circle cx="397.1" cy="181.9" r="17.1" stroke="#f5f5f5" stroke-width="3"/><g fill-rule="nonzero" transform="translate(363 166)"><circle cx="16.1" cy="15.8" fill="url(#bz)" r="15.7"/><g transform="translate(5 4)"><path d="m9.1 21.8c0-1 7-.5 7-.5s2.4 1.9 3.4.6c1-1.2-1.5-15-1.9-16.4-1.4-5.8-7-5.1-8.9-4.5-1.5.5-3.4 2.2-3.9 4.9-1.1 8-1.1 12.7-.8 15.9.3 2.9 5.1 0 5.1 0z" fill="url(#bA)"/><path d="m8.2 18.9c-.6.5-1.2.9-2.9 1.4-3.9 1.2-4.5 3.2-4.5 3.2s2.8 4 10.6 4h.1c7.6-.1 11-4.9 11-4.9-.5-.4-1.1-1.6-3.7-2.4-1.7-.5-3.3-.7-3.9-1.3z" fill="url(#bB)"/><path d="m7.1 12.3c-.3.2-.9 0-1.2-.4-.3-.5-.3-1.5.4-1.7.1 0 .3-.1.4-.1 0 0 .4.4.5 1 0 .6 0 1.1-.1 1.2z" fill="url(#bC)"/><path d="m7.8 13.9s.8 3.6.2 5c0 .1-.6.5-1.6.9-.1 0 .3.9.5 1.4.9 2.2 4.4 5 4.7 4.9 2.8-1.2 5.1-5 5.1-6.6 0 0-1.3-.4-1.6-.6 0 0-.1-.2-.1-.2-.6-1.3.5-4.8.5-4.8z" fill="url(#bD)"/><path d="m16.7 9.2c0 .2-.5 3.1-.5 3.2-.3 2.6-3.4 5.1-4.7 5.1-1.5.1-4.4-2.4-4.7-5 0-.2-.5-3.1-.5-3.3 0-2.8 2.3-5.1 5.1-5.1 3 0 5.3 2.3 5.3 5.1z" fill="url(#bE)"/><path d="m4.9 5.7c-.1.4-1 6.9-1 9.9 0 1-.1 5.2.1 5.1 2.1-.6 2-.6 2.1-.7.4-.2 1.5-1.3.7-4.1-.3-1.1.1-3.6.1-3.6-.9 0-1.1-.8-1.1-.9 0-.2-.2-1.2.8-1.4 0 0 .8-2.7.8-2.7 1.2.9 4.5 3.4 9.2 3.4 0-.1 1.7 2 1.5 4.2-.6 5.2 1.9 5.6 1.9 5.5.3-1.1-1.3-13.4-2.5-16.1-.2-.5-.5-1.1-.8-1.5-1.5-1.8-4-2.9-7.5-1.9-3.6 1-4.3 4.8-4.3 4.8z" fill="url(#bF)"/></g></g><circle cx="378.9" cy="181.9" r="17.1" stroke="#f5f5f5" stroke-width="3"/><g fill-rule="nonzero" transform="translate(680 73)"><circle cx="15.8" cy="16" fill="url(#bG)" r="15.4"/><g transform="translate(4 5)"><path d="m8.5 17.3c-.6.5-1.5 1.2-3.3 1.7-3.9 1.2-4.9 2.4-4.9 2.4s3.9 5 11.6 5h.1c7.5-.1 11.4-5.5 11.4-5.5-.5-.4-1.6-1.1-4.3-1.9-1.7-.5-2.7-1.2-3.3-1.7z" fill="url(#bH)"/><path d="m8.5 13.1s.6 3.6-.2 4.8 3.9 2.2 3.9 2.2h.1s4.7-1 3.9-2.2-.2-4.8-.2-4.8z" fill="url(#bI)"/><path d="m17.2 8.5c0 .2-.5 3-.5 3.2-.2 2.6-2 4.6-4.6 4.6s-4.3-2-4.6-4.5c0-.2-.5-3.1-.5-3.3 0-2.8 2.3-5.1 5.1-5.1 2.9 0 5.1 2.3 5.1 5.1z" fill="url(#bJ)"/><path d="m7.6 11.7c0-.9 1.1-2.4.6-6 0 0 1.7-1 3.7.5 1.3 1 3.1 3 5.1 2.5v2s.5-.6 1.6-1.8c1-1.2.2-2.6-.9-3.5-1-.8-.1-4.9-4.7-3.7-1.2.3-1.8-.9-3.3-.7-1 .2-1.9 1-2 1.7-1.2.1-3.2 1.9-1.7 5 1.1 2.6 1.6 4 1.6 4z" fill="url(#bK)"/></g></g><g fill-rule="nonzero" transform="translate(661 73)"><circle cx="16" cy="16.4" fill="url(#bL)" r="15.7"/><g transform="translate(5 5)"><path d="m9 21.3c0-1 7-.5 7-.5s2.4 1.9 3.4.6-1.5-15-1.9-16.4c-1.4-5.8-7-5.1-8.9-4.5-1.5.5-3.4 2.2-3.9 4.9-1.1 8-1.1 12.7-.8 15.9.3 2.9 5.1 0 5.1 0z" fill="url(#bM)"/><path d="m8.1 18.4c-.6.5-1.2.9-2.9 1.4-3.9 1.2-4.5 3.2-4.5 3.2s2.8 4 10.6 4h.1c7.6-.1 11-4.9 11-4.9-.5-.4-1.1-1.6-3.7-2.4-1.7-.5-3.3-.7-3.9-1.3z" fill="url(#bN)"/><path d="m7 11.8c-.3.2-.9 0-1.2-.4-.3-.5-.3-1.5.4-1.7.1 0 .3-.1.4-.1 0 0 .4.4.5 1 .1.7 0 1.1-.1 1.2z" fill="url(#bO)"/><path d="m7.8 13.4s.8 3.6.2 5c0 .1-.6.5-1.6.9-.1 0 .3.9.5 1.4.9 2.2 4.4 5 4.7 4.9 2.8-1.2 5.1-5 5.1-6.6 0 0-1.3-.4-1.6-.6 0 0-.1-.2-.1-.2-.6-1.3.5-4.8.5-4.8z" fill="url(#bP)"/><path d="m16.6 8.8c0 .2-.5 3.1-.5 3.2-.3 2.6-3.4 5.1-4.7 5.1-1.5.1-4.4-2.4-4.7-5 0-.2-.5-3.1-.5-3.3 0-2.8 2.3-5.1 5.1-5.1 3-.1 5.3 2.2 5.3 5.1z" fill="url(#bQ)"/><path d="m4.9 5.2c-.1.4-1 6.9-1 9.9 0 1-.1 5.2.1 5.1 2.1-.6 2-.6 2.1-.7.4-.2 1.5-1.3.7-4.1-.3-1.1.1-3.6.1-3.6-.9 0-1.1-.8-1.1-.9 0-.2-.2-1.2.8-1.4 0 0 .8-2.7.8-2.7 1.2.9 4.5 3.4 9.2 3.4 0-.1 1.7 2 1.5 4.2-.6 5.2 1.9 5.6 1.9 5.5.3-1.1-1.3-13.4-2.5-16.1-.2-.5-.5-1.1-.8-1.5-1.5-1.8-4-2.9-7.5-1.9-3.7 1.1-4.3 4.8-4.3 4.8z" fill="url(#bR)"/></g></g><circle cx="677" cy="89.4" r="17.1" stroke="#f5f5f5" stroke-width="3"/></g></svg>