<?xml version="1.0" standalone="no"?>
<!DOCTYPE svg PUBLIC "-//W3C//DTD SVG 20010904//EN"
 "http://www.w3.org/TR/2001/REC-SVG-20010904/DTD/svg10.dtd">
<svg version="1.0" xmlns="http://www.w3.org/2000/svg"
 width="220.000000pt" height="229.000000pt" viewBox="0 0 220.000000 229.000000"
 preserveAspectRatio="xMidYMid meet">
<metadata>
Created by potrace 1.16, written by Peter Selinger 2001-2019
</metadata>
<g transform="translate(0.000000,229.000000) scale(0.100000,-0.100000)"
fill="#000000" stroke="none">
<path d="M125 2275 c-51 -18 -100 -73 -114 -130 -16 -63 -15 -1938 0 -2002 15
-58 70 -117 124 -132 28 -7 290 -11 853 -11 711 0 817 2 850 15 79 34 121 102
122 199 0 43 -3 57 -12 53 -7 -3 -40 -17 -73 -31 -37 -15 -61 -32 -64 -43 -8
-44 17 -43 -832 -43 -789 0 -809 0 -819 19 -14 27 -14 1925 0 1952 10 19 30
19 818 19 615 0 811 -3 820 -12 9 -9 12 -105 12 -368 l0 -357 38 -11 c20 -6
54 -20 75 -31 l37 -19 0 394 c0 334 -2 400 -15 432 -21 49 -52 81 -100 103
-38 18 -84 19 -860 18 -678 0 -827 -2 -860 -14z"/>
<path d="M598 1999 c-3 -40 -5 -43 -47 -55 -83 -24 -131 -95 -131 -194 0 -109
40 -158 165 -205 93 -35 141 -61 149 -80 23 -60 -18 -115 -84 -115 -59 0 -95
22 -114 70 -12 31 -21 40 -34 36 -9 -3 -38 -10 -65 -17 -42 -10 -47 -14 -41
-33 26 -83 87 -147 160 -165 l44 -11 0 -50 0 -50 40 0 40 0 0 50 c0 46 2 50
28 56 117 25 182 101 182 216 0 110 -41 153 -212 224 -94 38 -122 65 -113 103
7 32 49 71 76 71 35 0 74 -27 94 -64 11 -20 20 -36 21 -36 1 0 27 10 58 21 49
19 56 25 50 43 -20 65 -85 123 -156 140 -25 6 -28 11 -28 46 0 40 0 40 -39 40
-39 0 -40 0 -43 -41z"/>
<path d="M1190 1855 l0 -75 235 0 235 0 0 75 0 75 -235 0 -235 0 0 -75z"/>
<path d="M1060 1385 l0 -75 120 0 c118 0 120 1 183 35 69 38 197 75 259 75 31
0 38 3 38 20 0 20 -7 20 -300 20 l-300 0 0 -75z"/>
<path d="M1521 1314 c-83 -22 -169 -73 -235 -139 -186 -186 -207 -483 -48
-693 224 -296 672 -280 873 31 140 215 106 494 -80 670 -72 68 -160 118 -241
136 -64 15 -206 12 -269 -5z m202 -114 c117 -19 234 -97 291 -194 93 -159 67
-362 -64 -492 -201 -200 -532 -142 -653 113 -30 63 -32 76 -32 173 0 93 3 111
27 163 55 116 183 216 304 236 69 12 63 12 127 1z"/>
<path d="M1620 1065 c0 -27 -6 -37 -27 -49 -26 -14 -30 -13 -56 12 l-27 26
-40 -39 c-46 -45 -47 -51 -20 -80 17 -18 19 -27 11 -48 -9 -22 -17 -27 -46
-27 l-36 0 3 -62 3 -63 33 -3 c47 -5 64 -43 34 -75 -29 -31 -28 -37 11 -75 38
-37 57 -40 81 -13 15 16 23 18 46 9 24 -8 29 -16 32 -46 l3 -37 55 0 55 0 3
36 c2 28 9 39 29 48 22 10 29 9 48 -9 30 -28 46 -25 83 13 38 39 38 44 11 73
-14 15 -18 29 -14 47 6 21 14 26 43 29 l37 3 3 63 3 62 -36 0 c-28 0 -38 5
-47 25 -10 21 -8 29 10 48 12 13 22 28 22 33 0 6 -18 27 -40 49 l-40 39 -27
-26 c-26 -25 -30 -26 -55 -12 -22 12 -28 22 -28 49 l0 35 -60 0 -60 0 0 -35z
m140 -124 c43 -22 76 -69 85 -121 11 -63 -30 -141 -87 -169 -148 -71 -293 65
-229 215 40 93 136 124 231 75z"/>
<path d="M1634 901 c-90 -39 -82 -184 12 -210 78 -22 144 31 144 113 0 71 -88
126 -156 97z"/>
<path d="M360 915 l0 -75 343 2 342 3 6 50 c4 28 9 61 13 73 l7 22 -355 0
-356 0 0 -75z"/>
<path d="M360 450 l0 -70 426 0 426 0 -16 23 c-9 12 -31 43 -49 69 l-32 48
-377 0 -378 0 0 -70z"/>
</g>
</svg>
